<?xml version="1.0" encoding="utf-8"?>
<!-- Generator: Adobe Illustrator 24.1.2, SVG Export Plug-In . SVG Version: 6.00 Build 0)  -->
<svg version="1.1" id="Work" xmlns="http://www.w3.org/2000/svg" xmlns:xlink="http://www.w3.org/1999/xlink" x="0px" y="0px"
	 viewBox="0 0 1280 1280" style="enable-background:new 0 0 1280 1280;" xml:space="preserve">
<style type="text/css">
	.st0{fill:url(#SVGID_1_);}
	.st1{fill:url(#SVGID_2_);}
	.st2{fill:#51422F;}
	.st3{fill:url(#SVGID_3_);}
	.st4{opacity:0.25;fill:#999999;}
	.st5{fill:url(#SVGID_4_);}
	.st6{fill:url(#SVGID_5_);}
	.st7{opacity:0.5;fill:#808400;}
	.st8{fill:#669933;}
	.st9{fill:#8CC63F;}
	.st10{fill:#E6E6E6;}
	.st11{fill:#F2F2F2;}
	.st12{fill:#FFFFFF;}
	.st13{fill:#B3B3B3;}
	.st14{opacity:0.83;fill:#C1272D;}
	.st15{opacity:0.9;fill:#C1272D;}
	.st16{opacity:0.78;fill:#C1272D;}
	.st17{opacity:0.89;fill:#EFDF81;}
	.st18{opacity:0.76;fill:#EFDF81;}
</style>
<g>
	
		<radialGradient id="SVGID_1_" cx="640" cy="556.9726" r="227.5997" gradientTransform="matrix(0.9575 0 0 1.0376 27.1998 -20.9475)" gradientUnits="userSpaceOnUse">
		<stop  offset="0.6053" style="stop-color:#75634C"/>
		<stop  offset="0.7165" style="stop-color:#715F48"/>
		<stop  offset="0.8343" style="stop-color:#64533D"/>
		<stop  offset="0.9296" style="stop-color:#54432E"/>
	</radialGradient>
	<path class="st0" d="M640,1247.28c-103.78,0-168.91-43.55-205.27-80.08c-48.51-48.74-65.73-103.76-65.73-136.06
		c0-53.15,39.49-110.9,74.33-161.85c25.21-36.87,49.02-71.69,49.02-93.11c0-22.33-9.51-35.15-21.55-51.38
		c-14.85-20.02-31.69-42.71-31.69-86.94c0-1.99,0-4.71,12.1-46.67c7.08-24.54,16.73-56.98,26.48-88.99
		c14.55-47.76,39.87-129.38,45.99-139.42l0.55-0.9c10.03-16.53,28.71-47.29,115.77-47.29s105.74,30.77,115.77,47.29l0.55,0.9
		c6.12,10.04,31.44,91.66,45.99,139.42c9.75,32.01,19.4,64.45,26.48,88.99c12.1,41.96,12.1,44.68,12.1,46.67
		c0,44.23-16.83,66.92-31.69,86.94c-12.04,16.23-21.55,29.05-21.55,51.38c0,21.42,23.81,56.24,49.02,93.11
		C871.51,920.25,911,978,911,1031.15c0,27.63-11.31,61.39-31.04,92.64c-16.2,25.67-45.9,61.9-95.35,88.77
		c-0.18,0.1-0.36,0.19-0.54,0.27c-12.84,6-58.65,26.09-108.76,32.67c-0.1,0.01-0.2,0.02-0.29,0.03
		C663.54,1246.69,651.77,1247.28,640,1247.28z"/>
	<path d="M640,324.6c83.1,0,98.69,28.48,107.78,43.4c9.09,14.92,83.1,260.8,83.1,269.87c0,75.94-53.24,82.72-53.24,138.33
		c0,55.6,123.36,165.45,123.36,254.96c0,47.68-38.27,127.58-121.17,172.62c-22.15,10.35-63.55,26.27-105.83,31.82
		c-10.92,1.11-22.24,1.7-34,1.7c-180.49,0-261-136.97-261-206.13c0-89.51,123.36-199.35,123.36-254.96
		c0-55.6-53.24-62.38-53.24-138.33c0-9.07,74.02-254.96,83.1-269.87C541.31,353.08,556.9,324.6,640,324.6 M640,304.6
		c-39.27,0-68.88,5.93-90.53,18.14c-20.03,11.3-28.64,25.48-33.79,33.96l-0.54,0.89c-1.65,2.71-4.41,7.24-18.76,51.41
		c-7.7,23.69-17.73,55.76-28.25,90.29c-9.77,32.06-19.43,64.55-26.52,89.14c-12.49,43.32-12.49,46.02-12.49,49.44
		c0,47.53,18.66,72.69,33.66,92.9c11.37,15.32,19.58,26.4,19.58,45.42c0,7.44-4.3,18.92-12.79,34.11
		c-8.9,15.94-21.33,34.11-34.49,53.35C399.42,915.8,359,974.91,359,1031.15c0,21.09,5.96,45.21,17.23,69.74
		c12.13,26.39,29.9,51.76,51.41,73.38c24.98,25.1,54.47,44.93,87.65,58.96c37.76,15.97,79.72,24.06,124.71,24.06
		c12.1,0,24.22-0.61,36.02-1.8c0.2-0.02,0.39-0.04,0.59-0.07c51.54-6.77,98.52-27.37,111.7-33.53c0.37-0.17,0.73-0.35,1.08-0.55
		c51.34-27.9,82.19-65.54,99.03-92.21c20.71-32.8,32.58-68.51,32.58-97.97c0-56.24-40.42-115.34-76.08-167.49
		c-13.16-19.24-25.58-37.41-34.49-53.35c-8.49-15.2-12.79-26.68-12.79-34.11c0-19.03,8.21-30.1,19.58-45.42
		c14.99-20.21,33.66-45.37,33.66-92.9c0-3.42,0-6.12-12.49-49.44c-7.09-24.59-16.76-57.08-26.52-89.14
		c-39.33-129.09-45.11-138.59-47.01-141.71l-0.54-0.89c-5.14-8.48-13.75-22.66-33.79-33.96C708.88,310.53,679.27,304.6,640,304.6
		L640,304.6z"/>
</g>
<g>
	
		<radialGradient id="SVGID_2_" cx="641.592" cy="1016.2159" r="245.0337" gradientTransform="matrix(1 0 0 0.7425 0 261.647)" gradientUnits="userSpaceOnUse">
		<stop  offset="0.6053" style="stop-color:#75634C"/>
		<stop  offset="0.7381" style="stop-color:#715F48"/>
		<stop  offset="0.8787" style="stop-color:#64533D"/>
		<stop  offset="0.9926" style="stop-color:#54432E"/>
	</radialGradient>
	<path class="st1" d="M785.33,787.72H494.67c-14.66,58.29-127.26,159.75-127.26,243.43c0,69.16,84.08,206.13,272.58,206.13
		c12.28,0,24.11-0.59,35.51-1.7c44.16-5.55,87.4-21.47,110.53-31.82c86.58-45.04,126.54-124.94,126.54-172.62
		C912.58,947.47,799.98,846.01,785.33,787.72z"/>
</g>
<path class="st2" d="M680.82,1234.86c18.16-2.62,36.03-6.89,52.27-11.7c22.95-110.45,37.66-223.66,43.93-338.57
	c8.81-161.41,0.65-324.28-24.25-484.1c-2.21-14.21-4.58-28.38-7.05-42.52c-8.24-10.51-22.64-22.72-54.65-29.05
	c35.25,179.9,48.49,366.81,38.45,550.64C722.92,1000.38,706.6,1119.25,680.82,1234.86z"/>
<path class="st2" d="M533.76,358.65c-2.43,13.92-4.76,27.86-6.94,41.84c-24.9,159.82-33.06,322.69-24.25,484.1
	c6.3,115.46,21.13,229.2,44.26,340.16c16.16,4.64,33.47,8.14,51.96,10.24c-25.79-115.64-42.12-234.56-48.72-355.43
	c-10.03-183.8,3.2-370.68,38.43-550.56C556.12,335.5,541.89,348.03,533.76,358.65z"/>
<radialGradient id="SVGID_3_" cx="675.6877" cy="687.976" r="437.9545" gradientTransform="matrix(1.0176 3.093651e-03 -2.949702e-03 0.8827 -8.9985 209.7124)" gradientUnits="userSpaceOnUse">
	<stop  offset="0.5302" style="stop-color:#F2F4D4"/>
	<stop  offset="0.6441" style="stop-color:#EFF1CF"/>
	<stop  offset="0.7774" style="stop-color:#E6E7C1"/>
	<stop  offset="0.9197" style="stop-color:#D7D7AA"/>
	<stop  offset="1" style="stop-color:#CCCC99"/>
</radialGradient>
<path class="st3" d="M911,1009c-2-124-152.16-183.33-110.3-242.16c14.2-19.96,22.31-43.49,22.52-67.87
	c0.32-36.47-4.28-77.54,21.91-111.45c37.89-49.05-53.29-37.48-67.9-35.35c-1.16,0.17-2.07,1.05-2.28,2.2
	c-3.09,16.8-28.12,139.73-101.11,155.51c-0.82,0.18-1.69-0.05-2.33-0.59L477.14,544.87c-1.2-1.01-3-0.81-3.94,0.45l-41.14,54.97
	c-0.65,0.87-0.73,2.04-0.18,2.98c7.64,13.32,61.77,109.68,61.75,165.76c0,0.18-0.02,0.35-0.05,0.53
	c-25.3,139.49-138.81,194.32-139.12,287.7c-0.52,156.65,250.53,163.95,383.29,190.59c1.19,0.24,2.38-0.33,2.94-1.4
	c4.53-8.73,14.13-44.57,17.24-56.42c0.48-1.84,2.65-2.63,4.2-1.54c15.56,11.02,83.21,58.2,102.88,60.06
	c1.71,0.16,3.14-1.25,2.99-2.96C855.48,1104.57,913,1133,911,1009z"/>
<path class="st4" d="M880.33,1061.93c2.09-1.82,4.2-3.72,6.39-5.76c2.71-2.58,5.58-5.2,8.51-8.59c-4.67-1.27-9.24-1.35-13.74-0.97
	c-3.42,0.33-6.77,1.02-9.99,2.01c-10.44-14.91-22.85-29.91-37.62-44.56l4.8-3.91c2.54-2.03,5.18-4.12,8.01-6.33l4.37-3.43
	c1.51-1.19,3.07-2.42,4.69-3.83c-2.11-0.8-4.24-1.28-6.39-1.6c-2.16-0.35-4.31-0.46-6.49-0.49c-4.33-0.02-8.64,0.54-12.8,1.61
	c-3.84,0.97-7.54,2.39-11.04,4.13c-16.4-14.04-32.75-21.45-49.97-29.09l6.23-8.7c1.87-2.62,3.74-5.32,5.68-8.13
	c0.94-1.43,1.94-2.85,2.89-4.37c0.97-1.5,1.95-3.04,2.86-4.75c-4.3,0.31-8.24,1.37-12.03,2.73c-3.77,1.39-7.34,3.14-10.62,5.23
	c-4.58,2.88-8.67,6.34-12.18,10.19c-15.46-7.38-32.68-16.96-52.63-33.13c-7.18-5.82-16.99-13.78-27.85-24.26
	c0.54-0.29,1.08-0.58,1.62-0.89c3.15-1.8,6.2-3.8,9.1-6.09l2.14-1.77c0.69-0.63,1.4-1.22,2.08-1.89c1.36-1.3,2.68-2.68,3.88-4.27
	c-2.16-0.36-4.2-0.52-6.21-0.61c-1.02-0.07-1.99-0.05-2.99-0.09l-2.93,0.02c-3.86,0.09-7.6,0.42-11.25,0.9
	c-2.83,0.38-5.62,0.87-8.36,1.44c-8.84-9.65-17.94-20.92-26.56-33.95c3.22-2.2,6.28-4.57,9.13-7.13c2.78-2.48,5.34-5.15,7.68-7.99
	c2.31-2.86,4.44-5.84,6.06-9.2c-3.99,1.13-7.6,2.49-11.16,3.85c-3.53,1.38-6.99,2.77-10.34,4.21c-3.05,1.3-6.04,2.63-9.01,3.97
	c-6.83-11.67-12.67-23.69-17.51-36.01c2.63-1.2,5.26-2.44,7.88-3.77c3.32-1.67,6.62-3.47,9.95-5.41c1.66-0.99,3.33-1.99,4.99-3.09
	c1.66-1.09,3.34-2.22,4.98-3.55c-2.15-0.57-4.26-0.91-6.37-1.16c-2.11-0.26-4.2-0.38-6.3-0.45c-4.17-0.1-8.31,0.11-12.36,0.62
	c-2.78,0.35-5.52,0.83-8.23,1.41c-3.26-10.24-5.84-20.67-7.75-31.27c0.85,0.1,1.71,0.19,2.57,0.24c4.11,0.27,8.26,0.03,12.31-0.75
	c4.04-0.81,8.01-2.08,11.63-4.35c-3.77-2.06-7.2-3.6-10.51-5.06c-3.3-1.44-6.46-2.75-9.53-3.98c-0.7-0.28-1.4-0.55-2.09-0.82
	c8.93-5.39,17.5-11.15,25.7-17.27c1.8,1.31,3.63,2.61,5.53,3.92c2.45,1.69,4.98,3.4,7.72,5.13c1.37,0.87,2.77,1.74,4.26,2.62
	c1.48,0.88,3.02,1.78,4.78,2.64c0.28-1.73,0.27-3.39,0.13-5.02c-0.06-0.82-0.2-1.62-0.32-2.43c-0.18-0.78-0.31-1.6-0.53-2.38
	c-0.82-3.14-2.15-6.14-3.83-8.97c-1.27-2.13-2.76-4.16-4.43-6.06c3.74-3.13,12.05-10.26,18.24-15.76l-0.09-0.08l-18.08-15.3
	c-5.89,5.25-15.97,13.83-19.95,17.09c-2.94-1.25-6-2.29-9.14-3.06c-3.51-0.87-7.14-1.38-10.81-1.54c-3.67-0.13-7.36,0.05-11.08,0.95
	c1.35,1.22,2.69,2.27,4.01,3.31c1.31,1.05,2.61,2.01,3.88,2.98c2.55,1.92,5,3.75,7.41,5.51c0.9,0.66,1.78,1.3,2.66,1.95
	c-9.98,7.25-20.54,13.94-31.65,20.03c-1.89-1.51-3.81-2.95-6.03-4.22l-8.67-5.05c-3.04-1.79-6.19-3.68-9.91-5.74
	c-0.37,1.9-0.37,3.77-0.19,5.61c0.17,1.84,0.58,3.64,1.13,5.41c1.11,3.53,2.9,6.87,5.18,9.95c0.63,0.85,1.34,1.65,2.1,2.4
	c-9.82,4.63-19.97,8.78-30.38,12.42c-0.92-2.09-1.9-4.21-2.97-6.36c-1.16-2.33-2.39-4.71-3.84-7.17c-1.44-2.46-2.93-5-5.01-7.7
	c-2.29,2.56-3.75,5.29-4.92,8.09c-1.16,2.8-1.86,5.67-2.25,8.56c-0.45,3.51-0.39,7.05,0.12,10.54c-2.8,0.79-8.6,2.26-13.74,3.53
	c0.01,0.05,0.01,0.09,0.01,0.14c0.09,0.8,0.16,1.59,0.23,2.38c0.02,0.19,0.04,0.38,0.05,0.56c0.08,0.93,0.14,1.85,0.2,2.77
	c0,0.04,0.01,0.08,0.01,0.12c0.05,0.96,0.1,1.91,0.12,2.85c0.01,0.19,0,0.38,0.01,0.57c0.02,0.68,0.03,1.36,0.03,2.03
	c0,0.01,0,0.02,0,0.04c0,0.08,0,0.15,0,0.23c-0.01,0.08-0.03,0.16-0.05,0.24c0,0.01,0,0.02,0,0.03c-0.16,0.91-0.35,1.8-0.52,2.7
	c-0.2,1.02-0.39,2.05-0.59,3.07c-0.35,1.71-0.71,3.41-1.09,5.1c-0.04,0.17-0.07,0.35-0.11,0.52c8.09-1.9,18.94-4.61,24.81-6.31
	c0.44,0.5,0.89,1,1.36,1.48c2.18,2.24,4.69,4.27,7.55,6c0.71,0.44,1.48,0.83,2.21,1.23c0.78,0.38,1.54,0.76,2.36,1.09
	c1.62,0.68,3.33,1.27,5.25,1.66c0.1-1.71,0.03-3.26-0.08-4.74c-0.09-1.49-0.25-2.9-0.41-4.28c-0.35-2.74-0.81-5.3-1.37-7.76
	c12.05-4.13,23.8-8.88,35.14-14.23c2.24,13.04,5.45,25.86,9.58,38.41c-4.23,2.17-8.26,4.65-12.02,7.45
	c-3.1,2.31-6.01,4.86-8.66,7.65c-1.31,1.41-2.59,2.85-3.75,4.41c-1.18,1.54-2.28,3.15-3.21,4.93c2.25-0.17,4.34-0.5,6.39-0.85
	c2.05-0.35,4.03-0.76,5.99-1.18c3.89-0.88,7.64-1.85,11.27-2.92c3.38-1,6.67-2.07,9.91-3.19c5.14,12.78,11.29,25.24,18.44,37.36
	c-2.44,1.27-4.86,2.58-7.27,3.97c-3.11,1.79-6.2,3.69-9.27,5.78c-3.07,2.1-6.16,4.28-9.16,7.02c4.27,0.74,8.39,0.76,12.44,0.52
	c4.06-0.25,8.02-0.85,11.89-1.73c3.21-0.72,6.33-1.65,9.38-2.73c7.61,11.49,15.54,21.67,23.36,30.65c-2.44,1.04-4.85,2.15-7.24,3.36
	c-3.19,1.62-6.34,3.38-9.42,5.39c-1.54,1.01-3.07,2.05-4.58,3.19c-1.51,1.14-3,2.33-4.44,3.73c2.07,0.53,4.08,0.84,6.07,1.08
	c1.99,0.25,3.96,0.38,5.91,0.48c3.9,0.17,7.72,0.06,11.48-0.25c5.33-0.45,10.54-1.32,15.62-2.52
	c11.05,11.18,21.33,19.96,29.52,26.68c-19.6,5.51-38.79,11.88-57.52,19.08c-3.09-2.63-6.46-4.98-10.06-6.98
	c-3.81-2.11-7.84-3.87-12.08-5.17c-1.05-0.34-2.15-0.6-3.21-0.9c-1.1-0.25-2.17-0.51-3.29-0.71c-2.21-0.41-4.46-0.71-6.81-0.77
	c1.3,1.7,2.64,3.23,3.97,4.73c1.32,1.5,2.65,2.94,3.95,4.36l7.6,8.2c1.19,1.29,2.37,2.57,3.53,3.85
	c-17.83,7.44-35.19,15.67-52.06,24.64c-2.83-2.17-5.88-4.11-9.13-5.75c-3.74-1.88-7.74-3.39-11.95-4.42
	c-1.06-0.25-2.14-0.47-3.2-0.68c-1.1-0.17-2.16-0.37-3.28-0.48c-2.21-0.26-4.48-0.37-6.86-0.22c0.98,1.9,2.05,3.57,3.12,5.18
	c1.07,1.61,2.14,3.14,3.21,4.62c2.14,2.95,4.29,5.69,6.42,8.32c1.03,1.28,2.06,2.53,3.09,3.75c-0.73,0.42-1.47,0.84-2.2,1.26
	c-18.68,10.92-36.68,22.86-53.88,35.7c-2.22-1.48-4.54-2.84-6.97-4.06c-3.74-1.86-7.69-3.42-11.88-4.56
	c-2.11-0.55-4.23-1.04-6.46-1.36c-2.2-0.34-4.47-0.56-6.87-0.52c0.92,1.93,1.96,3.64,2.99,5.29c0.51,0.84,1.06,1.61,1.57,2.43
	l1.59,2.33c2.14,3.05,4.32,5.87,6.52,8.6c1.17,1.44,2.35,2.84,3.54,4.23c-14.3,11.49-27.97,23.62-40.95,36.31
	c-1.04-0.76-2.09-1.5-3.19-2.2c-3.17-2.03-6.56-3.83-10.21-5.32c-0.91-0.37-1.86-0.71-2.79-1.05c-0.96-0.32-1.91-0.64-2.9-0.91
	c-1.96-0.57-4-1.04-6.2-1.31c0.56,1.87,1.28,3.55,2.01,5.18c0.36,0.83,0.77,1.6,1.13,2.4l1.19,2.31c1.61,3.03,3.34,5.87,5.14,8.61
	c1.1,1.65,2.23,3.26,3.39,4.84c-11.02,11.49-21.48,23.4-31.32,35.69c4.64,6.73,9.98,13.01,15.95,18.88
	c9.67-12.48,19.99-24.56,30.92-36.22c2.06,2.17,4.18,4.32,6.4,6.45c2.45,2.34,5,4.68,7.77,6.98c2.78,2.3,5.64,4.63,9.11,6.82
	c0.52-3.7,0.26-7.2-0.27-10.64c-0.53-3.45-1.48-6.78-2.68-10.02c-1.76-4.67-4.12-9.13-6.97-13.33c12.8-12.7,26.33-24.81,40.51-36.27
	c2.71,2.77,5.48,5.54,8.38,8.34c2.54,2.44,5.14,4.93,7.95,7.47c1.41,1.27,2.82,2.57,4.35,3.87c1.51,1.31,3.06,2.65,4.86,3.98
	c1.22-3.92,1.4-7.79,1.15-11.61c-0.26-3.82-1.1-7.56-2.34-11.19c-1.73-4.95-4.25-9.66-7.38-14.03
	c16.31-12.15,33.36-23.46,51.06-33.81c1.11-0.65,2.23-1.27,3.34-1.91c2.25,2.64,4.49,5.32,6.77,8.1c2.12,2.57,4.23,5.23,6.48,8.03
	c1.13,1.4,2.23,2.85,3.44,4.33c1.18,1.49,2.39,3.02,3.79,4.62c2-3.58,2.91-7.35,3.31-11.16c0.41-3.81,0.14-7.65-0.62-11.41
	c-0.9-4.39-2.52-8.66-4.69-12.69c16.71-8.82,33.94-16.87,51.63-24.11c2.31,3.36,4.47,6.82,6.44,10.47c1.63,3,3.17,6.13,4.6,9.44
	c0.75,1.65,1.4,3.35,2.12,5.09c0.69,1.75,1.36,3.55,2.13,5.43c2.3-3.44,3.62-7.24,4.39-11.14c0.74-3.9,0.85-7.93,0.36-11.91
	c-0.57-4.68-1.98-9.28-4.04-13.65c21.2-7.98,43-14.87,65.34-20.58c15.39,10.79,29.11,18.1,41.71,24.06
	c-0.57,1.76-1.03,3.55-1.38,5.35c-0.69,3.48-0.92,7.03-0.7,10.57c0.14,1.78,0.36,3.54,0.77,5.31c0.38,1.76,0.93,3.52,1.73,5.26
	c1.38-1.46,2.52-2.91,3.66-4.33c1.13-1.42,2.19-2.81,3.24-4.18c2.06-2.75,4.03-5.41,5.9-8.03l2.12-2.98
	c0.27,0.12,0.54,0.24,0.81,0.36c16.25,7.21,30.42,13.5,44.23,25.18c-0.29,0.39-0.59,0.78-0.87,1.18c-2.21,3.27-3.99,6.76-5.16,10.39
	c-1.19,3.62-1.79,7.37-1.72,11.13c0.07,1.89,0.22,3.76,0.66,5.63c0.4,1.86,0.98,3.71,1.94,5.53c1.63-1.42,3.03-2.78,4.39-4.1
	l3.93-3.82l7.21-7l4.89-4.62c13.53,13.58,24.9,27.47,34.48,41.26c-0.96,0.9-1.9,1.82-2.8,2.77c-0.35,0.37-0.72,0.74-1.06,1.12
	l-0.99,1.17c-0.66,0.78-1.32,1.56-1.94,2.36c-0.6,0.81-1.19,1.63-1.77,2.45c-0.6,0.81-1.12,1.66-1.63,2.51
	c-2.1,3.38-3.76,6.94-4.99,10.59c-1.23,3.65-2.04,7.38-2.28,11.16c-0.25,3.77-0.06,7.57,1,11.34c2.88-2.97,5.32-5.83,7.81-8.56
	c2.48-2.73,4.87-5.35,7.27-7.86c2.4-2.51,4.74-4.96,7.17-7.27c1.17-1.19,2.44-2.29,3.61-3.45c0.53-0.45,1.03-0.92,1.54-1.39
	c9.62,16.12,16.91,31.87,22.44,46.57c4.72-10,9.73-19.42,14.16-30.47C892.99,1083.63,887.17,1072.85,880.33,1061.93z"/>
<g>
	<path d="M475.39,544.22c0.62,0,1.24,0.21,1.76,0.64l194.37,164.42c0.5,0.42,1.13,0.65,1.77,0.65c0.19,0,0.37-0.02,0.56-0.06
		c72.99-15.78,98.01-138.71,101.11-155.51c0.21-1.15,1.12-2.03,2.28-2.2c5.19-0.76,20.04-2.7,35.33-2.7c27.76,0,57,6.42,32.57,38.05
		c-26.19,33.9-21.59,74.98-21.91,111.45c-0.21,24.38-8.32,47.91-22.52,67.87C758.84,825.67,909,885,911,1009s-55.52,95.57-43,236.57
		c0.14,1.62-1.14,2.98-2.73,2.98c-0.09,0-0.18,0-0.26-0.01c-19.67-1.85-87.32-49.04-102.88-60.06c-0.48-0.34-1.03-0.5-1.56-0.5
		c-1.18,0-2.31,0.77-2.64,2.04c-3.11,11.85-12.71,47.69-17.24,56.42c-0.47,0.91-1.4,1.46-2.4,1.46c-0.18,0-0.36-0.02-0.54-0.05
		c-132.76-26.64-383.81-33.94-383.29-190.59c0.31-93.38,113.81-148.21,139.12-287.7c0.03-0.17,0.05-0.35,0.05-0.53
		c0.02-56.07-54.11-152.43-61.75-165.76c-0.54-0.94-0.47-2.11,0.18-2.98l41.14-54.97C473.74,544.6,474.56,544.22,475.39,544.22
		 M475.39,519.22C475.39,519.22,475.39,519.22,475.39,519.22C475.39,519.22,475.39,519.22,475.39,519.22
		c-8.7,0-16.99,4.15-22.2,11.11l-41.14,54.97c-6.64,8.86-7.36,20.8-1.86,30.4c21.38,37.28,57.33,110.46,58.41,151.43
		c-12.31,65.08-45.19,109.6-76.99,152.68c-31.87,43.17-61.97,83.94-62.15,137.36c-0.12,36.94,11.73,69.4,35.23,96.48
		c19.76,22.77,47.14,41.38,83.71,56.88c63.29,26.83,141.87,38.91,211.2,49.56c26.6,4.09,51.72,7.95,73.24,12.26
		c1.79,0.36,3.63,0.54,5.46,0.54c10.38,0,19.8-5.72,24.59-14.94c3.14-6.04,7.2-18.6,10.86-31.12c7.7,5.17,16.29,10.81,24.98,16.27
		c40.04,25.18,54.8,29.46,63.95,30.32c0.88,0.08,1.75,0.12,2.61,0.12c7.76,0,15.22-3.29,20.47-9.01c5.24-5.72,7.85-13.44,7.16-21.17
		c-6.05-68.19,4.91-90.61,17.6-116.58c12.43-25.43,26.53-54.26,25.49-118.19c-0.53-32.9-9.93-64.43-28.72-96.41
		c-15.55-26.44-34.93-48.85-52.04-68.62c-14.13-16.33-27.47-31.75-33.61-44.12c-5.53-11.14-2.89-14.85-0.56-18.13
		c17.51-24.61,26.9-53.02,27.15-82.14c0.05-5.22-0.01-10.53-0.05-15.66c-0.29-29.99-0.56-58.32,16.75-80.72
		c6.37-8.24,10.51-15.93,12.65-23.51c3.59-12.66,0.84-22.46-2.1-28.45c-5.59-11.37-16.26-19.14-31.73-23.09
		c-8.66-2.21-18.86-3.29-31.18-3.29c-16.78,0-32.82,2.07-38.94,2.97c-11.76,1.71-21.11,10.72-23.26,22.41
		c-1.17,6.36-7.76,39.74-22.53,72.35c-10.18,22.47-26.64,49.72-49.59,60.04L493.29,525.78
		C488.29,521.55,481.93,519.22,475.39,519.22L475.39,519.22L475.39,519.22z"/>
</g>
<g>
	<g>
		<radialGradient id="SVGID_4_" cx="642.0337" cy="354.8372" r="258.8197" gradientUnits="userSpaceOnUse">
			<stop  offset="0.3224" style="stop-color:#75634C"/>
			<stop  offset="0.5512" style="stop-color:#705E48"/>
			<stop  offset="0.8165" style="stop-color:#62513B"/>
			<stop  offset="1" style="stop-color:#54432E"/>
		</radialGradient>
		<path class="st5" d="M642.78,627.01c-0.25,0-0.5,0-0.74-0.01c-0.26,0.01-0.5,0.01-0.74,0.01c-0.48,0-0.95-0.02-1.42-0.05
			c-36.98-0.63-72.3-13.2-105-37.38c-28.04-20.73-53.45-49.44-75.53-85.32c-19.02-30.92-34.94-66.42-46.02-102.65
			c-10.49-34.29-16.03-66.89-16.03-94.25c0-55.27,20.21-109.65,55.45-149.21c30.34-34.06,87.43-74.72,187.28-75.46
			c0.42-0.03,0.84-0.04,1.26-0.04c0.25,0,0.5,0,0.74,0.01c0.26-0.01,0.5-0.01,0.74-0.01c0.42,0,0.85,0.01,1.26,0.04
			c99.85,0.74,156.94,41.4,187.28,75.46c35.24,39.56,55.45,93.94,55.45,149.21c0,27.36-5.54,59.95-16.03,94.25
			c-11.08,36.24-26.99,71.73-46.02,102.65c-22.07,35.88-47.48,64.58-75.53,85.32c-32.7,24.18-68.02,36.75-105,37.38
			C643.72,627,643.25,627.01,642.78,627.01z"/>
		<path d="M642.78,102.66c0,0.01,0,0.02,0,0.03c164.3,0.69,223.99,114.47,223.99,204.68c0,99.04-82.88,298.22-223.99,299.61
			c0,0.01,0,0.02,0,0.03c-0.25,0-0.49-0.01-0.74-0.02c-0.25,0-0.49,0.02-0.74,0.02c0-0.01,0-0.02,0-0.03
			C500.18,605.59,417.3,406.41,417.3,307.37c0-90.21,59.69-203.98,223.99-204.68c0-0.01,0-0.02,0-0.03c0.25,0,0.49,0.02,0.74,0.02
			C642.29,102.68,642.52,102.66,642.78,102.66 M642.78,62.66c-0.25,0-0.5,0-0.74,0.01c-0.25,0-0.49-0.01-0.74-0.01
			c-0.63,0-1.26,0.01-1.88,0.04c-43.63,0.37-83.33,8.03-118.05,22.75c-32.67,13.86-60.78,33.84-83.54,59.4
			c-20.36,22.85-35.96,49.56-46.38,79.38c-9.25,26.46-14.13,55.21-14.13,83.14c0,29.32,5.85,63.93,16.9,100.1
			c11.57,37.84,28.2,74.94,48.11,107.29c23.42,38.07,50.56,68.66,80.67,90.92c35.98,26.6,75.03,40.49,116.08,41.28
			c0.74,0.04,1.48,0.06,2.23,0.06c0.25,0,0.5,0,0.74-0.01c0.25,0,0.49,0.01,0.74,0.01c0.75,0,1.5-0.02,2.24-0.06
			c41.05-0.8,80.1-14.68,116.08-41.28c30.11-22.26,57.25-52.85,80.67-90.92c19.9-32.35,36.54-69.45,48.11-107.29
			c11.06-36.16,16.9-70.78,16.9-100.1c0-27.93-4.89-56.67-14.13-83.14c-10.42-29.82-26.02-56.53-46.38-79.38
			c-22.77-25.56-50.88-45.54-83.54-59.4c-34.72-14.72-74.43-22.38-118.05-22.75C644.03,62.67,643.41,62.66,642.78,62.66
			L642.78,62.66z"/>
	</g>
	<rect x="677" y="387.17" class="st2" width="121.39" height="44.54"/>
	<rect x="485.75" y="387.17" class="st2" width="121.39" height="44.54"/>
	<g>
		<radialGradient id="SVGID_5_" cx="642.4396" cy="195.2191" r="413.9659" gradientUnits="userSpaceOnUse">
			<stop  offset="0.5838" style="stop-color:#A8AF13"/>
			<stop  offset="0.9025" style="stop-color:#788400"/>
		</radialGradient>
		<path class="st6" d="M821.53,589.49c-5.38,0-10.34-2.88-13.02-7.55c-2.67-4.67-2.64-10.41,0.08-15.05
			c8.16-13.89,16.87-27.39,24.56-39.31c3.3-5.12,6.92-10.72,10.19-15.95c-10.07,1.94-23.56,3.61-41.9,3.61
			c-4.77,0-9.26-2.27-12.09-6.12c-2.83-3.84-3.66-8.8-2.23-13.36c2.04-6.53,7.43-13.41,18.44-27.12
			c17.67-22,47.25-58.83,47.25-88.04c0-50.3-15.66-81.06-50.75-99.48c-1.25-0.25-4.21-0.65-10.3-0.65c-7.4,0-16.24,0.58-24.04,1.1
			c-6.73,0.44-12.54,0.83-16.93,0.83c-3.45,0-5.84-0.23-8.01-0.77c-7.29-1.82-12.03-7.26-16.2-12.06c-3.6-4.13-6.02-6.49-7.22-7.02
			c-4.68,1.74-16.3,10.19-23.39,15.35c-19.63,14.28-32.41,22.96-44.3,22.96c-12.55,0-22.83-9.33-34.74-20.13
			c-9.77-8.86-21.92-19.88-31.32-20.51c-0.95-0.06-1.87-0.1-2.74-0.1c-8.43,0-11.31,2.67-16.55,7.5c-4.1,3.79-9.2,8.5-16.89,11.07
			c-2.93,0.98-6.11,1.47-9.45,1.47c-9.54,0-19.02-3.93-28.2-7.72c-5.34-2.21-12.66-5.24-15.83-5.24l-0.1,0
			c-12.19,0.76-22.63,5.09-31.04,12.86c-16.44,15.2-25.31,43.97-25.64,83.21c0,0.12,0,0.24-0.01,0.36
			c-0.82,25.53,10.26,79.95,57.04,121.97c4.21,3.78,5.94,9.62,4.45,15.08c-1.48,5.47-5.92,9.63-11.46,10.77
			c-4.46,0.91-8.94,1.38-13.33,1.38c-7.42,0-14.1-1.31-20-3.25c6.47,11.05,14.36,23.6,21.82,34.72c2.7,4.02,3.29,9.1,1.58,13.64
			s-5.49,7.97-10.17,9.22c-0.88,0.23-5.62,1.4-12.56,1.4c-13.41,0-46.79-4.87-66.99-49.93c-0.27-0.59-0.49-1.2-0.68-1.83
			c-3.12-10.39-2.36-30.44-0.75-62.22c0.32-6.29,0.69-13.52,0.94-20.23c-3.14,3.22-6.38,6.74-9.41,10.23
			c-2.89,3.34-7.05,5.18-11.34,5.18c-1.31,0-2.63-0.17-3.92-0.52c-5.56-1.51-9.77-6.07-10.82-11.73
			c-0.78-4.17-7.41-41.44-1.55-64.89c2.13-8.52,6.44-17.18,11.01-26.35c8.37-16.81,17.87-35.86,17.36-59.64
			c-0.27-12.46-5.25-17.06-14.3-25.42c-12.03-11.1-28.49-26.3-28.49-63.1c0-31.46,45.34-51.58,85.34-69.32
			c12.79-5.67,26.01-11.54,30.53-15.03c5.03-3.88,14.18-14.87,23.03-25.5c23.76-28.53,50.7-60.87,77.43-63.16
			c2.33-0.2,4.59-0.3,6.71-0.3c14.9,0,23.24,4.94,29.95,8.91c6.42,3.8,11.97,7.09,27.44,7.09c0.76,0,1.55-0.01,2.35-0.03
			c16.24-0.35,29.8-5.28,44.17-10.5c16.18-5.88,34.52-12.54,57.67-12.54c3.18,0,6.44,0.13,9.67,0.38
			c43.94,3.38,75.05,43.27,95.64,69.67c4.07,5.22,7.58,9.72,10.56,13.13c5.95,6.8,13.55,12.72,21.6,18.99
			c14.57,11.34,31.08,24.2,40.23,45.13c9.43,21.55,7.95,53.95,6.98,75.39c-0.11,2.36-0.23,4.96-0.31,7.34
			c2.86,0.26,6.49,0.44,10.68,0.44c4.65,0,7.28-0.23,7.84-0.31c0.72-0.1,1.43-0.15,2.14-0.15c7.22,0,13.56,5.21,14.78,12.54
			c1.54,9.26-1.23,22.19-5.01,38.13c-0.64,2.7-1.42,5.97-1.72,7.55c0.15,1.74,0.57,5.49,0.97,9.14c1.94,17.63,5.97,54.33,5.97,83.89
			c0,28.98-10.29,43.99-18.55,56.06c-4.23,6.18-7.89,11.51-10.13,18.43c-4.04,12.46-7.47,23.49-10.5,33.22
			c-10.62,34.13-16.47,52.93-27.25,65.4C861.85,588.18,842.97,589.49,821.53,589.49z"/>
		<path d="M722.19,32.72c2.75,0,5.59,0.11,8.52,0.33c45.41,3.49,77.72,56.76,96.06,77.72c18.34,20.96,47.16,32.31,59.38,60.26
			c12.23,27.95,2.62,83.84,6.11,88.2c2.41,3.02,15.25,3.95,24.97,3.95c4.35,0,8.07-0.19,9.96-0.46c1.75,10.48-6.99,38.42-6.99,42.79
			s6.99,55.02,6.99,93.44s-20.01,45.39-27.95,69.86c-30.57,94.32-26.2,105.67-77.72,105.67c23.58-40.17,52.4-77.72,46.28-82.09
			c-0.93-0.66-1.99-0.94-3.3-0.94c-7.34,0-22.32,8.8-63.07,8.8c4.37-13.97,66.37-70.74,66.37-119.64s-13.97-89.95-60.26-113.53
			c-3.59-1.2-9.28-1.61-15.79-1.61c-14.13,0-32.14,1.93-40.97,1.93c-1.95,0-3.45-0.09-4.37-0.32c-6.99-1.75-13.97-19.65-27.51-19.65
			s-51.96,38.42-67.24,38.42s-38.86-38.86-65.06-40.61c-1.3-0.09-2.54-0.13-3.73-0.13c-22.75,0-25.74,15.19-38.18,19.34
			c-1.46,0.49-3.04,0.7-4.71,0.7c-12.97,0-31.59-12.96-44.03-12.96c-0.35,0-0.7,0.01-1.04,0.03c-13.97,0.87-69.86,6.99-70.74,110.91
			c-0.87,27.07,10.48,87.33,62,133.61c-3.63,0.74-7.06,1.07-10.32,1.07c-24.45,0-38.72-18.5-45.93-18.5c-0.85,0-1.6,0.26-2.26,0.83
			c-6.99,6.11,37.55,72.48,37.55,72.48s-3.37,0.9-8.7,0.9c-12.89,0-37.25-5.24-53.31-41.07c-5.24-17.47,5.24-101.3-0.87-105.67
			c-0.39-0.28-0.86-0.41-1.41-0.41c-8.13,0-32.65,28.35-32.65,28.35s-6.99-37.55-1.75-58.51c5.24-20.96,29.69-48.9,28.82-89.95
			c-0.87-41.04-42.79-32.31-42.79-88.2c0-31.44,90.82-57.64,110.03-72.48c19.21-14.85,62-82.96,92.57-85.58
			c1.96-0.17,3.76-0.25,5.43-0.25c23.96,0,21.76,15.99,57.39,15.99c0.87,0,1.76-0.01,2.67-0.03
			C659.07,54.94,682.18,32.72,722.19,32.72 M722.19,2.72C722.19,2.72,722.19,2.72,722.19,2.72c-25.8,0-45.45,7.14-62.8,13.45
			c-13.74,4.99-25.6,9.3-39.36,9.6c-0.69,0.01-1.37,0.02-2.03,0.02c-11.37,0-14.36-1.77-19.81-5c-7.4-4.38-18.58-11-37.58-11
			c-2.55,0-5.24,0.12-8,0.36c-16.42,1.41-32.84,10.45-51.68,28.45c-12.88,12.31-25.16,27.05-36,40.06
			c-7.13,8.56-16.89,20.28-20.64,23.2c-3.58,2.61-17.95,8.99-27.47,13.21c-17.63,7.82-37.61,16.68-54.37,27.16
			c-10.58,6.61-18.72,13.16-24.9,20.02c-9.94,11.05-14.99,23.11-14.99,35.85c0,18.85,3.75,34.62,11.46,48.23
			c6.8,12,15.15,19.71,21.86,25.9c8.74,8.06,9.36,9.03,9.48,14.71c0.43,20.08-7.82,36.63-15.79,52.63
			c-4.94,9.92-9.61,19.3-12.14,29.4c-6.5,25.98-0.01,63.93,1.36,71.27c2.11,11.33,10.52,20.45,21.65,23.47
			c2.59,0.7,5.23,1.04,7.84,1.04c1.45,0,2.89-0.11,4.31-0.31c-1.42,30.16-1.44,45.55,1.89,56.65c0.37,1.25,0.83,2.46,1.36,3.65
			c23.79,53.07,64.35,58.8,80.68,58.8c8.36,0,14.28-1.34,16.43-1.91c9.36-2.5,16.94-9.36,20.35-18.43
			c3.41-9.07,2.23-19.23-3.17-27.27c-1.89-2.82-3.78-5.69-5.65-8.57c2.58-0.28,5.16-0.68,7.73-1.21
			c11.09-2.28,19.96-10.61,22.93-21.54c2.96-10.93-0.48-22.6-8.91-30.17c-42.76-38.41-52.76-88.96-52.07-110.33
			c0.01-0.24,0.01-0.48,0.01-0.72c0.29-35,7.49-60,20.82-72.32c7.74-7.15,16.31-8.46,20.42-8.8c2.4,0.62,7.29,2.64,10.63,4.03
			c10.04,4.15,21.42,8.86,33.94,8.86c4.96,0,9.73-0.75,14.2-2.24c10.76-3.59,17.72-10.02,22.33-14.28c1.28-1.18,3.21-2.96,3.84-3.29
			c0,0,0,0,0,0c0.01,0,0.71-0.23,2.52-0.23c0.51,0,1.07,0.02,1.66,0.06c0.28,0.05,2.42,0.55,7.13,3.87
			c4.84,3.41,10.09,8.18,15.17,12.79c13.02,11.81,26.48,24.02,44.82,24.02c17.63,0,34.08-11.97,53.13-25.83
			c3.4-2.48,8.06-5.87,12.17-8.67c4.76,5.35,11.64,12.19,22.18,14.82c3.37,0.84,6.96,1.22,11.64,1.22c4.89,0,10.93-0.4,17.92-0.86
			c7.57-0.5,16.15-1.07,23.05-1.07c2.64,0,4.45,0.09,5.61,0.17c28.3,15.84,40.43,41.51,40.43,84.96c0,23.94-28.59,59.53-43.95,78.65
			c-11.27,14.04-18.08,22.51-21.06,32.04c-2.85,9.11-1.19,19.03,4.46,26.72c5.65,7.69,14.63,12.23,24.17,12.23
			c4.34,0,8.44-0.09,12.32-0.26c-5.91,9.23-12.13,19.13-18.1,29.3c-5.45,9.28-5.51,20.76-0.16,30.09
			c5.34,9.33,15.28,15.09,26.03,15.09c23.3,0,47.56-1.75,65.6-22.62c12.82-14.83,19-34.69,30.22-70.75
			c3.02-9.69,6.44-20.68,10.45-33.05c1.57-4.85,4.37-8.93,8.23-14.58c8.94-13.05,21.17-30.92,21.17-64.54
			c0-30.38-4.09-67.63-6.06-85.53c-0.25-2.31-0.53-4.81-0.72-6.65c0.33-1.48,0.79-3.38,1.15-4.93c4.18-17.61,7.22-32.03,5.22-44.06
			c-2.44-14.64-15.12-25.07-29.56-25.07c-1.34,0-2.7,0.09-4.06,0.28c-0.18,0.02-0.5,0.04-0.96,0.07
			c0.89-22.36,1.06-52.06-8.57-74.06c-10.68-24.41-29.58-39.13-44.76-50.95c-7.47-5.82-14.53-11.31-19.53-17.03
			c-2.7-3.09-6.09-7.44-10.02-12.47C829,65.3,816.15,48.82,799.9,34.43c-21.46-19-43.96-29.53-66.89-31.3
			C729.4,2.86,725.76,2.72,722.19,2.72L722.19,2.72L722.19,2.72z"/>
	</g>
	<path class="st7" d="M532.58,202.72c-8.14-0.37-15.96-1.61-23.71-3.06c-7.74-1.48-15.34-3.31-22.86-5.39
		c-7.52-2.09-14.93-4.45-22.27-7.01c-7.33-2.6-14.61-5.33-21.86-8.15l11.35-11.19c0.36,1.11,0.61,2.01,0.9,3l0.79,2.89
		c0.51,1.93,0.96,3.86,1.4,5.79c0.86,3.87,1.59,7.76,2.16,11.69c0.28,1.97,0.55,3.93,0.77,5.91c0.2,1.98,0.38,3.96,0.5,5.96
		c0.3,3.98,0.33,7.99,0.19,12.02c-0.14,4.02-0.53,8.06-1.25,12.08c-0.74,4.01-1.73,8-3.28,11.84c-1.55,3.82-3.6,7.49-6.25,10.64
		c-2.65,3.13-5.92,5.68-9.52,7.18c5.33-5.78,7.54-12.77,8.37-19.77l0.25-2.65c0.05-0.89,0.06-1.79,0.1-2.67
		c0.07-0.88,0.02-1.78,0.03-2.67l-0.01-1.33l-0.07-1.34c-0.06-0.9-0.06-1.78-0.14-2.68l-0.21-2.68c-0.2-1.79-0.4-3.57-0.66-5.36
		c-0.48-3.57-1.15-7.14-1.88-10.7c-0.36-1.78-0.77-3.55-1.2-5.32c-0.4-1.78-0.84-3.54-1.29-5.31c-0.94-3.53-1.94-7.04-3-10.53
		c-0.53-1.74-1.08-3.48-1.64-5.2l-0.86-2.57l-0.86-2.42l-6.08-17.08l17.43,5.89c7.37,2.49,14.7,5.08,21.99,7.8
		c7.27,2.75,14.47,5.71,21.57,8.94c7.1,3.23,14.1,6.72,20.98,10.56C519.31,193.7,526.1,197.77,532.58,202.72z"/>
	<path class="st7" d="M783.71,226.23c2.43-3.9,5.3-7.38,8.27-10.75c2.99-3.35,6.13-6.55,9.42-9.61
		c6.57-6.12,13.66-11.73,21.12-16.97l14.7-10.32l3.26,16.13l1.22,6.02l1.31,6.16c0.91,4.11,1.89,8.22,2.92,12.32
		c1.03,4.09,2.09,8.19,3.3,12.24c1.13,4.07,2.46,8.09,3.75,12.13c2.74,8.02,5.82,15.94,9.76,23.6c4,7.65,8.77,15.02,16,21.7
		c-5.13-1.6-9.87-4.15-14.15-7.09c-4.28-2.95-8.18-6.31-11.61-9.91c-0.89-0.89-1.67-1.82-2.51-2.74c-0.84-0.92-1.66-1.84-2.41-2.8
		c-1.57-1.89-3-3.83-4.45-5.77c-2.74-3.94-5.3-7.95-7.55-12.06c-2.29-4.09-4.24-8.29-6.12-12.49c-1.8-4.22-3.43-8.48-4.88-12.78
		c-1.45-4.29-2.71-8.63-3.8-12.99c-0.57-2.18-1.04-4.37-1.51-6.57c-0.24-1.1-0.44-2.21-0.64-3.32c-0.21-1.14-0.36-2.19-0.53-3.46
		l17.95,5.81c-7.81,4.9-15.99,9.43-24.69,13.45c-4.35,2.01-8.84,3.88-13.48,5.6C793.69,223.47,788.92,225.06,783.71,226.23z"/>
	<path class="st7" d="M639.1,102.66c6.89-4.04,13.88-7.63,20.85-11.17c6.98-3.52,13.99-6.87,20.92-10.26
		c3.5-1.62,6.92-3.35,10.38-4.99c1.71-0.85,3.43-1.66,5.14-2.49l5.08-2.51c6.71-3.36,13.35-6.74,19.32-10.33l18.28-10.98
		l-1.78,19.36l-0.08,0.88l-0.08,1.02L737,73.31c-0.07,1.42-0.09,2.85-0.11,4.28c0,2.86,0.07,5.72,0.27,8.54
		c0.41,5.65,1.25,11.2,2.93,16.38c0.22,0.64,0.4,1.31,0.66,1.93c0.26,0.62,0.49,1.26,0.73,1.9l0.86,1.83
		c0.28,0.62,0.66,1.17,0.97,1.78c0.3,0.62,0.69,1.17,1.06,1.74l0.56,0.87c0.2,0.28,0.42,0.54,0.64,0.81
		c0.8,1.14,1.77,2.16,2.77,3.21c0.54,0.47,1.07,0.98,1.62,1.49c0.55,0.5,1.19,0.91,1.8,1.39c0.59,0.51,1.26,0.91,1.94,1.33
		c0.69,0.41,1.35,0.89,2.1,1.25l2.25,1.17c0.78,0.35,1.59,0.68,2.41,1.03l1.24,0.54l1.29,0.44c0.86,0.3,1.74,0.62,2.64,0.96
		c-0.93,0.19-1.87,0.37-2.82,0.53c-0.48,0.09-0.96,0.15-1.45,0.23l-1.46,0.11c-0.98,0.05-1.97,0.11-2.98,0.14l-3.01-0.16
		c-1.03-0.02-2.02-0.24-3.03-0.4c-1.02-0.17-2.05-0.33-3.04-0.63c-0.99-0.29-2.02-0.54-2.99-0.9c-0.96-0.37-1.95-0.74-2.92-1.15
		c-1.85-0.91-3.74-1.87-5.42-3.04c-0.42-0.29-0.86-0.57-1.28-0.87l-1.19-0.94c-0.79-0.64-1.61-1.27-2.31-1.96
		c-2.94-2.74-5.39-5.8-7.34-9c-3.93-6.42-6.2-13.26-7.39-20.06c-0.6-3.41-0.96-6.81-1.07-10.23c-0.07-1.71-0.06-3.41,0-5.13
		c0.03-0.86,0.07-1.72,0.13-2.59l0.11-1.32l0.16-1.46l16.49,8.38c-7.3,4.26-14.77,7.59-22.36,10.59
		c-7.58,3.01-15.33,5.43-23.12,7.67c-7.82,2.18-15.74,4.02-23.77,5.53c-2.01,0.37-4.01,0.75-6.04,1.05
		c-2.02,0.33-4.05,0.64-6.09,0.9C647.38,101.99,643.28,102.46,639.1,102.66z"/>
	<path class="st7" d="M709.6,230.76c-3.43,0.09-6.98-0.81-10.15-2.19c-1.58-0.7-3.12-1.49-4.53-2.4c-0.74-0.44-1.42-0.9-2.09-1.39
		c-0.67-0.48-1.35-0.98-1.96-1.5c-2.57-2.03-4.79-4.29-6.8-6.62c-1.02-1.17-1.95-2.36-2.88-3.56c-0.87-1.22-1.74-2.44-2.54-3.68
		c-3.26-4.95-5.78-10.11-7.86-15.35c-1.04-2.62-1.95-5.26-2.75-7.93c-0.41-1.33-0.77-2.67-1.11-4.03c-0.17-0.68-0.35-1.36-0.49-2.04
		c-0.15-0.71-0.29-1.34-0.45-2.16l18.42,4.11c-1.49,1.57-2.94,2.96-4.42,4.41c-1.49,1.42-2.99,2.84-4.52,4.24
		c-3.06,2.78-6.18,5.52-9.4,8.19c-6.45,5.33-13.2,10.44-20.45,15.15c-7.2,4.74-14.85,9.13-23.13,12.81
		c-4.14,1.83-8.43,3.49-12.91,4.79c-4.47,1.29-9.18,2.26-13.88,2.32c3.98-1.98,7.45-4.24,10.78-6.61l2.46-1.81
		c0.82-0.59,1.59-1.25,2.39-1.86c1.6-1.22,3.14-2.5,4.68-3.78c3.08-2.54,6.08-5.15,9.03-7.81c2.99-2.61,5.88-5.31,8.81-7.98
		c5.8-5.38,11.55-10.8,17.29-16.24l17.03-16.29l15.34-14.67l3.08,18.79l0.28,1.72l0.32,1.82l0.7,3.68c0.49,2.46,1.01,4.92,1.55,7.37
		c1.11,4.9,2.33,9.78,3.77,14.57c0.35,1.21,0.75,2.39,1.16,3.58c0.42,1.17,0.79,2.38,1.27,3.53c0.45,1.17,0.94,2.32,1.42,3.48
		c0.54,1.12,1.07,2.28,1.66,3.39c0.28,0.58,0.6,1.11,0.93,1.65c0.32,0.55,0.63,1.12,1,1.63c0.7,1.08,1.48,2.11,2.33,3.14
		C704.69,227.29,706.8,229.18,709.6,230.76z"/>
</g>
<g>
	<path d="M478.35,334.39c-0.98,0-1.98-0.04-2.98-0.13c-10.12-0.86-18.75-5.86-24.49-13.99c-0.96,0-1.92-0.04-2.87-0.12
		c-8.81-0.75-16.85-4.96-22.64-11.85c-6.54-7.78-9.11-17.44-7.43-27.25c-4.43-4.45-7.45-9.82-8.85-15.74
		c-11.44,6.14-23.24,13.2-35.2,21.09c-6.94,4.58-14.99,7-23.27,7c-14.37,0-27.65-7.2-35.52-19.25c-11.5-17.62-8.24-40.74,6.7-54.58
		c-0.25-1.07-0.46-2.15-0.61-3.25c-0.77-0.42-1.51-0.86-2.24-1.33c-7.28-4.7-12.31-12.05-14.17-20.67
		c-2.09-9.67,0.04-19.14,5.86-26.83c-2.77-9.25-1.46-18.87,3.87-27.2c5.28-8.25,13.51-13.5,23.04-14.84
		c4.57-8.52,12.28-14.39,21.94-16.5c2.38-0.52,4.8-0.78,7.18-0.78c6.21,0,12.26,1.79,17.51,5.19c0.71,0.46,1.41,0.95,2.08,1.46
		c3.08-0.92,6.23-1.38,9.41-1.38c6.21,0,12.34,1.84,17.72,5.32c8.29,5.36,13.46,13.58,14.76,23.16c0.76,0.41,1.5,0.86,2.23,1.32
		c6.06,3.92,10.57,9.67,12.98,16.47c22.75-6.36,44.83-9.57,65.86-9.57c0.33,0,0.66,0,1,0c2.81-6.13,7.36-11.23,13.2-14.69
		c0.83-0.49,1.69-0.95,2.56-1.38c1.65-9.82,7.26-18.08,16-23.26c5.23-3.1,11.1-4.74,16.98-4.74c3.76,0,7.46,0.63,11.05,1.89
		c0.78-0.55,1.58-1.07,2.4-1.56c5.09-3.02,10.88-4.61,16.74-4.61c2.86,0,5.74,0.37,8.58,1.11c9.83,2.55,17.51,8.93,21.81,17.91
		c9.78,1.68,18.01,7.33,23.15,16.08c1.48,2.52,2.61,5.13,3.39,7.8c23.29-11.52,50.93-21.09,85.05-22.75
		c1.84-3.79,4.4-7.26,7.61-10.24c6.47-6.01,14.47-9.19,23.12-9.19c1.53,0,3.07,0.1,4.6,0.3c0.73-0.82,1.5-1.6,2.3-2.34
		c6.36-5.91,14.35-9.03,23.11-9.03c0.48,0,0.95,0.01,1.43,0.03c10.49,0.42,19.63,5.22,25.87,13.42c0.62-0.03,1.24-0.05,1.85-0.05
		c9.6,0,18.51,3.94,25.08,11.09c7.11,7.73,10.17,17.61,8.8,27.83c5.08,4.57,8.57,10.3,10.22,16.71c2,0.42,3.99,0.87,5.95,1.35
		c9.65,2.36,20.98,4.88,33.31,4.88c9.06,0,17.9-1.33,27.03-4.07c3.96-1.19,8.06-1.79,12.17-1.79c18.61,0,35.33,12.51,40.65,30.42
		c3.81,12.83,1.32,26.16-5.83,36.47c2.12,3.06,3.74,6.52,4.8,10.33c2.73,9.8,1.08,19.66-4.51,27.89c3.48,9.32,2.76,19.3-2.21,28.17
		c-4.4,7.86-11.51,13.5-20.02,15.9c-0.92,0.26-1.86,0.48-2.81,0.67c-4.11,9.07-11.66,15.61-21.44,18.36
		c-3.05,0.86-6.16,1.29-9.24,1.29c-6.6,0-13.01-2.03-18.58-5.8c-0.9,0.34-1.82,0.64-2.74,0.9c-2.93,0.82-5.94,1.24-8.94,1.24
		c-5.66,0-11.34-1.52-16.43-4.4c-8.85-5-14.63-13.15-16.47-22.94c-9.03-4.14-15.53-11.71-18.26-21.51c-1.92-6.9-1.67-13.83,0.6-20.2
		c-5.9-5.65-11.87-10.93-17.84-15.78c-21.11,0.81-41.79,8.15-65.4,16.69c-0.93,6.46-3.75,12.41-8.26,17.37
		c2,9.57-0.16,19.15-6.26,27.06c-6.07,7.87-14.74,12.39-24.54,12.86c-5.34,8.19-13.62,13.43-23.53,14.69
		c-1.45,0.18-2.91,0.28-4.34,0.28c-7.33,0-14.27-2.38-20.05-6.89c-0.7-0.55-1.39-1.13-2.05-1.73c-2.26,0.47-4.53,0.7-6.8,0.7
		c-7.29,0-14.27-2.43-20.17-7.04c-7.88-6.14-12.34-14.89-12.77-24.66c-0.76-0.5-1.5-1.03-2.22-1.59
		c-4.53-3.53-7.98-8.12-10.13-13.36c-4.97-1.21-9.91-2.63-14.77-4.25c-1.42-0.47-2.83-0.96-4.21-1.47
		c-18.8,9.18-36.57,15.21-55.11,18.72c-0.89,0.79-1.83,1.54-2.81,2.24c0.02,9.96-4.14,19.05-11.88,25.62
		c-6.16,5.23-13.59,7.99-21.48,7.99c-0.94,0-1.9-0.04-2.84-0.12c-0.95-0.08-1.9-0.2-2.85-0.36
		C495.54,330.88,487.27,334.39,478.35,334.39z"/>
	<path d="M791.86,106.44c0.28,0,0.56,0.01,0.84,0.02c7.29,0.29,13.23,4.21,16.73,11.04c0.71,1.38,1.32,2.87,1.83,4.48
		c1.55-0.65,3.08-1.15,4.58-1.51c1.77-0.42,3.49-0.62,5.17-0.62c5.4,0,10.27,2.14,14.04,6.24c4.95,5.39,6.4,12.38,4.06,19.7
		c-0.47,1.48-1.09,2.96-1.86,4.47c1.56,0.64,2.99,1.37,4.3,2.19c6.5,4.04,9.92,10.3,9.64,17.63c-0.04,1.08-0.18,2.12-0.38,3.14
		c5.46,0.76,11.02,1.79,16.69,3.18c11.41,2.79,23.43,5.31,36.88,5.31c9.62,0,19.97-1.29,31.34-4.7c2.62-0.79,5.26-1.16,7.86-1.16
		c11.81,0,22.72,7.73,26.27,19.69c4.03,13.56-2.82,27.78-15.47,33.21c0.13,0.03,0.26,0.05,0.39,0.08
		c7.13,1.77,12.1,6.48,13.98,13.26c1.89,6.78,0.08,13.4-5.1,18.63c-1.05,1.06-2.22,2.06-3.53,3c1.05,1.23,1.96,2.49,2.72,3.76
		c3.8,6.32,4,13.17,0.56,19.31c-2.47,4.42-6.27,7.45-10.99,8.78c-1.82,0.51-3.75,0.77-5.79,0.77c-1.43,0-2.92-0.13-4.47-0.38
		c-0.03,0.05-0.06,0.1-0.1,0.15c-0.13,1.56-0.36,3.04-0.7,4.43c-1.76,7.17-6.44,12.16-13.19,14.06c-1.74,0.49-3.47,0.73-5.17,0.73
		c-4.88,0-9.5-2-13.36-5.86c-1.05-1.05-2.04-2.23-2.99-3.55c-2.91,2.51-5.91,4.19-9.03,5.07c-1.62,0.46-3.26,0.68-4.88,0.68
		c-3.1,0-6.16-0.82-9.05-2.46c-6.11-3.45-9.48-9.42-9.5-16.8c0-1.49,0.12-3.03,0.39-4.64c-1.61-0.13-3.13-0.37-4.57-0.72
		c-7.13-1.77-12.1-6.48-13.98-13.26c-1.88-6.75-0.09-13.34,5.04-18.56c-10.82-11.12-21.41-20.54-31.57-28.46
		c-0.45-0.01-0.89-0.01-1.33-0.01c-25.49,0-49.31,8.61-75.84,18.2c-2.93,1.06-5.89,2.13-8.88,3.2c0.3,1,0.53,2.04,0.67,3.12
		c0.86,6.84-1.84,12.98-7.6,17.3c-1.16,0.87-2.44,1.67-3.85,2.4c0.84,1.35,1.54,2.69,2.1,4.03c2.77,6.66,1.99,13.33-2.22,18.78
		c-3.57,4.62-8.59,7.06-14.37,7.06c-1.04,0-2.1-0.08-3.18-0.24c-1.44-0.21-2.9-0.56-4.41-1.04c-0.35,1.55-0.8,3-1.35,4.35
		c-2.73,6.68-7.97,10.84-14.78,11.7c-0.83,0.1-1.64,0.16-2.45,0.16c-3.97,0-7.68-1.27-10.83-3.72c-2.51-1.95-4.61-4.59-6.32-7.95
		c-1.34,0.84-2.67,1.55-4.01,2.11c-2.6,1.09-5.2,1.64-7.74,1.64c-3.91,0-7.66-1.3-10.95-3.87c-5.42-4.23-7.83-10.49-6.79-17.63
		c0.21-1.44,0.55-2.92,1.04-4.43c-3.66-0.84-6.72-2.23-9.23-4.18c-3.79-2.95-6.12-7.12-6.73-12.04c-0.09-0.73-0.13-1.45-0.15-2.16
		c-7.32-1.35-14.81-3.24-22.5-5.81c-3.57-1.19-6.81-2.41-9.76-3.63c-18.18,9.42-38.31,17.36-61.77,21.2c-1.89,2.49-4.45,4.53-7.64,6
		c-1.35,0.62-2.8,1.14-4.35,1.57c0.56,1.52,0.97,3.02,1.24,4.48c1.36,7.25-0.84,13.74-6.19,18.28c-3.44,2.92-7.48,4.43-11.77,4.43
		c-0.52,0-1.05-0.02-1.57-0.07c-3.23-0.27-6.48-1.36-9.81-3.28c-0.68,1.47-1.44,2.82-2.27,4.05c-3.8,5.59-9.26,8.6-15.53,8.6
		c-0.56,0-1.13-0.02-1.71-0.07c-6.98-0.59-12.51-4.61-15.57-11.31c-0.62-1.35-1.14-2.81-1.56-4.37c-2.98,1.1-5.82,1.65-8.53,1.65
		c-0.57,0-1.13-0.02-1.69-0.07c-4.88-0.41-9.17-2.68-12.43-6.55c-4.52-5.38-5.6-12.15-3.05-19.07c0.52-1.4,1.17-2.8,1.97-4.21
		c-1.47-0.68-2.81-1.44-4.03-2.28c-6.06-4.16-9.07-10.31-8.49-17.33c0.09-1.05,0.26-2.06,0.5-3.04c-2.97-2.32-5.86-4.76-8.7-7.32
		c-15.86,7.72-32.34,17.2-49.43,28.47c-4.64,3.06-9.86,4.52-15.02,4.52c-8.93,0-17.69-4.38-22.96-12.45
		c-8.31-12.73-4.77-29.82,7.89-38.17c1.8-1.19,3.59-2.33,5.38-3.48c-3.59-3.62-5.36-8.53-5.04-14.17c0.08-1.43,0.29-2.91,0.63-4.44
		c-3.67-0.5-6.8-1.6-9.43-3.3c-3.98-2.57-6.62-6.46-7.66-11.24c-1.43-6.65,0.69-12.92,5.98-17.66c1.07-0.96,2.26-1.85,3.58-2.69
		c-0.94-1.25-1.74-2.51-2.41-3.78c-3.3-6.3-3.1-12.92,0.56-18.64c3.44-5.37,8.86-8.27,15.36-8.27c0.42,0,0.85,0.01,1.29,0.04
		c1.43,0.08,2.9,0.29,4.42,0.64c0.21-1.55,0.53-3.01,0.95-4.39c2.1-6.8,6.9-11.34,13.51-12.79c1.35-0.29,2.68-0.44,3.99-0.44
		c3.33,0,6.51,0.94,9.36,2.78c2.63,1.7,4.92,4.11,6.9,7.26c1.24-0.95,2.49-1.75,3.76-2.42c2.97-1.57,6-2.35,8.98-2.35
		c3.32,0,6.57,0.97,9.57,2.91c5.69,3.68,8.6,9.62,8.2,16.73c-0.08,1.43-0.29,2.91-0.63,4.44c3.67,0.5,6.8,1.6,9.43,3.3
		c3.98,2.57,6.62,6.46,7.66,11.24c1.01,4.67,0.25,9.16-2.12,13.06c0.06,0.07,0.12,0.13,0.19,0.2
		c28.46-10.11,55.58-15.19,81.27-15.19c4.34,0,8.63,0.14,12.89,0.43c-0.11-1.93,0.07-3.9,0.59-5.9c1.26-4.91,4.15-8.82,8.37-11.32
		c2.79-1.65,6.07-2.67,9.89-3.04c-0.29-1.6-0.45-3.13-0.48-4.62c-0.13-7.37,3.11-13.41,9.15-16.98c2.97-1.76,6.13-2.64,9.33-2.64
		c3.3,0,6.65,0.94,9.88,2.81c1.28,0.74,2.54,1.63,3.79,2.66c2.17-3.18,4.64-5.57,7.43-7.23c2.82-1.67,5.9-2.52,9.09-2.52
		c1.59,0,3.2,0.21,4.82,0.63c6.78,1.76,11.57,6.65,13.47,13.77c0.38,1.44,0.65,2.96,0.81,4.58c1.59-0.3,3.12-0.45,4.6-0.48
		c0.15,0,0.29,0,0.44,0c7.14,0,12.97,3.26,16.46,9.2c3.56,6.06,3.5,12.92-0.17,19.31c-0.74,1.29-1.62,2.56-2.65,3.81
		c1.27,0.88,2.4,1.81,3.43,2.78c29.95-17.79,64.54-33.7,111.25-33.7c0.37,0,0.75,0,1.13,0c0.03-5.38,2.15-10.23,6.21-14
		c3.69-3.42,8.13-5.18,12.91-5.18c2.17,0,4.42,0.36,6.69,1.09c1.47,0.47,2.95,1.09,4.44,1.87c1.51-3.72,3.5-6.7,5.98-9.01
		C782.5,108.16,786.94,106.44,791.86,106.44 M694.55,206c12.75-3.34,25.63-7.99,39.18-12.9c1.15-0.42,2.3-0.83,3.46-1.25
		c-18.26,0.54-33.95,4.46-48.58,10.44c1.68,0.62,3.27,1.5,4.74,2.64C693.77,205.27,694.16,205.64,694.55,206 M524.86,221.28
		c0.12-0.02,0.24-0.03,0.36-0.05c-0.16-0.02-0.32-0.03-0.47-0.05C524.79,221.22,524.83,221.25,524.86,221.28 M791.86,76.44
		c-11.43,0-22.35,3.91-31.07,11.07c-11.95,0.26-23.37,4.92-32.27,13.19c-2.26,2.1-4.29,4.36-6.09,6.77
		c-17.89,1.5-35.17,5.13-52.39,10.99c-6,2.04-11.75,4.28-17.19,6.61c-5.95-8.12-14.14-14.05-23.53-17.21
		c-6.53-9.56-16.24-16.49-27.82-19.5c-4.07-1.05-8.22-1.59-12.35-1.59c-7.44,0-14.78,1.75-21.44,5.1c-2.9-0.54-5.83-0.82-8.75-0.82
		c-8.57,0-17.09,2.36-24.64,6.84c-10.28,6.09-17.67,15.43-21.31,26.4c-4.4,3.03-8.22,6.73-11.35,10.96
		c-16.45,0.55-33.41,2.9-50.75,7c-2.66-3.61-5.84-6.83-9.47-9.58c-3.21-10.82-10.11-20.18-19.91-26.52
		c-7.81-5.05-16.75-7.72-25.86-7.72c-2.19,0-4.36,0.15-6.51,0.44c-6.91-3.75-14.61-5.71-22.49-5.71c-3.45,0-6.95,0.38-10.38,1.13
		c-11.41,2.49-21.15,8.83-27.94,17.83c-10.84,3.21-20.11,10.15-26.47,20.08c-6.3,9.84-8.7,21.23-7.15,32.42
		c-5.36,9.93-7.08,21.44-4.61,32.86c1.87,8.68,5.98,16.48,11.86,22.74c-11.52,18.46-12.08,42.76,0.56,62.13
		c10.65,16.31,28.62,26.05,48.08,26.05c11.23,0,22.13-3.28,31.53-9.47c6.86-4.52,13.65-8.76,20.34-12.69
		c-0.13,11.47,3.78,22.63,11.4,31.71c7.65,9.11,18.05,14.97,29.55,16.75c8.03,8.31,18.75,13.49,30.66,14.51
		c1.41,0.12,2.84,0.18,4.24,0.18c10.47,0,20.29-3.28,28.46-9.31c0.24,0,0.48,0.01,0.73,0.01c11.49,0,22.27-4,31.18-11.56
		c8.22-6.98,13.69-16.16,15.97-26.28c15.01-3.47,29.9-8.62,45.02-15.56c2.6,0.85,5.22,1.64,7.86,2.38
		c2.33,3.74,5.19,7.16,8.52,10.16c2.24,11.17,8.33,21.21,17.62,28.45c8.56,6.68,18.73,10.21,29.39,10.21c0.83,0,1.66-0.02,2.49-0.06
		c7.83,5.24,16.88,7.99,26.4,7.99c2.06,0,4.16-0.13,6.23-0.4c11.7-1.49,22.06-7.02,29.67-15.51c11.19-2.28,21.22-8.48,28.38-17.76
		c7.2-9.33,10.61-20.58,10-31.97c2.12-3.19,3.84-6.61,5.13-10.18c17.26-6.16,32.91-11.26,47.96-12.76c2.1,1.79,4.21,3.64,6.31,5.54
		c-0.78,6.27-0.32,12.74,1.44,19.09c3.21,11.53,10.3,21.12,19.94,27.48c3.86,10.92,11.45,20.12,21.87,26.01
		c7.34,4.15,15.57,6.34,23.81,6.34c3.26,0,6.52-0.34,9.74-1.01c6.4,3.05,13.38,4.66,20.53,4.66c4.45,0,8.92-0.62,13.3-1.85
		c11.51-3.24,21.06-10.36,27.4-20.03c10.97-3.91,20.09-11.63,25.9-22c5.84-10.44,7.57-22.24,5.22-33.57
		c4.96-10.44,6.07-22.32,2.86-33.84c-0.58-2.1-1.3-4.13-2.13-6.09c5.83-12.41,7.25-26.91,3.08-40.95
		c-3.6-12.11-10.85-22.45-20.99-29.93c-9.81-7.23-21.9-11.22-34.04-11.22c-5.57,0-11.12,0.82-16.48,2.43
		c-7.71,2.31-15.14,3.44-22.71,3.44c-9.11,0-17.91-1.61-28.13-4.06c-1.65-3.37-3.68-6.55-6.08-9.49
		c-0.24-11.9-4.72-23.32-13.04-32.37c-8.31-9.04-19.24-14.51-31.17-15.69c-8.57-8.24-19.81-13.12-32.09-13.61
		C793.22,76.45,792.53,76.44,791.86,76.44L791.86,76.44z"/>
</g>
<path class="st8" d="M350.62,278.4c-8.93,0-17.69-4.38-22.96-12.45c-8.31-12.73-4.77-29.82,7.89-38.17
	c88.19-58.14,166.42-75.94,232.5-52.92c18.87,6.57,28.22,13.6,35.73,19.24c6.09,4.57,10.11,7.6,21.3,11.33
	c38.78,12.95,71.16,1.24,108.65-12.33c38.22-13.83,81.54-29.51,133.78-16.71c19.58,4.79,40.97,8.79,68.21,0.61
	c14.52-4.36,29.79,3.94,34.12,18.53c4.33,14.59-3.92,29.94-18.44,34.3c-43.76,13.13-79.64,4.35-96.88,0.13
	c-36.21-8.87-66.8,2.2-102.22,15.02c-41.12,14.88-87.73,31.75-144.53,12.77c-19.62-6.55-29.17-13.73-36.84-19.49
	c-5.82-4.38-10.03-7.54-20.85-11.31c-49.17-17.13-111.23-1.34-184.45,46.93C360.99,276.94,355.78,278.4,350.62,278.4z"/>
<path class="st9" d="M919.01,308.81c-8.36,0-16.61-3.82-22-11.07c-55.74-75.03-110.81-103.62-141.02-105.3
	c-0.26-0.02-0.53-0.03-0.79-0.06c-50.51-4.29-81.61,15.45-117.63,38.3c-35,22.2-74.24,47.1-132.14,47.1
	c-5.78,0-11.74-0.25-17.9-0.77c-47.63-4.04-69.29-26.94-96.71-55.93c-9.47-10.01-20.21-21.36-33.75-33.94
	c-11.13-10.33-11.81-27.77-1.54-38.95c10.28-11.18,27.63-11.87,38.76-1.54c14.85,13.78,26.24,25.82,36.28,36.45
	c25.26,26.71,34.71,36.7,61.57,38.98c49.6,4.21,80.43-15.36,116.14-38.01c38.69-24.54,82.53-52.35,151.14-46.65
	c56.95,3.38,124.77,50.95,181.53,127.34c9.06,12.2,6.57,29.47-5.57,38.58C930.47,307.03,924.71,308.81,919.01,308.81z"/>
<g>
	<path class="st10" d="M788.75,223.94c-0.22,0-0.44,0-0.66-0.01c-6.07-0.24-13.29-3.71-15.39-17.94c-4.81,3.02-9.21,4.55-13.14,4.55
		c-4.08,0-7.59-1.57-10.43-4.67c-4.12-4.48-6.77-12.06,1.77-23.61c-13.96-3.22-16.84-10.71-16.6-16.81
		c0.24-6.1,3.7-13.34,17.87-15.45c-7.61-12.19-4.37-19.54,0.09-23.68c2.77-2.57,5.99-3.87,9.58-3.87c4.24,0,8.9,1.89,13.92,5.62
		c3.12-13.61,10.27-16.68,16.09-16.68c0.22,0,0.44,0,0.66,0.01c6.07,0.24,13.29,3.71,15.39,17.94c4.81-3.02,9.21-4.55,13.14-4.55
		c4.08,0,7.59,1.57,10.43,4.67c4.12,4.48,6.77,12.06-1.77,23.61c13.96,3.22,16.84,10.71,16.6,16.81c-0.24,6.1-3.7,13.34-17.87,15.45
		c7.61,12.19,4.37,19.54-0.09,23.68c-2.77,2.57-5.99,3.87-9.58,3.87h0c-4.24,0-8.9-1.89-13.92-5.62
		C801.72,220.87,794.57,223.94,788.75,223.94z"/>
	<path class="st10" d="M791.85,114.89c0.17,0,0.34,0,0.52,0.01c9.19,0.36,12.18,9.93,12.58,20.85c5.4-4.31,11.07-7.46,16.08-7.46
		c2.89,0,5.57,1.05,7.86,3.53c6.24,6.79,1.63,15.68-5.77,23.68c10.8,1.25,20.05,5,19.69,14.24c-0.36,9.24-9.88,12.25-20.74,12.64
		c6.76,8.56,10.66,17.79,3.9,24.06c-2.21,2.05-4.65,2.94-7.2,2.94c-5.25,0-11-3.74-16.36-8.74c-1.22,10.65-4.84,19.8-13.65,19.8
		c-0.17,0-0.34,0-0.52-0.01c-9.19-0.36-12.18-9.93-12.58-20.85c-5.4,4.31-11.07,7.46-16.08,7.46c-2.89,0-5.57-1.05-7.86-3.53
		c-6.24-6.79-1.63-15.68,5.77-23.68c-10.8-1.25-20.05-5-19.69-14.24c0.36-9.24,9.88-12.25,20.74-12.64
		c-6.76-8.56-10.66-17.79-3.9-24.06c2.21-2.05,4.65-2.94,7.2-2.94c5.25,0,11,3.74,16.36,8.74
		C779.42,124.04,783.04,114.89,791.85,114.89 M791.85,107.89C791.85,107.89,791.85,107.89,791.85,107.89
		c-5.27,0-13.64,2.16-18.11,14.63c-4.14-2.39-8.08-3.57-11.9-3.57c-4.44,0-8.58,1.66-11.97,4.81c-4.05,3.76-8.91,11.36-3.03,23.78
		c-13.22,3.58-15.82,12.23-16.03,17.77c-0.22,5.54,1.7,14.37,14.6,18.98c-6.83,11.92-2.58,19.88,1.16,23.95
		c3.49,3.79,7.99,5.8,13.01,5.8c3.38,0,6.92-0.88,10.68-2.68c3.58,13.24,12.19,15.84,17.7,16.06c0.27,0.01,0.53,0.02,0.79,0.02
		c5.27,0,13.64-2.16,18.1-14.63c4.14,2.4,8.08,3.57,11.9,3.57c4.44,0,8.58-1.66,11.97-4.81c4.05-3.76,8.91-11.36,3.03-23.78
		c13.22-3.58,15.82-12.23,16.03-17.77c0.22-5.54-1.7-14.37-14.6-18.98c6.83-11.92,2.58-19.88-1.16-23.95
		c-3.49-3.79-7.99-5.8-13.01-5.8c-3.38,0-6.92,0.88-10.68,2.68c-3.58-13.24-12.19-15.84-17.7-16.06
		C792.38,107.89,792.11,107.89,791.85,107.89L791.85,107.89L791.85,107.89z"/>
</g>
<path class="st11" d="M737.8,165.59c-0.86,21.85,52.07,13,52.07,13s52.07,13,52.93-8.85s-52.07-13-52.07-13
	S738.66,143.74,737.8,165.59z"/>
<path class="st11" d="M788.23,220.43c21.74,0.86,12.94-52.34,12.94-52.34s12.94-52.34-8.8-53.2c-21.74-0.86-12.94,52.34-12.94,52.34
	S766.49,219.57,788.23,220.43z"/>
<path class="st12" d="M754.64,128.88c-15.98,14.84,27.67,46.2,27.67,46.2s27.67,46.2,43.65,31.36s-27.67-46.2-27.67-46.2
	S770.62,114.04,754.64,128.88z"/>
<path class="st12" d="M751.72,203.51c14.77,16.06,45.97-27.81,45.97-27.81s45.97-27.81,31.2-43.87
	c-14.77-16.06-45.97,27.81-45.97,27.81S736.95,187.45,751.72,203.51z"/>
<ellipse class="st10" cx="790.3" cy="167.66" rx="13.6" ry="13.67"/>
<g>
	<path class="st10" d="M691.98,311.35c-5.02,0-11.41-2.64-15.24-14.21c-4.78,4.18-9.35,6.29-13.64,6.29c-2.98,0-5.76-0.99-8.26-2.94
		c-4.54-3.54-8.2-10.16-2.2-22.14c-13.4-0.91-17.14-7.55-17.85-13.18c-0.72-5.73,1.35-13.01,14.04-17.22
		c-8.79-10.11-6.88-17.44-3.36-22c2.7-3.5,6.46-5.35,10.87-5.35c3.31,0,7.05,1.05,11.17,3.13c0.91-13.38,7.42-17.2,13.12-17.93
		c0.64-0.08,1.29-0.12,1.91-0.12c5.02,0,11.41,2.64,15.24,14.21c4.78-4.18,9.35-6.29,13.64-6.29c2.98,0,5.76,0.99,8.26,2.94
		c4.54,3.54,8.2,10.16,2.2,22.14c13.4,0.91,17.14,7.55,17.85,13.18c0.72,5.73-1.35,13.01-14.04,17.22c8.79,10.11,6.88,17.44,3.36,22
		c-2.7,3.5-6.46,5.35-10.87,5.35c0,0,0,0,0,0c-3.31,0-7.05-1.05-11.17-3.13c-0.91,13.38-7.42,17.2-13.12,17.93
		C693.24,311.31,692.6,311.35,691.98,311.35z"/>
	<path class="st10" d="M682.54,209.16c7.6,0,11.47,8,13.4,17.47c4.88-5.43,10.3-9.56,15.49-9.56c2.09,0,4.15,0.67,6.11,2.2
		c6.83,5.33,3.92,14.28-1.72,22.85c0.96-0.05,1.9-0.07,2.83-0.07c9.02,0,16.63,2.41,17.61,10.22c1.08,8.62-7.28,12.89-17.29,14.94
		c7.58,6.89,12.61,14.84,7.31,21.71c-2.18,2.83-4.97,3.99-8.1,3.99c-4.47,0-9.62-2.39-14.63-5.72c0.51,10.26-1.52,19.46-10.1,20.55
		c-0.5,0.06-0.99,0.1-1.47,0.1c-7.6,0-11.47-8-13.4-17.47c-4.88,5.43-10.3,9.56-15.49,9.56c-2.09,0-4.15-0.67-6.11-2.2
		c-6.83-5.33-3.92-14.28,1.72-22.85c-0.96,0.05-1.9,0.07-2.83,0.07c-9.02,0-16.63-2.41-17.61-10.22
		c-1.08-8.62,7.28-12.89,17.29-14.94c-7.58-6.89-12.61-14.84-7.31-21.71c2.18-2.83,4.97-3.99,8.1-3.99c4.47,0,9.62,2.39,14.63,5.72
		c-0.51-10.26,1.52-19.46,10.1-20.55C681.57,209.19,682.06,209.16,682.54,209.16 M682.54,202.16c-0.77,0-1.56,0.05-2.35,0.15
		c-5.21,0.66-13.12,3.8-15.55,16.33c-2.92-1.05-5.68-1.56-8.3-1.56c-5.53,0-10.25,2.32-13.64,6.72c-3.21,4.16-6.6,12,0.55,22.61
		c-11.52,5.48-12.58,13.96-11.93,19.19c0.64,5.13,3.72,13.18,16.29,15.62c-4.28,12.05,0.93,18.8,5.08,22.02
		c3.14,2.44,6.64,3.68,10.41,3.68c4,0,8.01-1.37,12.11-4.16c4.59,9.71,11.32,12.07,16.77,12.07c0.77,0,1.56-0.05,2.35-0.15
		c5.21-0.66,13.12-3.8,15.55-16.33c2.92,1.05,5.68,1.56,8.3,1.56c5.53,0,10.25-2.32,13.64-6.72c3.21-4.16,6.6-12-0.55-22.61
		c11.52-5.48,12.58-13.96,11.93-19.19c-0.64-5.13-3.72-13.18-16.29-15.62c4.28-12.05-0.93-18.8-5.08-22.03
		c-3.14-2.44-6.64-3.68-10.41-3.68c-4,0-8.01,1.37-12.11,4.16C694.72,204.52,687.99,202.16,682.54,202.16L682.54,202.16z"/>
</g>
<path class="st11" d="M681.07,209.26c-20.29,2.58-3.96,50.53-3.96,50.53s-3.96,50.53,16.33,47.96c20.29-2.58,3.96-50.53,3.96-50.53
	S701.36,206.68,681.07,209.26z"/>
<path class="st11" d="M638.26,264.72c2.56,20.39,50.28,3.98,50.28,3.98s50.28,3.98,47.72-16.42c-2.56-20.39-50.28-3.98-50.28-3.98
	S635.7,244.33,638.26,264.72z"/>
<path class="st12" d="M717.53,219.28c-16.16-12.6-38.35,32.92-38.35,32.92s-38.35,32.92-22.19,45.52
	c16.16,12.6,38.35-32.92,38.35-32.92S733.69,231.88,717.53,219.28z"/>
<path class="st12" d="M648.23,228.08c-12.54,16.24,32.75,38.55,32.75,38.55s32.75,38.55,45.29,22.3
	c12.54-16.24-32.75-38.55-32.75-38.55S660.77,211.84,648.23,228.08z"/>
<ellipse class="st10" cx="687.26" cy="258.5" rx="12.78" ry="12.85"/>
<g>
	<path class="st10" d="M478.35,314.78c-0.43,0-0.88-0.02-1.33-0.06c-5.84-0.5-12.63-4.13-14.09-17.78
		c-4.41,2.48-8.43,3.73-11.99,3.73c-4.19,0-7.85-1.73-10.6-4.99c-3.77-4.49-6.02-11.89,2.57-22.58
		c-13.16-3.73-15.59-11.07-15.1-16.93c0.49-5.85,4.09-12.69,17.71-14.15c-6.68-11.99-3.23-18.9,1.24-22.7
		c2.62-2.22,5.59-3.35,8.83-3.35c4.22,0,8.8,1.98,13.66,5.91c3.5-12.4,10.19-15.21,15.53-15.21c0.43,0,0.88,0.02,1.33,0.06
		c5.84,0.5,12.63,4.13,14.09,17.78c4.41-2.48,8.43-3.73,11.99-3.73c4.19,0,7.85,1.73,10.6,4.99c3.77,4.49,6.02,11.89-2.57,22.58
		c13.16,3.73,15.59,11.07,15.1,16.93c-0.49,5.84-4.1,12.69-17.71,14.15c6.68,11.99,3.23,18.9-1.24,22.7
		c-2.62,2.22-5.59,3.35-8.83,3.35c-4.22,0-8.8-1.98-13.66-5.91C490.38,311.96,483.69,314.78,478.35,314.78z"/>
	<path class="st10" d="M484.78,210.16c0.34,0,0.68,0.01,1.03,0.04c8.8,0.75,11.26,10.05,11.17,20.54
		c5.17-3.75,10.52-6.47,15.21-6.47c2.99,0,5.7,1.1,7.92,3.74c5.7,6.78,0.89,15.11-6.55,22.46c10.3,1.67,19.01,5.67,18.27,14.51
		c-0.73,8.69-9.67,11.23-19.88,11.23c-0.18,0-0.37,0-0.55,0c6.11,8.5,9.46,17.52,2.71,23.24c-2.07,1.75-4.28,2.52-6.56,2.52
		c-5.17,0-10.71-3.91-15.78-9.1c-1.59,9.94-5.32,18.41-13.4,18.41c-0.34,0-0.68-0.01-1.03-0.04c-8.8-0.75-11.26-10.05-11.17-20.54
		c-5.17,3.75-10.52,6.47-15.21,6.47c-2.99,0-5.7-1.1-7.92-3.74c-5.7-6.78-0.89-15.11,6.55-22.46c-10.3-1.67-19.01-5.67-18.27-14.51
		c0.73-8.69,9.67-11.23,19.88-11.23c0.18,0,0.37,0,0.55,0c-6.11-8.5-9.46-17.52-2.71-23.24c2.07-1.75,4.28-2.52,6.56-2.52
		c5.17,0,10.71,3.91,15.78,9.1C472.97,218.62,476.69,210.16,484.78,210.16 M484.78,203.16
		C484.78,203.16,484.78,203.16,484.78,203.16c-4.33,0-10.45,1.51-15.04,8.71c-0.85,1.33-1.6,2.79-2.28,4.4
		c-4.07-2.55-8-3.8-11.87-3.8c-4.03,0-7.87,1.45-11.09,4.18c-4.08,3.46-9.1,10.56-4.14,22.69c-12.73,2.96-15.58,11.21-16.03,16.53
		c-0.45,5.34,0.99,13.93,13.05,18.99c-6.92,11.13-3.15,18.97,0.29,23.07c3.43,4.08,8.02,6.24,13.28,6.24c2.95,0,6.04-0.67,9.32-2.02
		c2.96,12.75,11.14,15.61,16.46,16.06c0.54,0.05,1.09,0.07,1.62,0.07c4.33,0,10.45-1.51,15.04-8.71c0.85-1.33,1.6-2.79,2.28-4.4
		c4.07,2.55,8.01,3.8,11.87,3.8c4.03,0,7.87-1.45,11.09-4.18c4.08-3.46,9.1-10.56,4.14-22.69c12.73-2.96,15.58-11.21,16.03-16.53
		c0.45-5.34-0.99-13.93-13.05-18.99c6.92-11.13,3.15-18.97-0.29-23.07c-3.43-4.08-8.02-6.24-13.28-6.24c-2.95,0-6.04,0.67-9.32,2.02
		c-2.96-12.75-11.14-15.61-16.46-16.06C485.86,203.18,485.31,203.16,484.78,203.16L484.78,203.16z"/>
</g>
<path class="st11" d="M449.03,221.98c-15.96,13.54,24.56,45.51,24.56,45.51s24.56,45.51,40.52,31.96
	c15.96-13.54-24.56-45.51-24.56-45.51S464.99,208.44,449.03,221.98z"/>
<path class="st11" d="M443.02,293.42c13.47,16.04,45.28-24.68,45.28-24.68s45.28-24.68,31.8-40.72
	c-13.47-16.04-45.28,24.68-45.28,24.68S429.55,277.38,443.02,293.42z"/>
<path class="st12" d="M485.81,210.2c-20.81-1.77-14.65,49.63-14.65,49.63s-14.65,49.63,6.16,51.4s14.65-49.63,14.65-49.63
	S506.62,211.97,485.81,210.2z"/>
<path class="st12" d="M431.3,256.45c-1.76,20.92,49.38,14.73,49.38,14.73s49.38,14.73,51.14-6.19
	c1.76-20.92-49.38-14.73-49.38-14.73S433.06,235.53,431.3,256.45z"/>
<ellipse class="st10" cx="481.56" cy="260.72" rx="13.05" ry="13.12"/>
<g>
	<path class="st10" d="M922.98,310.53c-6.2,0-11.37-4.17-15.41-12.43c-4.86,5.82-9.84,8.77-14.85,8.77c-2.29,0-4.55-0.62-6.71-1.84
		c-5.08-2.87-9.72-9.01-5.28-22.12c-1.21,0.11-2.36,0.16-3.46,0.16c-11.34,0-15.33-5.75-16.67-10.57
		c-1.57-5.63-0.53-13.28,11.84-19.39c-10.57-8.89-9.78-16.56-6.92-21.66c2.6-4.65,6.97-7.1,12.62-7.1c2.78,0,5.92,0.6,9.39,1.78
		c-1.22-13.79,4.75-18.65,10.36-20.22c1.31-0.37,2.63-0.56,3.9-0.56c6.2,0,11.37,4.18,15.41,12.43c4.86-5.82,9.84-8.77,14.85-8.77
		c2.29,0,4.55,0.62,6.71,1.84c5.08,2.87,9.72,9.01,5.28,22.12c1.21-0.11,2.36-0.16,3.46-0.16c11.34,0,15.33,5.75,16.67,10.58
		c1.57,5.63,0.53,13.28-11.84,19.39c10.57,8.89,9.78,16.56,6.92,21.66c-2.6,4.65-6.97,7.1-12.62,7.1h0c-2.78,0-5.92-0.6-9.39-1.78
		c1.22,13.79-4.75,18.65-10.36,20.22C925.57,310.34,924.25,310.53,922.98,310.53z"/>
	<path class="st10" d="M901.78,208.66c6.84,0,11.49,7.11,14.61,15.76c4.5-6.78,9.87-12.1,15.65-12.1c1.66,0,3.36,0.44,5.08,1.41
		c7.7,4.35,6.09,13.85,1.68,23.36c3.01-0.61,5.97-0.97,8.7-0.97c6.55,0,11.8,2.12,13.48,8.15c2.38,8.55-5.43,14.12-15.25,17.71
		c8.69,5.82,14.96,13.1,10.63,20.84c-2.17,3.88-5.63,5.41-9.73,5.41c-4.08,0-8.79-1.51-13.51-3.73c2.05,10.29,1.37,19.9-7.14,22.29
		c-1.05,0.29-2.05,0.43-3,0.43c-6.84,0-11.49-7.11-14.61-15.76c-4.5,6.78-9.87,12.1-15.65,12.1c-1.66,0-3.36-0.44-5.08-1.41
		c-7.7-4.35-6.09-13.85-1.68-23.36c-3.01,0.61-5.97,0.97-8.7,0.97c-6.55,0-11.8-2.12-13.48-8.15c-2.38-8.55,5.43-14.12,15.25-17.71
		c-8.69-5.82-14.96-13.1-10.63-20.84c2.17-3.88,5.63-5.41,9.73-5.41c4.08,0,8.79,1.51,13.51,3.73c-2.05-10.29-1.37-19.9,7.14-22.29
		C899.82,208.8,900.82,208.66,901.78,208.66 M901.78,202.04C901.78,202.04,901.78,202.04,901.78,202.04c-1.58,0-3.19,0.23-4.8,0.68
		c-5.09,1.43-12.54,5.79-12.91,18.99c-2.09-0.45-4.07-0.68-5.95-0.68c-6.83,0-12.34,3.12-15.51,8.8c-2.59,4.63-4.79,13,4.29,22.61
		c-11.08,7.17-10.93,15.83-9.5,20.95c1.32,4.75,5.54,12.64,18.93,12.99c-2.77,12.92,3.43,18.93,8.04,21.54
		c2.67,1.51,5.47,2.27,8.34,2.27c4.87,0,9.61-2.18,14.17-6.51c4.32,6.76,9.7,10.17,16.09,10.17c1.58,0,3.19-0.23,4.8-0.68
		c5.09-1.43,12.54-5.79,12.91-18.99c2.09,0.45,4.07,0.68,5.95,0.68c6.83,0,12.34-3.12,15.51-8.8c2.59-4.63,4.79-13-4.29-22.61
		c11.08-7.17,10.93-15.83,9.5-20.95c-1.32-4.75-5.54-12.64-18.93-12.99c2.77-12.92-3.43-18.93-8.04-21.54
		c-2.67-1.51-5.47-2.27-8.34-2.27c-4.87,0-9.61,2.18-14.17,6.51C913.56,205.45,908.17,202.04,901.78,202.04L901.78,202.04
		L901.78,202.04z"/>
</g>
<path class="st11" d="M868.4,233.07c-10.25,18.31,38.86,34.02,38.86,34.02s38.86,34.02,49.11,15.72
	c10.25-18.31-38.86-34.02-38.86-34.02S878.65,214.76,868.4,233.07z"/>
<path class="st11" d="M887.64,302.15c18.21,10.3,33.85-39.06,33.85-39.06s33.85-39.06,15.64-49.35
	c-18.21-10.3-33.85,39.06-33.85,39.06S869.42,291.85,887.64,302.15z"/>
<path class="st12" d="M898.78,209.1c-20.12,5.66,3.54,51.67,3.54,51.67s3.54,51.67,23.66,46.01c20.13-5.66-3.54-51.67-3.54-51.67
	S918.9,203.44,898.78,209.1z"/>
<path class="st12" d="M863.78,271.61c5.63,20.23,51.41-3.56,51.41-3.56s51.41-3.56,45.78-23.78c-5.63-20.23-51.41,3.56-51.41,3.56
	S858.15,251.39,863.78,271.61z"/>
<g>
	<path class="st10" d="M569.55,227.12c-1.19,0-2.41-0.16-3.64-0.48c-5.64-1.46-11.7-6.19-10.76-20c-3.61,1.32-6.87,1.98-9.75,1.98
		c0,0,0,0,0,0c-5.46,0-9.73-2.37-12.36-6.84c-2.96-5.04-3.91-12.69,6.48-21.79c-12.49-5.86-13.68-13.47-12.23-19.13
		c1.28-4.98,5.29-10.92,17.16-10.92c0.88,0,1.8,0.03,2.75,0.1c-4.7-13-0.19-19.24,4.83-22.21c2.22-1.31,4.55-1.98,6.93-1.98
		c4.92,0,9.86,2.84,14.75,8.46c3.93-8.46,9.1-12.74,15.42-12.74c1.19,0,2.41,0.16,3.64,0.48c5.64,1.46,11.7,6.19,10.76,20
		c3.61-1.32,6.87-1.98,9.75-1.98c5.46,0,9.73,2.37,12.36,6.84c2.96,5.04,3.91,12.69-6.48,21.78c12.49,5.86,13.68,13.47,12.23,19.13
		c-1.28,4.98-5.29,10.92-17.16,10.92c-0.88,0-1.8-0.03-2.75-0.1c4.7,13,0.19,19.24-4.83,22.21c-2.22,1.31-4.55,1.98-6.93,1.98
		c-4.92,0-9.87-2.84-14.75-8.46C581.04,222.84,575.87,227.12,569.55,227.12z"/>
	<path class="st10" d="M589.13,124.89c0.89,0,1.83,0.12,2.81,0.37c8.55,2.22,9.43,11.8,7.59,22.13c4.8-2.37,9.6-4,13.75-4
		c3.95,0,7.31,1.48,9.5,5.21c4.49,7.64-1.64,15.04-10.2,21.04c9.88,3.38,17.8,8.79,15.6,17.38c-1.61,6.26-7.11,8.43-13.95,8.43
		c-2.55,0-5.28-0.3-8.06-0.8c4.61,9.41,6.41,18.86-1.2,23.37c-1.77,1.05-3.52,1.52-5.24,1.52c-5.7,0-11.11-5.16-15.69-11.77
		c-2.98,8.8-7.54,16.05-14.49,16.05c-0.89,0-1.83-0.12-2.81-0.37c-8.55-2.22-9.43-11.8-7.59-22.13c-4.8,2.37-9.6,4-13.75,4
		c-3.95,0-7.31-1.48-9.5-5.21c-4.49-7.64,1.64-15.04,10.2-21.04c-9.88-3.38-17.8-8.79-15.6-17.38c1.61-6.26,7.11-8.43,13.95-8.43
		c2.55,0,5.28,0.3,8.06,0.8c-4.61-9.41-6.41-18.86,1.2-23.37c1.77-1.05,3.52-1.52,5.24-1.52c5.7,0,11.11,5.16,15.69,11.77
		C577.63,132.14,582.19,124.89,589.13,124.89 M589.13,118.27c-3.65,0-9.02,1.24-13.86,7.16c-0.82,1-1.6,2.12-2.35,3.34
		c-4.54-4.13-9.21-6.22-13.96-6.22c-2.98,0-5.88,0.82-8.62,2.44c-4.55,2.7-10.63,8.83-7.59,21.69
		c-13.36,0.62-17.42,8.56-18.66,13.37c-1.32,5.14-1.3,13.8,9.92,20.73c-8.87,9.79-6.5,18.11-3.82,22.68
		c3.21,5.47,8.61,8.48,15.21,8.48c2.02,0,4.14-0.27,6.4-0.8c0.63,13.19,8.17,17.39,13.29,18.71c1.5,0.39,3,0.59,4.47,0.59
		c3.65,0,9.02-1.24,13.86-7.16c0.82-1,1.6-2.12,2.35-3.34c4.54,4.14,9.21,6.22,13.96,6.22c2.98,0,5.88-0.82,8.62-2.44
		c4.55-2.7,10.63-8.83,7.59-21.69c13.36-0.62,17.42-8.56,18.66-13.37c1.32-5.14,1.3-13.8-9.92-20.73c8.87-9.79,6.5-18.11,3.82-22.68
		c-3.21-5.47-8.61-8.48-15.21-8.48c-2.02,0-4.14,0.27-6.4,0.8c-0.63-13.19-8.17-17.39-13.29-18.71
		C592.1,118.46,590.6,118.27,589.13,118.27L589.13,118.27C589.13,118.27,589.13,118.27,589.13,118.27L589.13,118.27z"/>
</g>
<path class="st11" d="M628.18,187.01c5.22-20.33-46.23-22.83-46.23-22.83s-46.23-22.83-51.45-2.5
	c-5.22,20.33,46.23,22.83,46.23,22.83S622.96,207.34,628.18,187.01z"/>
<path class="st11" d="M591.94,125.26c-20.23-5.24-22.71,46.47-22.71,46.47s-22.71,46.47-2.48,51.71
	c20.23,5.24,22.71-46.47,22.71-46.47S612.16,130.5,591.94,125.26z"/>
<path class="st12" d="M604.97,218.01c17.99-10.67-16.63-49-16.63-49s-16.63-49-34.62-38.33c-17.99,10.67,16.63,49,16.63,49
	S586.98,228.68,604.97,218.01z"/>
<path class="st12" d="M622.78,148.59c-10.61-18.08-48.75,16.72-48.75,16.72s-48.75,16.72-38.14,34.8s48.75-16.72,48.75-16.72
	S633.4,166.67,622.78,148.59z"/>
<g>
	<path class="st10" d="M382.65,230.41c-6.34,0-11.34-4.33-14.91-12.88c-4.76,5.06-9.48,7.62-14.07,7.62c-2.47,0-4.86-0.73-7.1-2.18
		c-4.73-3.06-8.85-9.24-3.83-21.61c-0.42,0.01-0.83,0.02-1.23,0.02c-12.53,0-16.47-6.09-17.58-11.21c-1.19-5.52,0.24-12.82,12.51-18
		c-9.68-9.17-8.48-16.52-5.44-21.27c2.58-4.03,6.55-6.15,11.48-6.15c2.95,0,6.31,0.77,10.03,2.29
		c-0.39-13.35,5.64-17.69,11.13-18.89c1.02-0.22,2.04-0.34,3.02-0.34c6.34,0,11.34,4.33,14.91,12.88c4.76-5.06,9.48-7.62,14.07-7.62
		c2.47,0,4.86,0.73,7.1,2.18c4.73,3.06,8.85,9.24,3.83,21.61c0.42-0.01,0.83-0.02,1.23-0.02c12.53,0,16.47,6.09,17.58,11.21
		c1.19,5.52-0.24,12.82-12.51,18c9.68,9.17,8.48,16.52,5.44,21.27c-2.58,4.03-6.55,6.15-11.48,6.15c0,0,0,0,0,0
		c-2.95,0-6.31-0.77-10.03-2.29c0.39,13.36-5.64,17.69-11.13,18.89C384.65,230.3,383.63,230.41,382.65,230.41z"/>
	<path class="st10" d="M366.67,131c6.93,0,11.17,7.28,13.76,16.04c4.57-6.07,9.84-10.78,15.22-10.78c1.78,0,3.58,0.52,5.36,1.67
		c7.17,4.64,5.08,13.69,0.29,22.6c2.24-0.31,4.43-0.49,6.51-0.49c7.21,0,13.05,2.18,14.45,8.68c1.81,8.38-6.04,13.3-15.7,16.18
		c8.04,6.11,13.67,13.48,9.06,20.69c-2.14,3.34-5.22,4.68-8.79,4.68c-4.14,0-8.94-1.8-13.7-4.39c1.39,10.03,0.19,19.25-8.15,21.07
		c-0.81,0.18-1.59,0.26-2.34,0.26c-6.93,0-11.17-7.28-13.76-16.04c-4.57,6.07-9.84,10.78-15.22,10.78c-1.78,0-3.58-0.52-5.36-1.67
		c-7.17-4.64-5.08-13.69-0.29-22.6c-2.24,0.31-4.43,0.49-6.51,0.49c-7.21,0-13.05-2.18-14.45-8.68c-1.81-8.38,6.04-13.3,15.7-16.18
		c-8.04-6.11-13.67-13.48-9.06-20.69c2.14-3.34,5.22-4.68,8.79-4.68c4.14,0,8.94,1.8,13.7,4.39c-1.39-10.03-0.18-19.25,8.15-21.07
		C365.14,131.08,365.92,131,366.67,131 M366.67,124.6C366.67,124.6,366.67,124.6,366.67,124.6c-1.21,0-2.46,0.14-3.7,0.41
		c-4.99,1.09-12.42,4.86-13.52,17.56c-2.46-0.69-4.77-1.03-6.97-1.03c-6.08,0-10.98,2.64-14.17,7.63
		c-2.76,4.31-5.35,12.25,2.84,22.03c-11.09,6.27-11.43,14.63-10.35,19.64c1.03,4.75,4.68,12.5,17.51,13.6
		c-3.41,12.29,2.23,18.44,6.52,21.21c2.77,1.79,5.74,2.7,8.83,2.7c4.46,0,8.81-1.8,13.13-5.48c4.88,8.64,11.03,10.74,15.85,10.74
		c1.21,0,2.46-0.14,3.7-0.41c4.99-1.09,12.42-4.86,13.52-17.56c2.46,0.69,4.77,1.03,6.97,1.03c6.08,0,10.98-2.64,14.17-7.63
		c2.76-4.31,5.35-12.25-2.84-22.03c11.09-6.27,11.43-14.63,10.35-19.64c-1.03-4.75-4.68-12.49-17.51-13.6
		c3.41-12.29-2.23-18.44-6.52-21.21c-2.76-1.79-5.74-2.69-8.83-2.7c0,0,0,0,0,0c-4.46,0-8.81,1.8-13.13,5.48
		C377.64,126.7,371.49,124.6,366.67,124.6L366.67,124.6z"/>
</g>
<path class="st11" d="M364.33,131.26c-19.71,4.3,0.47,50,0.47,50s0.47,50,20.19,45.7c19.71-4.3-0.47-50-0.47-50
	S384.04,126.96,364.33,131.26z"/>
<path class="st11" d="M327.05,189.49c4.28,19.81,49.74-0.47,49.74-0.47s49.74-0.47,45.47-20.29s-49.74,0.47-49.74,0.47
	S322.78,169.67,327.05,189.49z"/>
<path class="st12" d="M401.02,137.93c-16.96-10.97-34.84,35.69-34.84,35.69s-34.84,35.69-17.88,46.66
	c16.96,10.97,34.84-35.69,34.84-35.69S417.98,148.9,401.02,137.93z"/>
<path class="st12" d="M333.69,152.61c-10.92,17.05,35.51,35.02,35.51,35.02s35.51,35.02,46.42,17.97
	c10.92-17.05-35.51-35.02-35.51-35.02S344.61,135.56,333.69,152.61z"/>
<ellipse class="st13" cx="912.38" cy="257.94" rx="13.06" ry="13.13"/>
<ellipse class="st13" cx="579.34" cy="174.35" rx="13.05" ry="13.12"/>
<ellipse class="st13" cx="374.66" cy="179.1" rx="12.61" ry="12.67"/>
<path class="st14" d="M967.36,242.49c-1.32-4.75-5.54-12.64-18.93-12.99c2.77-12.92-3.43-18.93-8.04-21.54
	c-2.67-1.51-5.47-2.27-8.34-2.27c-4.87,0-9.61,2.18-14.17,6.51c-4.32-6.76-9.7-10.17-16.09-10.17c-1.58,0-3.19,0.23-4.8,0.68
	c-5.09,1.43-12.54,5.79-12.91,18.99c-2.09-0.45-4.07-0.68-5.95-0.68c-6.83,0-12.34,3.12-15.51,8.8c-2.59,4.63-4.79,13,4.29,22.61
	c-11.08,7.17-10.93,15.83-9.5,20.95c1.32,4.75,5.54,12.64,18.93,12.99c-2.77,12.92,3.43,18.93,8.04,21.54
	c2.67,1.51,5.47,2.27,8.34,2.27c4.87,0,9.61-2.18,14.17-6.51c4.32,6.76,9.7,10.17,16.09,10.17c1.58,0,3.19-0.23,4.8-0.68
	c5.09-1.43,12.54-5.79,12.91-18.99c2.09,0.45,4.07,0.68,5.95,0.68c6.83,0,12.34-3.12,15.51-8.8c2.59-4.63,4.79-13-4.29-22.61
	C968.94,256.27,968.78,247.6,967.36,242.49z"/>
<path class="st15" d="M624.67,167.92c8.87-9.79,6.5-18.11,3.82-22.68c-3.21-5.47-8.61-8.48-15.21-8.48c-2.02,0-4.14,0.27-6.4,0.8
	c-0.63-13.19-8.17-17.39-13.29-18.71c-1.5-0.39-3-0.59-4.47-0.59c0,0,0,0,0,0c-3.65,0-9.02,1.24-13.86,7.16
	c-0.82,1-1.6,2.12-2.35,3.34c-4.54-4.13-9.21-6.22-13.96-6.22c-2.98,0-5.88,0.82-8.62,2.44c-4.55,2.7-10.63,8.83-7.59,21.69
	c-13.36,0.62-17.42,8.56-18.66,13.37c-1.32,5.14-1.3,13.8,9.92,20.73c-8.87,9.79-6.5,18.11-3.82,22.68
	c3.21,5.47,8.61,8.48,15.21,8.48c2.02,0,4.14-0.27,6.4-0.8c0.63,13.19,8.17,17.39,13.29,18.71c1.5,0.39,3,0.59,4.47,0.59
	c3.65,0,9.02-1.24,13.86-7.16c0.82-1,1.6-2.12,2.35-3.34c4.54,4.14,9.21,6.22,13.96,6.22c2.98,0,5.88-0.82,8.62-2.44
	c4.55-2.7,10.63-8.83,7.59-21.69c13.36-0.62,17.42-8.56,18.66-13.37C635.91,183.52,635.89,174.86,624.67,167.92z"/>
<path class="st16" d="M428.51,167.37c-1.03-4.75-4.68-12.49-17.51-13.6c3.41-12.29-2.23-18.44-6.52-21.21
	c-2.76-1.79-5.74-2.69-8.83-2.7c0,0,0,0,0,0c-4.46,0-8.81,1.8-13.13,5.48c-4.88-8.64-11.03-10.74-15.85-10.74c0,0,0,0,0,0
	c-1.21,0-2.46,0.14-3.7,0.41c-4.99,1.09-12.42,4.86-13.52,17.56c-2.46-0.69-4.77-1.03-6.97-1.03c-6.08,0-10.98,2.64-14.17,7.63
	c-2.76,4.31-5.35,12.25,2.84,22.03c-11.09,6.27-11.43,14.63-10.35,19.64c1.03,4.75,4.68,12.5,17.51,13.6
	c-3.41,12.29,2.23,18.44,6.52,21.21c2.77,1.79,5.74,2.7,8.83,2.7c4.46,0,8.81-1.8,13.13-5.48c4.88,8.64,11.03,10.74,15.85,10.74
	c1.21,0,2.46-0.14,3.7-0.41c4.99-1.09,12.42-4.86,13.52-17.56c2.46,0.69,4.77,1.03,6.97,1.03c6.08,0,10.98-2.64,14.17-7.63
	c2.76-4.31,5.35-12.25-2.84-22.03C429.25,180.74,429.59,172.38,428.51,167.37z"/>
<path class="st17" d="M835.63,150.86c6.66-11.91,2.38-19.9-1.4-24c-3.54-3.85-8.1-5.88-13.2-5.88c-3.34,0-6.82,0.85-10.5,2.57
	c-3.67-13.13-12.32-15.73-17.87-15.95c-0.27-0.01-0.54-0.02-0.8-0.02c0,0,0,0,0,0c-5.3,0-13.7,2.15-18.25,14.51
	c-4.08-2.31-7.97-3.45-11.76-3.45c-4.5,0-8.7,1.69-12.14,4.88c-4.08,3.79-8.99,11.42-3.27,23.82c-13.09,3.68-15.68,12.38-15.9,17.97
	c-0.22,5.59,1.68,14.46,14.44,19.17c-6.66,11.91-2.38,19.9,1.4,24c3.54,3.85,8.1,5.88,13.2,5.88c3.34,0,6.82-0.85,10.5-2.57
	c3.67,13.13,12.32,15.73,17.87,15.95c0.27,0.01,0.54,0.02,0.8,0.02c5.3,0,13.7-2.16,18.25-14.51c4.08,2.31,7.97,3.45,11.76,3.45
	c4.5,0,8.7-1.69,12.14-4.88c4.08-3.79,8.99-11.42,3.27-23.82c13.09-3.68,15.68-12.38,15.9-17.97
	C850.29,164.44,848.39,155.57,835.63,150.86z"/>
<path class="st18" d="M743.47,251.37c-0.65-5.17-3.72-13.27-16.18-15.82c4.13-12.02-1.13-18.78-5.3-22.04
	c-3.18-2.48-6.74-3.74-10.57-3.74c-3.97,0-7.94,1.33-12,4.03c-4.64-9.61-11.4-11.95-16.88-11.95c-0.78,0-1.58,0.05-2.38,0.15
	c-5.24,0.67-13.19,3.8-15.73,16.25c-2.84-0.99-5.53-1.47-8.09-1.47c-5.62,0-10.4,2.36-13.85,6.82c-3.24,4.2-6.66,12.07,0.32,22.68
	c-11.38,5.56-12.43,14.09-11.76,19.36c0.65,5.17,3.72,13.27,16.18,15.82c-4.13,12.02,1.13,18.78,5.3,22.04
	c3.18,2.48,6.74,3.74,10.57,3.74c3.97,0,7.94-1.33,12-4.03c4.64,9.61,11.4,11.95,16.88,11.95c0.78,0,1.58-0.05,2.38-0.15
	c5.24-0.67,13.19-3.8,15.73-16.25c2.84,0.99,5.53,1.47,8.09,1.47c5.62,0,10.4-2.36,13.85-6.82c3.24-4.2,6.66-12.07-0.32-22.68
	C743.09,265.17,744.13,256.64,743.47,251.37z"/>
<path class="st17" d="M526.18,246.43c6.75-11.13,2.95-19-0.52-23.13c-3.48-4.15-8.14-6.34-13.47-6.34c-2.89,0-5.92,0.63-9.13,1.92
	c-3.06-12.65-11.28-15.51-16.64-15.96c-0.55-0.05-1.1-0.07-1.64-0.07c0,0,0,0,0,0c-4.86,0-12.61,1.95-17.4,13.01
	c-4.04-2.49-7.94-3.71-11.79-3.71c-4.09,0-7.98,1.47-11.26,4.24c-4.11,3.49-9.17,10.61-4.37,22.71
	c-12.62,3.07-15.45,11.36-15.91,16.73c-0.45,5.39,0.98,14.02,12.89,19.17c-6.75,11.13-2.95,19,0.52,23.13
	c3.48,4.15,8.14,6.34,13.48,6.34c2.89,0,5.92-0.63,9.13-1.92c3.06,12.65,11.28,15.51,16.64,15.96c0.55,0.05,1.1,0.07,1.64,0.07
	c4.86,0,12.61-1.95,17.4-13.01c4.04,2.49,7.94,3.71,11.79,3.71c4.09,0,7.98-1.47,11.26-4.24c4.11-3.49,9.17-10.61,4.37-22.71
	c12.62-3.07,15.45-11.36,15.91-16.73C539.52,260.21,538.1,251.58,526.18,246.43z"/>
</svg>
