<svg id="Layer_2" data-name="Layer 2" xmlns="http://www.w3.org/2000/svg" xmlns:xlink="http://www.w3.org/1999/xlink" viewBox="0 0 909.97 790.42"><defs><style>.cls-1{fill:#5a555a;}.cls-2{fill:url(#linear-gradient);}.cls-3{fill:#636163;}.cls-4{fill:url(#linear-gradient-2);}.cls-5{fill:url(#linear-gradient-3);}.cls-6{fill:url(#linear-gradient-4);}.cls-7{fill:url(#linear-gradient-5);}.cls-8{fill:url(#linear-gradient-6);}.cls-9{fill:url(#linear-gradient-7);}.cls-10{fill:url(#linear-gradient-8);}.cls-11{fill:url(#linear-gradient-9);}</style><linearGradient id="linear-gradient" x1="515.9" y1="845.6" x2="714.73" y2="845.6" gradientTransform="translate(0.49 -2) rotate(0.16)" gradientUnits="userSpaceOnUse"><stop offset="0" stop-color="#745838"/><stop offset="1" stop-color="#a17d5a"/></linearGradient><linearGradient id="linear-gradient-2" x1="498.77" y1="1012.31" x2="732.79" y2="1012.31" gradientTransform="translate(-4.15 -2.07) rotate(0.16)" gradientUnits="userSpaceOnUse"><stop offset="0" stop-color="#686c68"/><stop offset="1" stop-color="#808480"/></linearGradient><linearGradient id="linear-gradient-3" x1="498.4" y1="672.48" x2="732.42" y2="672.48" gradientTransform="translate(5.31 -1.92) rotate(0.16)" xlink:href="#linear-gradient-2"/><linearGradient id="linear-gradient-4" x1="798.7" y1="748.49" x2="997.54" y2="748.49" gradientTransform="matrix(1, 0, 0, 1, 8.77, -6.35)" xlink:href="#linear-gradient"/><linearGradient id="linear-gradient-5" x1="781.57" y1="915.2" x2="1015.6" y2="915.2" gradientTransform="translate(29.85 -7.69) rotate(0.16)" xlink:href="#linear-gradient-2"/><linearGradient id="linear-gradient-6" x1="781.2" y1="575.37" x2="1015.23" y2="575.37" gradientTransform="translate(-13.13 -5.03) rotate(0.16)" xlink:href="#linear-gradient-2"/><linearGradient id="linear-gradient-7" x1="254.23" y1="572.6" x2="453.07" y2="572.6" gradientTransform="matrix(1, 0, 0, 1, 17.34, 22.19)" xlink:href="#linear-gradient"/><linearGradient id="linear-gradient-8" x1="237.1" y1="739.31" x2="471.13" y2="739.31" gradientTransform="translate(-40.16 11.96) rotate(0.16)" xlink:href="#linear-gradient-2"/><linearGradient id="linear-gradient-9" x1="236.73" y1="399.48" x2="470.76" y2="399.48" gradientTransform="translate(77.01 33.01) rotate(0.16)" xlink:href="#linear-gradient-2"/></defs><path d="M430,322.65l75.08,27.59-5.23,68.13,34.21,12.57a19.82,19.82,0,0,1,11.77,25.43L533,491.27a19.8,19.8,0,0,1-24.29,12.12L418,750.41a19.81,19.81,0,0,1,10.13,24.74L415.26,810a19.81,19.81,0,0,1-25.44,11.77l-182.37-67a19.81,19.81,0,0,1-11.76-25.43l12.82-34.9a19.81,19.81,0,0,1,23.74-12.29l90.8-247.11a19.8,19.8,0,0,1-9.6-24.47l12.82-34.9a19.76,19.76,0,0,1,25.43-11.76L387.27,377,430,322.65m0-30a30,30,0,0,0-23.59,11.45l-29.27,37.22-15.11-5.55a49.48,49.48,0,0,0-17.18-3.07,50,50,0,0,0-46.76,32.64l-12.82,34.9a49.75,49.75,0,0,0,3.32,41.56l-78.1,212.56a50,50,0,0,0-30.16,29.76L167.53,719A49.8,49.8,0,0,0,197.11,783l182.36,67a49.8,49.8,0,0,0,63.94-29.58l12.83-34.9a49.85,49.85,0,0,0-3.7-42.22l77.77-211.66a50,50,0,0,0,30.86-30L574,466.72a49.83,49.83,0,0,0-29.58-63.94L531.51,398,535,352.53a30,30,0,0,0-19.56-30.45l-75.08-27.59A30,30,0,0,0,430,292.65Z" transform="translate(-164.45 -292.65)"/><polygon class="cls-1" points="384.12 373.6 419.43 274.46 499.38 276.69 524.89 377.52 384.12 373.6"/><rect class="cls-2" x="514.52" y="667.54" width="197.84" height="355.54" transform="translate(-140.69 -309.39) rotate(1.59)"/><rect class="cls-3" x="576.58" y="747.63" width="73.71" height="195.39" rx="10.07" transform="translate(-140.68 -309.39) rotate(1.59)"/><rect class="cls-4" x="491.84" y="973.55" width="233.92" height="76.81" rx="19.82" transform="translate(-136.05 -309.2) rotate(1.59)"/><rect class="cls-5" x="501.88" y="633.88" width="233.92" height="76.81" rx="19.82" transform="translate(-145.5 -309.61) rotate(1.59)"/><path d="M583.87,567.11l80,2.22,16.75,66.25,36.43,1A19.82,19.82,0,0,1,736.27,657l-1,37.17a19.82,19.82,0,0,1-19.17,19.23l-7.32,263.06a19.81,19.81,0,0,1,17.48,20.22l-1,37.17a19.81,19.81,0,0,1-19.8,19.26h-.56l-194.22-5.4a19.81,19.81,0,0,1-19.25-20.36l1-37.17A19.81,19.81,0,0,1,511,970.91l7.33-263.16a19.79,19.79,0,0,1-16.9-20.14l1-37.17a19.81,19.81,0,0,1,19.8-19.26h.56l37.88,1,23.19-65.13m0-30A30,30,0,0,0,555.61,557l-15.88,44.61-16.1-.45-1.39,0a49.82,49.82,0,0,0-49.79,48.43l-1,37.16a49.78,49.78,0,0,0,16.39,38.34l-6.3,226.34a49.72,49.72,0,0,0-19.1,37.84l-1,37.16a49.82,49.82,0,0,0,48.41,51.19L704,1083l1.4,0a49.83,49.83,0,0,0,49.79-48.43l1-37.16A49.68,49.68,0,0,0,744,963.39a50.93,50.93,0,0,0-4.75-4.77l6.27-225.4A49.78,49.78,0,0,0,765.23,695l1-37.16a49.88,49.88,0,0,0-48.41-51.19l-13.75-.38L692.91,562a30,30,0,0,0-28.25-22.64l-79.95-2.22Z" transform="translate(-164.45 -292.65)"/><polygon class="cls-1" points="648.67 285.07 668.28 181.67 747.62 171.55 788.36 267.26 648.67 285.07"/><rect class="cls-6" x="805.87" y="566.88" width="197.84" height="355.54" transform="translate(-251.35 -172.24) rotate(-7.27)"/><rect class="cls-3" x="867.94" y="646.96" width="73.71" height="195.39" rx="10.07" transform="translate(-251.35 -172.24) rotate(-7.27)"/><rect class="cls-7" x="808.91" y="871.62" width="233.92" height="76.81" rx="19.82" transform="translate(-272.1 -168.25) rotate(-7.27)"/><rect class="cls-8" x="766.51" y="534.44" width="233.92" height="76.81" rx="19.82" transform="translate(-229.8 -176.32) rotate(-7.27)"/><path d="M912.07,464.2l26.76,62.87,36.15-4.6a19.73,19.73,0,0,1,22.17,17.15l4.7,36.88a19.8,19.8,0,0,1-16,22l33.28,261h.75a19.81,19.81,0,0,1,19.64,17.3l4.7,36.88a19.82,19.82,0,0,1-17.15,22.16L834.37,960.4a19.82,19.82,0,0,1-22.17-17.15l-4.7-36.88a19.81,19.81,0,0,1,15.4-21.85L789.61,623.38h-.17a19.82,19.82,0,0,1-19.64-17.3l-4.7-36.88A19.82,19.82,0,0,1,782.25,547l37.59-4.8,12.89-67.92,79.34-10.12m0-30a30.41,30.41,0,0,0-3.8.24l-79.35,10.12a30,30,0,0,0-25.68,24.16l-8.82,46.52-16,2A49.82,49.82,0,0,0,735.34,573l4.71,36.88a49.76,49.76,0,0,0,22.1,35.32l28.63,224.64a51.18,51.18,0,0,0-4.25,5.22,49.69,49.69,0,0,0-8.79,35.12l4.7,36.88a49.82,49.82,0,0,0,55.72,43.11l192.73-24.57A49.82,49.82,0,0,0,1074,909.87L1069.3,873a49.79,49.79,0,0,0-22.74-35.74L1018,613.54a49.75,49.75,0,0,0,13.57-40.84l-4.7-36.88a49.74,49.74,0,0,0-55.72-43.11l-13.64,1.74-17.88-42a30,30,0,0,0-27.59-18.25Z" transform="translate(-164.45 -292.65)"/><polygon class="cls-1" points="200.51 112.73 265.57 30 340.64 57.59 332.69 161.3 200.51 112.73"/><rect class="cls-9" x="270.46" y="418" width="197.84" height="355.54" transform="translate(63.71 -383.49) rotate(20.18)"/><rect class="cls-3" x="332.53" y="498.09" width="73.71" height="195.39" rx="10.07" transform="translate(63.72 -383.49) rotate(20.18)"/><rect class="cls-10" x="194.92" y="713.85" width="233.92" height="76.81" rx="19.82" transform="translate(114.16 -354.06) rotate(20.18)"/><rect class="cls-11" x="312.68" y="395.08" width="233.92" height="76.81" rx="19.82" transform="translate(11.43 -414.23) rotate(20.18)"/></svg>