<svg id="Layer_3" data-name="Layer 3" xmlns="http://www.w3.org/2000/svg" xmlns:xlink="http://www.w3.org/1999/xlink" viewBox="0 0 1234.56 444.12"><defs><style>.cls-1{fill:#222;}.cls-2{fill:#5a555a;}.cls-3{fill:#656565;}.cls-4{fill:#8f8f8f;}.cls-5{fill:#373737;}.cls-6{opacity:0.25;}.cls-7{fill:#b3b3b3;}.cls-8{fill:url(#linear-gradient);}.cls-9{fill:#636163;}</style><linearGradient id="linear-gradient" x1="649.7" y1="908.12" x2="649.7" y2="707" gradientUnits="userSpaceOnUse"><stop offset="0" stop-color="#6b5131"/><stop offset="0.06" stop-color="#735737"/><stop offset="0.28" stop-color="#8c6c4a"/><stop offset="0.48" stop-color="#9c7956"/><stop offset="0.64" stop-color="#a17d5a"/></linearGradient></defs><path d="M519.52,918.12c-8.95,0-31.9-2-51.66-20C447,879,436.4,848.51,436.4,807.56c0-28,5-51.09,14.8-69l-13-.14c-8.4,14.26-23,40.79-41.55,81.36q-.29.87-.54,1.71l-.22.79c-.14.45-.27.91-.39,1.36l-.28,1.13-.24,1-.26,1.2c-.06.29-.13.59-.18.88l-.21,1.17q-.09.42-.15.84l-.18,1.15-.12.86-.13,1.08c0,.3-.07.59-.1.88l-.09,1c0,.32-.06.64-.08,1l-.05,1-.06.92,0,.82,0,1.05v.81c0,.34,0,.69,0,1l0,.76c0,.35,0,.7,0,1.05l0,.57.06,1.23,0,.51q0,.63.09,1.26l0,.4c0,.47.08.91.12,1.34l.05.39c0,.43.09.89.15,1.34l0,.24c.07.52.13,1,.2,1.47l0,.18c.07.47.14,1,.22,1.45a.17.17,0,0,1,0,.07c.53,3.31,1.16,6.39,1.77,9.38,1.11,5.44,2.07,10.13,2.08,14.66,0,.56,0,1.08,0,1.58a.62.62,0,0,0,0,.13c0,.48-.07,1-.12,1.48l0,.15c-.06.53-.14,1-.24,1.55l0,.18c-.1.49-.21,1-.35,1.48,0,.1-.05.19-.08.29q-.21.75-.48,1.47l-.13.33c-.17.45-.39,1-.62,1.43l-.14.26q-.39.77-.81,1.44l-.19.29c-.29.45-.61.9-1,1.34l-.2.25c-.38.46-.74.87-1.12,1.25l-.3.29c-.35.35-.76.72-1.18,1.07l-.32.26c-.41.32-.83.63-1.27.93l-.35.24c-.43.27-.88.54-1.35.8l-.3.16c-.5.27-.95.49-1.43.71l-.34.15c-.51.22-1,.41-1.48.59l-.37.13c-.49.18-1,.34-1.48.49l-.42.12c-.49.14-1,.27-1.51.4l-.36.08c-.56.13-1.08.24-1.63.34l-.44.08c-.53.1-1.07.19-1.63.27l-.36,0c-.63.09-1.2.16-1.8.22l-.35,0c-.66.07-1.26.12-1.89.17l-.43,0c-.65,0-1.29.09-1.94.12l-.47,0c-.65,0-1.32.06-2,.07h-.46c-.71,0-1.42,0-2.16,0h-.44c-.75,0-1.52,0-2.31,0h-.38l-2.5-.07h-.46l-2.59-.11-.39,0-2.82-.15-.22,0c-1.1-.06-2.11-.13-3.16-.21h-.21l-3.34-.26h-.15q-3.28-.27-6.94-.64c-29.43-2.91-46.28-11.45-51.52-26.11-8.31-23.24,17.77-49.32,33.34-64.9l2.37-2.37c2.11-7.78,2.79-30.87,0-68.19-14.17-.11-25.16-.19-32.75-.21a10.9,10.9,0,0,1-1.82-.18h-4.66c-54.29,0-93.58,92.52-94,93.46a10,10,0,0,1-9.23,6.15H53.92a10,10,0,0,1-7-2.81c-19.3-18.62-6.63-58.37-3-68.29V668.54c-.44-.94-.88-1.86-1.3-2.78-22.88-49.22-28-84.39-15.34-104.52,7.76-12.3,20.33-15.69,26.54-15.75H194.57c18.46,0,32.07,20.19,37.91,30.69h14.67c6.92-15,24.71-19.24,34.46-19.24h92.51c45.49-53.58,47.08-53.58,52.67-53.58h62.73a10,10,0,0,1,9.61,12.77c-.08.25-6.17,21.49-10.64,40.81h3.56c53.84,0,98.89,23.8,110,30.16H781.38a10,10,0,0,1,10,10v.39l11.85.54h250.84l83.31-100.42a10,10,0,0,1,7.7-3.61h61.71a10,10,0,0,1,10,10v94H1225a10,10,0,0,1,10,10v39.52a10,10,0,0,1-10,10h-40.86c-4.77,23.61-14.68,55.4-35.27,85.82a193.5,193.5,0,0,1-70.15,63.29c-32.61,17.3-71.31,26.08-115,26.08l-65.29-.61c-1.41,15.83-4.36,27.35-8.94,35C883.65,877,876.62,878,873.87,878H847.4c-21.11,37.12-56.71,40.12-67.52,40.12ZM963.89,770.45c60.66,0,105.58-20.88,133.39-62a168.28,168.28,0,0,0,22.87-50.91H813v47C824.45,710,837.88,720,847.9,738h26c2.34,0,8.38.8,13.84,8.17,4,5.37,6.9,13.16,8.83,23.65Zm201.54-193.23V555.61H1160l-16.19,21.61Z" transform="translate(-10.44 -484)"/><path d="M1206.79,504V608H1225v39.52h-49.19c-4.18,25.06-13.71,58.44-35.22,90.22A183.64,183.64,0,0,1,1074,797.83c-31.15,16.53-68.28,24.91-110.33,24.91h-.2l-74.43-.69c-2.15,45.43-14.63,46-15.2,46h-32.5c-16.37,33.78-45.93,40.12-61.49,40.12H519.52c-22.25,0-73.12-12.93-73.12-100.56,0-39.69,10.43-64.06,23.92-78.84l-37.75-.4c-8.31,13.69-24.29,41.91-45.23,87.76-.29.84-.55,1.67-.8,2.5l-.21.75q-.25.85-.48,1.71c-.09.31-.16.62-.24.93-.12.5-.25,1-.36,1.49-.08.32-.14.64-.21,1s-.21.94-.3,1.41-.12.65-.18,1-.17.92-.24,1.37-.1.64-.15,1c-.06.46-.14.91-.2,1.36s-.07.61-.1.91c-.06.45-.11.91-.16,1.35s0,.59-.08.88c0,.45-.08.9-.11,1.35,0,.28,0,.56,0,.83,0,.45-.06.91-.08,1.36,0,.26,0,.53,0,.8,0,.45,0,.9,0,1.34v.75c0,.46,0,.91,0,1.36,0,.24,0,.47,0,.7,0,.46,0,.92,0,1.37l0,.64c0,.47,0,.93.07,1.39,0,.19,0,.38,0,.57,0,.47.06.95.1,1.42,0,.16,0,.32.05.49,0,.49.09,1,.14,1.46,0,.14,0,.27,0,.41.06.51.11,1,.18,1.51,0,.1,0,.2,0,.31.06.52.13,1,.21,1.57a1.1,1.1,0,0,0,0,.18c.08.56.17,1.12.25,1.67h0c1.46,9.28,3.71,16.81,3.72,22.51v0c0,.35,0,.69,0,1v.06c0,.32-.05.63-.08.94v.09c0,.3-.08.59-.13.88l0,.1c-.06.28-.12.55-.19.82a.76.76,0,0,0,0,.11,6.91,6.91,0,0,1-.25.77l0,.12c-.1.24-.2.48-.31.71l-.07.13a7.08,7.08,0,0,1-.38.66.57.57,0,0,1-.08.13c-.14.21-.28.42-.44.62l-.11.13q-.24.28-.51.57l-.13.13c-.18.18-.38.35-.58.52l-.16.13c-.21.16-.43.33-.66.48l-.18.12c-.23.15-.48.3-.74.45l-.2.1c-.27.14-.54.28-.83.41l-.23.1c-.29.13-.6.25-.91.37l-.26.09-1,.33-.29.08c-.35.1-.72.2-1.1.29l-.31.07c-.39.09-.79.18-1.21.26l-.34.06c-.42.07-.86.15-1.32.21l-.35,0c-.47.07-.94.13-1.44.18l-.38,0-1.56.14-.39,0-1.69.11h-.42l-1.82.07h-.42l-2,0h-.41c-.7,0-1.41,0-2.15,0h-.41l-2.31-.06-.41,0c-.81,0-1.64-.06-2.49-.1l-.37,0-2.71-.14-.31,0-2.95-.2-.24,0c-1-.07-2.11-.16-3.21-.25h-.11c-2.17-.18-4.43-.38-6.82-.62-84-8.32-25.29-60.33-8.09-78,5.85-13.74,2-65.82.53-83.52-17.94-.16-32.35-.26-42-.29v-.17l-6.52,0c-61.7,0-103.2,99.61-103.2,99.61H53.92c-16.71-16.13,0-59.3,0-59.3V666.28q-1.16-2.4-2.23-4.73C2.63,556,53.92,555.49,53.92,555.49H194.57c17.79,0,31.8,30.69,31.8,30.69h28.19c2.74-19.23,27.06-19.24,27.06-19.24h97.14c14-16.53,45.67-53.58,48-53.58h62.73s-9.12,31.71-13.42,53.58h15.95c58.67,0,107.23,30.16,107.23,30.16h182.1v9.95L803,608h255.76l86.32-104h61.71m-83,83.22h51.6V545.61H1155l-31.16,41.61M841.79,748h32.08c.51,0,10.29.41,14,31.74l75.88.71c64.28,0,112-22.36,141.76-66.38,15.48-22.87,23.28-47.17,27.21-66.52H803v63.64c13.79,5.07,28.84,15.68,38.79,36.81m365-264h-61.71a20,20,0,0,0-15.39,7.23L1049.37,588H803.45l-4.34-.2a20,20,0,0,0-17.73-10.73H604.62c-14-7.74-54.62-27.67-103.47-30,3.75-14.9,7.53-28.06,7.59-28.26a20,20,0,0,0-19.22-25.53H426.79c-9.45,0-15.1,6-21.08,12.33-3.38,3.58-7.95,8.64-13.58,15.05-7.49,8.51-15.74,18.12-22.62,26.2H281.62a59.55,59.55,0,0,0-19.52,3.68,43.14,43.14,0,0,0-20.64,15.56h-3.31c-1.45-2.31-3.11-4.8-5-7.31-11.58-15.51-24.57-23.38-38.6-23.38H53.72C43.5,535.6,28.23,541,18.83,555.9,4,579.42,8.8,616.74,33.55,670l.37.79v93a153.82,153.82,0,0,0-6,23.85C24,811.42,28.1,829.36,40,840.87a20,20,0,0,0,13.89,5.61H180.56A20,20,0,0,0,199,834.17a258.71,258.71,0,0,1,26.6-46.31c13.68-18.7,34.87-41,58.14-41h3.86a20.12,20.12,0,0,0,2.59.17c5.85,0,13.7.07,23.44.15,1.82,28.65,1.29,46.12.17,53.3l-.26.26c-6.83,6.83-17.16,17.17-25,28.39-12,17.21-15.64,33-10.65,47,3.59,10,11.17,18,22.54,23.5,9.51,4.64,21.74,7.64,37.4,9.2,2.41.23,4.74.45,7.14.65h.13l3.39.26.26,0,3.15.21H352l.25,0,3,.16h.09l.3,0c1,.05,1.87.08,2.76.11h.08l.38,0,2.59.06h.44c.86,0,1.68,0,2.48,0h.48c.8,0,1.57,0,2.33,0h.49c.77,0,1.5,0,2.22-.08h.08l.45,0,2.11-.13h.07l.45,0c.71,0,1.39-.11,2.06-.18h.06l.43,0c.71-.08,1.37-.17,2-.26l.52-.07c.68-.1,1.33-.21,2-.32l.51-.09,1.91-.4.54-.13c.64-.15,1.27-.32,1.93-.51l.54-.15c.63-.19,1.26-.4,1.93-.63l.52-.19c.65-.24,1.28-.49,2-.78l.51-.23c.65-.29,1.29-.61,1.95-1l.52-.28c.65-.36,1.31-.76,1.95-1.17l.48-.32q1-.66,1.92-1.41l.44-.35c.64-.54,1.26-1.09,1.85-1.67l.41-.4c.57-.59,1.13-1.22,1.67-1.87.13-.16.26-.31.38-.47.5-.63,1-1.33,1.48-2l.26-.4c.46-.74.88-1.49,1.27-2.24l.22-.44c.35-.71.68-1.48,1-2.25l.15-.39c.28-.74.53-1.51.75-2.28l.1-.37c.19-.69.36-1.45.51-2.21l.05-.25c.13-.73.24-1.47.33-2.19v-.2c.08-.7.14-1.41.18-2.12v-.11h0c0-.68.06-1.38,0-2.07v-.07c0-5.52-1.12-10.9-2.29-16.61-.58-2.88-1.19-5.85-1.68-8.93v0c-.08-.45-.14-.91-.21-1.37l0-.19c-.05-.38-.11-.81-.16-1.24l0-.24c-.06-.41-.1-.81-.14-1.22l0-.27v-.08c0-.36-.08-.75-.11-1.13l0-.3v-.12c0-.33-.05-.7-.08-1.08l0-.3v-.13c0-.35,0-.71-.05-1.06l0-.34v-.16c0-.33,0-.68,0-1v-.54c0-.29,0-.59,0-.89v-.69c0-.27,0-.56,0-.85V838c0-.25,0-.51,0-.77V837l0-.41v-.21l.06-.72,0-.26,0-.43,0-.22c0-.23.05-.46.08-.69l0-.3,0-.45,0-.23c0-.2.07-.43.1-.65l.05-.32.07-.47,0-.25c0-.2.08-.43.12-.65l.06-.34.09-.49,0-.23c.05-.21.1-.44.15-.66l.07-.37.11-.5.05-.23c.05-.23.12-.49.18-.74l.09-.34.13-.52.05-.21c.09-.32.19-.7.3-1.07l.05-.16.15-.55,0-.08.27-.88c8.45-18.46,16.05-33.93,22.6-46.63a204.81,204.81,0,0,0-2.19,30.81c0,43.87,11.68,76.81,34.71,97.89,22.35,20.46,48.29,22.67,58.41,22.67H779.88a88.73,88.73,0,0,0,39.53-9.58A86.52,86.52,0,0,0,853,888h20.85c4.46,0,15.75-1.53,24.19-15.71,4.36-7.31,7.42-17.23,9.25-30.07l56,.52h.38c45.36,0,85.63-9.17,119.71-27.25A203.45,203.45,0,0,0,1157.16,749c19.23-28.42,29.52-57.93,35-81.43H1225a20,20,0,0,0,20-20V608a20,20,0,0,0-18.21-19.93V504a20,20,0,0,0-20-20ZM823,667.55h283.6a153.3,153.3,0,0,1-17.6,35.31c-25.83,38.17-67.92,57.55-125.11,57.59l-59.33-.55c-2.17-8.15-5.09-14.66-8.82-19.69-8.16-11-18-12.21-21.87-12.21H853.58A87.77,87.77,0,0,0,823,698.52v-31Z" transform="translate(-10.44 -484)"/><path class="cls-1" d="M963.7,822.74h-.2l-116.69-1.08.4-42.29,116.59,1.08c64.28,0,112-22.36,141.76-66.38,29.65-43.81,31.15-92.89,31.15-102.29H1179c0,16.24-2.77,73.32-38.41,126A183.64,183.64,0,0,1,1074,797.83C1042.88,814.36,1005.75,822.74,963.7,822.74Z" transform="translate(-10.44 -484)"/><path class="cls-2" d="M889.38,808h0c0-60.67-15.53-60-15.53-60H817.62v60h0v60h56.23s15.53.67,15.53-60Z" transform="translate(-10.44 -484)"/><path class="cls-3" d="M331.7,721.41s7.08,72.82,0,89.46c-17.2,17.69-75.88,69.7,8.09,78s29.34-18.72,47.55-72.81c31.36-68.66,51.59-97.79,51.59-97.79Z" transform="translate(-10.44 -484)"/><path class="cls-4" d="M1145.08,504,1051,617.39h155.8V504Zm30.35,83.22h-51.6L1155,545.61h20.44Z" transform="translate(-10.44 -484)"/><path class="cls-1" d="M803,732.86V608L321.21,586.18H226.37s-14-30.69-31.8-30.69H53.92s-52.82.52,0,110.79v100.9s-16.71,43.17,0,59.3H180.56s41.5-99.61,103.2-99.61S803,732.86,803,732.86Z" transform="translate(-10.44 -484)"/><rect class="cls-3" x="792.56" y="124.03" width="422" height="39.53"/><path class="cls-5" d="M438.93,718.29l-41.25,1.2C378,760,339.78,844.94,343.09,889.21c79.2,7.27,26.28-19.77,44.25-73.13C418.7,747.42,438.93,718.29,438.93,718.29Z" transform="translate(-10.44 -484)"/><path class="cls-3" d="M372.16,574.74s51.6-61.38,54.63-61.38h62.73s-21.25,73.86-14.17,73.86Z" transform="translate(-10.44 -484)"/><polygon points="740.09 181.24 586.32 181.24 586.32 233.25 739.7 233.25 740.09 181.24"/><path class="cls-4" d="M290.28,727.06c29.79.11,105.71.86,190.28,1.77L481,686H290.28Z" transform="translate(-10.44 -484)"/><path class="cls-4" d="M254.3,658.48V589.82c0-22.88,27.32-22.88,27.32-22.88H492.05c58.67,0,107.23,30.16,107.23,30.16h182.1v72.82H254.3Z" transform="translate(-10.44 -484)"/><polygon class="cls-1" points="666.84 185.92 687.52 185.92 687.56 113.1 666.84 113.1 666.84 185.92"/><polygon class="cls-1" points="709.84 185.92 729.52 185.92 729.56 113.1 709.84 113.1 709.84 185.92"/><polygon class="cls-1" points="610.84 185.92 647.49 185.92 647.56 113.1 610.84 113.1 610.84 185.92"/><path class="cls-3" d="M544.89,606H296.7a1.7,1.7,0,0,0-1.7,1.7v21.6a1.7,1.7,0,0,0,1.7,1.7H544.34a1.7,1.7,0,0,0,1.7-1.66l.55-21.6A1.7,1.7,0,0,0,544.89,606Z" transform="translate(-10.44 -484)"/><path class="cls-6" d="M254.3,645v24.92H781.38V645Z" transform="translate(-10.44 -484)"/><rect class="cls-7" x="442.96" y="697.2" width="21.08" height="21.08" rx="7.69" transform="translate(-7.97 -485.58) rotate(0.2)"/><rect class="cls-7" x="397.96" y="697.2" width="21.08" height="21.08" rx="7.69" transform="translate(-7.97 -485.42) rotate(0.2)"/><rect class="cls-7" x="352.96" y="697.2" width="21.08" height="21.08" rx="7.69" transform="translate(-7.97 -485.26) rotate(0.2)"/><rect class="cls-7" x="307.96" y="697.2" width="21.08" height="21.08" rx="7.69" transform="translate(-7.97 -485.11) rotate(0.2)"/><path class="cls-3" d="M58.78,579H166.69a3.79,3.79,0,0,1,3.37,2L184.94,610a3.79,3.79,0,0,0,3.37,2h47.91a3.78,3.78,0,0,1,3.78,3.78v13.44a3.78,3.78,0,0,1-3.78,3.78H170.11a3.8,3.8,0,0,1-3.22-1.79l-18.8-30.44a3.77,3.77,0,0,0-3.17-1.79L58.74,598A3.78,3.78,0,0,1,55,594.26V582.78A3.78,3.78,0,0,1,58.78,579Z" transform="translate(-10.44 -484)"/><path class="cls-3" d="M236.22,657H49.61c1.35,3,2.78,6.09,4.31,9.28V678h182.3a3.78,3.78,0,0,0,3.78-3.78V660.78A3.78,3.78,0,0,0,236.22,657Z" transform="translate(-10.44 -484)"/><path class="cls-8" d="M779.88,707H519.52c-22.25,0-73.12,12.93-73.12,100.56s50.87,100.56,73.12,100.56H779.88c22.25,0,73.12-12.93,73.12-100.56S802.13,707,779.88,707Z" transform="translate(-10.44 -484)"/><path class="cls-9" d="M755,779c-3.25-9-11.29-15-20.28-15H565.31c-9,0-17,6-20.28,15A86.34,86.34,0,0,0,545,837c3.25,9,11.29,15,20.28,15H734.69c9,0,17-6,20.28-15A86.34,86.34,0,0,0,755,779Z" transform="translate(-10.44 -484)"/></svg>