<svg id="Layer_2" data-name="Layer 2" xmlns="http://www.w3.org/2000/svg" xmlns:xlink="http://www.w3.org/1999/xlink" viewBox="0 0 947.95 808.85"><defs><style>.cls-1{fill:#8f8161;}.cls-2{fill:#5a555a;}.cls-3{fill:url(#linear-gradient);}.cls-4{fill:#636163;}.cls-5{fill:url(#linear-gradient-2);}.cls-6{fill:url(#linear-gradient-3);}.cls-7{fill:url(#linear-gradient-4);}.cls-8{fill:url(#linear-gradient-5);}.cls-9{fill:url(#linear-gradient-6);}.cls-10{fill:url(#linear-gradient-7);}.cls-11{fill:url(#linear-gradient-8);}.cls-12{fill:url(#linear-gradient-9);}</style><linearGradient id="linear-gradient" x1="752.32" y1="870.59" x2="951.16" y2="870.59" gradientTransform="matrix(1, 0, 0, 1, -10.03, -11.18)" gradientUnits="userSpaceOnUse"><stop offset="0" stop-color="#745838"/><stop offset="1" stop-color="#a17d5a"/></linearGradient><linearGradient id="linear-gradient-2" x1="735.19" y1="1037.3" x2="969.22" y2="1037.3" gradientTransform="matrix(1, 0, 0, 1, -61.49, -19.32)" gradientUnits="userSpaceOnUse"><stop offset="0" stop-color="#686c68"/><stop offset="1" stop-color="#808480"/></linearGradient><linearGradient id="linear-gradient-3" x1="734.83" y1="697.48" x2="968.85" y2="697.48" gradientTransform="translate(43.39 -2.55) rotate(0.16)" xlink:href="#linear-gradient-2"/><linearGradient id="linear-gradient-4" x1="504.11" y1="788.61" x2="702.94" y2="788.61" gradientTransform="matrix(1, 0, 0, 1, -14.26, -27.67)" xlink:href="#linear-gradient"/><linearGradient id="linear-gradient-5" x1="486.98" y1="955.32" x2="721" y2="955.32" gradientTransform="translate(-89.49 -45.61) rotate(0.16)" xlink:href="#linear-gradient-2"/><linearGradient id="linear-gradient-6" x1="486.61" y1="615.5" x2="720.63" y2="615.5" gradientTransform="translate(63.81 -8.78) rotate(0.16)" xlink:href="#linear-gradient-2"/><linearGradient id="linear-gradient-7" x1="255.37" y1="638.59" x2="454.2" y2="638.59" gradientTransform="translate(-0.74 -23.4) rotate(0.16)" xlink:href="#linear-gradient"/><linearGradient id="linear-gradient-8" x1="238.24" y1="805.3" x2="472.26" y2="805.3" gradientTransform="translate(-104.57 -59.68) rotate(0.16)" xlink:href="#linear-gradient-2"/><linearGradient id="linear-gradient-9" x1="237.87" y1="465.47" x2="471.89" y2="465.47" gradientTransform="translate(106.94 14.63) rotate(0.16)" xlink:href="#linear-gradient-2"/></defs><path class="cls-1" d="M484,339s270,185,545,250c0,0-9,75-30,72S503,492,450,398C450,398,470,344,484,339Z" transform="translate(-111.05 -309)"/><polygon class="cls-2" points="716.51 362.7 778.35 277.54 854.43 302.23 850.45 406.17 716.51 362.7"/><rect class="cls-3" x="740.36" y="684.02" width="197.84" height="355.54" transform="translate(195.98 -526) rotate(17.98)"/><rect class="cls-4" x="802.42" y="764.1" width="73.71" height="195.39" rx="10.07" transform="translate(195.99 -526) rotate(17.98)"/><rect class="cls-5" x="670.85" y="981.95" width="233.92" height="76.81" rx="19.82" transform="translate(242.42 -502.37) rotate(17.98)"/><rect class="cls-6" x="776.31" y="658.9" width="233.92" height="76.81" rx="19.82" transform="translate(147.85 -550.7) rotate(17.98)"/><polygon class="cls-2" points="493.66 263.99 567.86 189.36 639.24 225.45 619.33 327.54 493.66 263.99"/><rect class="cls-7" x="488.14" y="584.85" width="197.84" height="355.54" transform="translate(296.3 -491.86) rotate(26.83)"/><rect class="cls-4" x="550.2" y="664.94" width="73.71" height="195.39" rx="10.07" transform="translate(296.3 -491.86) rotate(26.83)"/><rect class="cls-8" x="394.87" y="872.99" width="233.92" height="76.81" rx="19.82" transform="translate(355.34 -441.9) rotate(26.83)"/><rect class="cls-9" x="548.75" y="570" width="233.92" height="76.81" rx="19.82" transform="translate(235.16 -543.95) rotate(26.83)"/><polygon class="cls-2" points="296.93 125.05 384.71 67.01 447.29 116.82 407.1 212.75 296.93 125.05"/><rect class="cls-10" x="253.33" y="438.4" width="197.84" height="355.54" transform="translate(349.36 -394.3) rotate(38.52)"/><rect class="cls-4" x="315.39" y="518.49" width="73.71" height="195.39" rx="10.07" transform="translate(349.36 -394.29) rotate(38.52)"/><rect class="cls-11" x="131.47" y="708.2" width="233.92" height="76.81" rx="19.82" transform="translate(408 -301.25) rotate(38.52)"/><rect class="cls-12" x="343.56" y="442.69" width="233.92" height="76.81" rx="19.82" transform="translate(288.79 -491.12) rotate(38.52)"/><path d="M484,339s270,185,545,250c0,0-8.65,72.09-28.78,72.09A8.45,8.45,0,0,1,999,661c-3-.43-15.61-4.29-35-10.84l-1.12,29.36,34.66,11.25a19.81,19.81,0,0,1,12.73,25l-11.48,35.36a19.78,19.78,0,0,1-23.81,13l-81.24,250.31a19.81,19.81,0,0,1,11.07,24.33l-11.48,35.36a19.76,19.76,0,0,1-25,12.73l-184.8-60a19.82,19.82,0,0,1-12.73-25l11.47-35.36a19.82,19.82,0,0,1,18.84-13.7,20.15,20.15,0,0,1,4.41.5L786.82,703a19.8,19.8,0,0,1-10.53-24.09l11.47-35.36a19.77,19.77,0,0,1,25-12.73l36,11.7,19.4-26.71c-37.8-14.18-80.63-30.91-124.18-49l-6.78,34.77L769.73,618a19.82,19.82,0,0,1,8.74,26.63l-16.78,33.17A19.8,19.8,0,0,1,736.16,687L617.39,921.85a19.8,19.8,0,0,1,7.2,25.74l-16.78,33.18a19.83,19.83,0,0,1-26.63,8.74L407.81,901.83a19.83,19.83,0,0,1-8.75-26.63L415.84,842a19.79,19.79,0,0,1,25-9.46L559.65,597.63a19.81,19.81,0,0,1-6.71-25.42L569.72,539a19.8,19.8,0,0,1,26.63-8.74l33.81,17.1,21-21.15c-40.53-18.66-78.87-37.84-111.25-56.5l-8,19.11,28.52,22.7a19.81,19.81,0,0,1,3.16,27.84l-23.15,29.09a19.81,19.81,0,0,1-26.88,3.86l-163.9,205.9a19.8,19.8,0,0,1,1.83,26.66L328.36,834a19.81,19.81,0,0,1-27.85,3.16l-152-121a19.83,19.83,0,0,1-3.16-27.85l23.16-29.08a19.8,19.8,0,0,1,26.39-4.2l164-206a19.82,19.82,0,0,1-1.41-26.26l23.15-29.09a19.83,19.83,0,0,1,27.85-3.16l29.65,23.6,15.65-10.35A62.59,62.59,0,0,1,450,398s20-54,34-59m0-30a30,30,0,0,0-10.08,1.75c-14.49,5.17-25.85,18.7-39.23,46.69-1.89,4-3.65,7.87-5.23,11.48l-2.33-1.85a49.82,49.82,0,0,0-70,7.95L334,404.11a49.77,49.77,0,0,0-9.93,40.5L183,621.76a49.54,49.54,0,0,0-38,18.77l-23.15,29.09a49.87,49.87,0,0,0,7.95,70l152,121a49.79,49.79,0,0,0,70-8L375,823.59a49.88,49.88,0,0,0,9.78-41.25L516,617.48l-93.5,184.89a49.55,49.55,0,0,0-33.42,26.11l-16.78,33.18a49.83,49.83,0,0,0,22,66.94l173.38,87.68a49.81,49.81,0,0,0,66.93-22l16.78-33.18a49.64,49.64,0,0,0,3.48-36,48.69,48.69,0,0,0-2.27-6.34L743.78,738.4l-61,188a49.68,49.68,0,0,0-29,30.95l-11.48,35.36a49.82,49.82,0,0,0,32,62.76l184.8,60a49.79,49.79,0,0,0,62.76-32L933.34,1048a49.91,49.91,0,0,0-5.32-42l69.59-214.43a49.66,49.66,0,0,0,29.71-31.2L1038.8,725a49.82,49.82,0,0,0-9-47.14,62.76,62.76,0,0,0,9.85-13.8c4.42-8.2,8.21-18.5,11.58-31.47a343.14,343.14,0,0,0,7.59-40,30,30,0,0,0-22.89-32.77C897.24,527,759.42,462.18,668.22,413.54c-99.42-53-166.6-98.83-167.27-99.29A30,30,0,0,0,484,309Z" transform="translate(-111.05 -309)"/></svg>