<svg id="Work_Layer" data-name="Work Layer" xmlns="http://www.w3.org/2000/svg" xmlns:xlink="http://www.w3.org/1999/xlink" viewBox="0 0 1254 492.45"><defs><style>.cls-1{fill:#656565;}.cls-2{fill:#222;}.cls-3{fill:#8f8f8f;}.cls-4{fill:#5a555a;}.cls-5{fill:url(#linear-gradient);}.cls-6{fill:#636163;}.cls-7{fill:#373737;}.cls-8{opacity:0.2;}.cls-9{fill:#b3b3b3;}</style><linearGradient id="linear-gradient" x1="184.94" y1="771" x2="184.94" y2="574.76" gradientUnits="userSpaceOnUse"><stop offset="0" stop-color="#6b5131"/><stop offset="0.06" stop-color="#735737"/><stop offset="0.28" stop-color="#8c6c4a"/><stop offset="0.48" stop-color="#9c7956"/><stop offset="0.64" stop-color="#a17d5a"/></linearGradient></defs><path d="M822,979.45a23.14,23.14,0,0,1-5.52-.62,10.31,10.31,0,0,1-1.92-.71c-.61-.3-15.31-7.52-30.92-16-33.75-18.44-36.8-24-38.43-27-4.19-7.62-.55-17,11.6-45.67C765.5,868.93,777,841.92,781,820.18H762.37a12.79,12.79,0,0,1-12.44-11.32h-69a10,10,0,0,1-8.07-4.08L666,795.4H512.19c-21.31,0-30.42,9.34-37.07,16.16l-1.81,1.84c-.81,12.48-3.37,40.49-11,66.74,0,.13-.08.26-.13.39-6.16,18.31-3.1,33.26-.64,45.26,2.2,10.73,4.28,20.86-2.31,28.94S440.12,964,428.88,964c-7,0-15.55-.52-26.27-1.58-30.24-3-47.54-11.74-52.91-26.74-8.51-23.8,18.32-50.64,34.35-66.67l2.58-2.58c3.87-11.91,2.75-40.35,1-56.25a9.77,9.77,0,0,1-.06-1.08V771.82l-27.41-9.74a10,10,0,0,1-6.66-9.42v-7.39H338.78c-17.09,33-44.38,35.73-52.7,35.73H83.81C72.65,781,17,775.79,17,672.88S72.65,564.76,83.81,564.76H286.08c8.45,0,36.13,2.76,53.17,36.64h14.28v-6a10,10,0,0,1,6.13-9.22l28.42-11.93V574c0-24.67,20.75-33.62,34.7-33.62h23.36c7-8.08,12.8-14.65,17.28-19.56,10.36-11.36,13.06-13.8,18.11-13.8h64.75a10,10,0,0,1,9.61,12.76c0,.12-2.59,9-5.63,20.6H613c47.23,0,86.88,22.75,99.2,30.64H966a10,10,0,0,1,10,10v1.7h95V567a10,10,0,0,1,8-9.81l48.51-9.66a9.77,9.77,0,0,1,2-.2H1241a10,10,0,0,1,10,10V679a10,10,0,0,1-10,10H1129.51a9.86,9.86,0,0,1-1.63-.13l-48.51-8A10,10,0,0,1,1071,671v-6.34c-6.84,12.83-17.26,28.49-34,41.76-23.64,18.8-54.59,28.72-92,29.53l-50.47,68.83a9.82,9.82,0,0,1-.71.86V807c0,7.25-5.64,13.16-12.57,13.16H866.79a138.79,138.79,0,0,1-.94,19.94c-3,24.36-21.79,62.3-29.57,77.23,6.21,7.82,15.2,22.58,11.36,39.16C842.72,977.8,826.76,979.45,822,979.45ZM949.56,685c25.53-2,46.22-12.28,62.69-31H976v2.39a10,10,0,0,1-10,10H953.76Z" transform="translate(-7 -497)"/><path d="M546.28,517s-4.61,16-8.89,33.36H613c49.14,0,90.41,26.72,96.21,30.64H966v11.7h115V567l48.51-9.67H1241V679H1129.51L1081,671V644h-11.24c-1,2.47-2.14,4.93-3.29,7.38C1054.05,677.8,1026,726,940,726l-9.93.12-.08.33h9.57l-53.1,72.41h-2.64V807a2.91,2.91,0,0,1-2.57,3.16h-25a144.52,144.52,0,0,1-.35,28.7c-3.57,28.66-31.76,79.93-31.76,79.93s18,16.81,13.73,35.45c-3.07,13.29-11.39,15.19-15.92,15.19a13.43,13.43,0,0,1-3-.31s-59.76-29.31-65-38.84c-4.83-8.78,35.81-77.22,38.32-120.12h-29.9A2.91,2.91,0,0,1,759.8,807c0-2.82,0-5.53,0-8.16h-78.9L671,785.4H512.19c-31.33,0-41.47,17.71-48.64,23.39-.45,9.17-2.52,39.92-10.87,68.55-16.56,49.18,25.22,76.7-23.8,76.7-6.64,0-14.95-.5-25.29-1.53-86.68-8.59-26.11-62.28-8.35-80.54,7.31-17.18,2.36-62.83,2.36-62.83V764.76l-34.07-12.1V735.27H332.46c-12.94,30-34.72,35.73-46.38,35.73H83.81C66.52,771,27,758.38,27,672.88s39.52-98.12,56.81-98.12H286.08c11.78,0,33.87,5.86,46.76,36.64h30.69v-16l34.07-14.3V581h.48v-7c0-23.62,24.7-23.62,24.7-23.62h27.93C464.85,534,479.91,517,481.53,517h64.75M939.77,695.41c39.88,0,70.84-17.31,92.29-51.44H966v12.39H945.76l-6.27,27.87L937,695.37l2.79,0M546.28,497H481.53c-9.94,0-15.47,6.06-25.5,17.06-3.87,4.25-8.72,9.72-14.45,16.3h-18.8a51.79,51.79,0,0,0-21,4.91,40.59,40.59,0,0,0-23.29,32.14L355.79,577a20,20,0,0,0-11.49,13,75.56,75.56,0,0,0-24.75-25.39,64.68,64.68,0,0,0-33.47-9.76H83.81c-8.79,0-31.24,2.32-50,23.87C16,599.09,7,630.81,7,672.88s9,73.78,26.83,94.25C52.57,788.67,75,791,83.81,791H286.08c9.2,0,38.08-2.72,57.83-34.49a20,20,0,0,0,12.93,15l20.76,7.38v30.26a19.55,19.55,0,0,0,.12,2.16c2.29,21.3,1.83,41.39,0,50l-.7.7c-17.71,17.71-47.33,47.34-36.69,77.11,3.65,10.21,11.37,18.25,22.94,23.89,9.75,4.75,22.3,7.84,38.39,9.43,11.05,1.1,20,1.63,27.26,1.63,13.59,0,28.73-1.54,38.07-13,4.79-5.88,7-13.26,6.68-21.95a97,97,0,0,0-2.32-15.32c-2.34-11.39-5-24.3.32-40.06.09-.26.17-.52.25-.78,7.23-24.78,10.07-51,11.14-65.16,6.09-6.21,12.75-12.38,29.17-12.38H660.9l3.88,5.29a20,20,0,0,0,16.13,8.17H743a23,23,0,0,0,2.07,3,22.28,22.28,0,0,0,17.33,8.31h6c-5,18.22-13.82,38.93-20.79,55.36-4.15,9.79-7.74,18.24-10.22,25.24-3.22,9.1-6.21,19.59-.94,29.16,3.2,5.83,8.86,12.59,42.39,30.91,15.8,8.63,30.69,15.94,31.32,16.25a20.27,20.27,0,0,0,3.83,1.42,33.12,33.12,0,0,0,8,.93c13.69,0,30.17-8.06,35.41-30.68,4-17.26-2.71-32.38-9.37-42.35,9.13-18,24.83-51.61,27.76-75.06q.66-5.36.91-11.18h4.56c11.74,0,21.43-9.26,22.48-21l46.46-63.36c37.48-1.6,68.76-12.19,93.08-31.53A133.57,133.57,0,0,0,1069,687a19.91,19.91,0,0,0,8.77,3.74l48.51,8a19.62,19.62,0,0,0,3.25.27H1241a20,20,0,0,0,20-20V557.33a20,20,0,0,0-20-20H1129.51a19.79,19.79,0,0,0-3.91.39l-48.51,9.66A20,20,0,0,0,1061,567v5.7H984.2A20,20,0,0,0,966,561H715.06C699.71,551.57,660,530.36,613,530.36H563.31c1.31-4.76,2.17-7.76,2.19-7.83A20,20,0,0,0,546.28,497ZM984.5,664h.36l-.48.28.12-.28Z" transform="translate(-7 -497)"/><path class="cls-1" d="M425.13,580.36S478.4,517,481.53,517h64.75s-21.93,76.24-14.62,76.24Z" transform="translate(-7 -497)"/><path class="cls-2" d="M1040.59,628.49c-21.4,44.37-55.3,66.9-100.82,66.92l-83.56-1.12L856,727l84-1c86,0,114-48.2,126.47-74.65,3.56-7.57,6.66-15.24,9.36-22.86Z" transform="translate(-7 -497)"/><rect class="cls-1" x="753.11" y="95.7" width="376.62" height="51.27"/><path d="M452,840.33s0,23.88,63.22,23.88,73-73.05,73-73.05L452,785.55Z" transform="translate(-7 -497)"/><rect class="cls-3" x="505.19" y="84" width="181.69" height="153.81"/><path class="cls-4" d="M387,673.34h0c0-62.63-16-61.94-16-61.94h-58v61.94h0v61.93h58s16,.69,16-61.93Z" transform="translate(-7 -497)"/><path class="cls-3" d="M709.2,581c-5.8-3.92-47.07-30.64-96.21-30.64H422.78s-24.7,0-24.7,23.62v7h-.48v.09l-34.07,14.3V752.66l34.07,12.1v44.38h65.49c7.2-5.25,17.1-23.74,49.1-23.74V734.82H693.87V695.59H864.34v47.49h61.91l19.51-86.72H966V581Z" transform="translate(-7 -497)"/><path class="cls-5" d="M286.08,574.76H83.81C66.52,574.76,27,587.37,27,672.88S66.52,771,83.81,771H286.08c17.29,0,56.81-12.62,56.81-98.12S303.37,574.76,286.08,574.76Z" transform="translate(-7 -497)"/><path class="cls-6" d="M288.39,652.44c-3.2-6.48-11.1-10.77-19.94-10.77H101.91c-8.85,0-16.75,4.29-19.94,10.77a46.58,46.58,0,0,0,0,41.79C85.16,700.71,93.06,705,101.91,705H268.45c8.84,0,16.74-4.29,19.94-10.77a46.58,46.58,0,0,0,0-41.79Z" transform="translate(-7 -497)"/><rect class="cls-3" x="459.77" y="201.69" width="143.49" height="86.71"/><path class="cls-7" d="M397.6,809.14s4.95,45.65-2.36,62.83c-17.76,18.26-78.33,71.95,8.35,80.54s30.29-19.33,49.09-75.17c10-34.13,11-71.29,11-71.29Z" transform="translate(-7 -497)"/><polygon class="cls-3" points="1122.51 60.33 1074 70 1074 174 1122.51 182 1122.51 60.33"/><path class="cls-8" d="M945.76,656.36H363.53v96.3l34.07,12.1v44.38h65.49c7.2-5.25,17.1-23.74,49.1-23.74V734.82H693.87V695.59H864.34v47.49h61.91l13.24-58.85h0Z" transform="translate(-7 -497)"/><rect class="cls-3" x="1122.51" y="60.33" width="111.49" height="121.67"/><path class="cls-7" d="M869.37,695.59H430.63L363.53,732v20.64l34.07,12.1v44.38h65.49c7.2-5.25,17.1-23.74,49.1-23.74H766.14V773H869.37V743.08h56.91l.37-2.33Z" transform="translate(-7 -497)"/><path class="cls-1" d="M674.15,598.55H417.94a1.76,1.76,0,0,0-1.76,1.76v22.3a1.76,1.76,0,0,0,1.76,1.75H673.57a1.76,1.76,0,0,0,1.76-1.71l.57-22.3A1.76,1.76,0,0,0,674.15,598.55Z" transform="translate(-7 -497)"/><polygon class="cls-3" points="776.68 229.45 932.57 229.45 879.46 301.86 776.68 301.86 673.91 301.86 620.81 229.45 776.68 229.45"/><path class="cls-7" d="M767.28,740h109.2c7.32,0,7.34,21.08,7.34,67a2.91,2.91,0,0,1-2.57,3.16H762.37A2.91,2.91,0,0,1,759.8,807C759.81,761.11,760,740,767.28,740Z" transform="translate(-7 -497)"/><polygon class="cls-1" points="746.15 252.08 746.15 269.05 662.17 269.05 646.73 252.08 746.15 252.08"/><path class="cls-7" d="M792,799.9C797,841.09,748.71,920.78,754,930.3s65,38.84,65,38.84,14.64,3.76,18.95-14.88-13.73-35.45-13.73-35.45,28.19-51.27,31.76-79.93-4.74-61.49-4.74-61.49S787.14,758.71,792,799.9Z" transform="translate(-7 -497)"/><rect class="cls-1" x="1136.69" y="104.3" width="83.79" height="34.59" rx="14.99"/><path class="cls-1" d="M1143.69,557.33v.1c0,9.37,5.93,17,13.24,17h57.31c7.31,0,13.24-7.6,13.24-17v-.1Z" transform="translate(-7 -497)"/><path class="cls-1" d="M1214.24,661.51h-57.31c-7.31,0-13.24,7.6-13.24,17V679h83.79v-.52C1227.48,669.11,1221.55,661.51,1214.24,661.51Z" transform="translate(-7 -497)"/><path class="cls-1" d="M421.24,715.62c30.75.11,109.13.89,196.43,1.83l.45-44.21H421.24Z" transform="translate(-7 -497)"/><rect class="cls-9" x="578.85" y="684.79" width="21.76" height="21.76" rx="7.94" transform="translate(-4.57 -499.05) rotate(0.2)"/><rect class="cls-9" x="532.4" y="684.79" width="21.76" height="21.76" rx="7.94" transform="translate(-4.57 -498.89) rotate(0.2)"/><rect class="cls-9" x="485.95" y="684.79" width="21.76" height="21.76" rx="7.94" transform="translate(-4.57 -498.73) rotate(0.2)"/><rect class="cls-9" x="439.49" y="684.79" width="21.76" height="21.76" rx="7.94" transform="translate(-4.57 -498.56) rotate(0.2)"/></svg>