<svg id="Layer_3" data-name="Layer 3" xmlns="http://www.w3.org/2000/svg" viewBox="0 0 1234.56 461.54"><defs><style>.cls-1{fill:#222;}.cls-2{fill:#656565;}.cls-3{fill:#8f8f8f;}.cls-4{fill:#373737;}.cls-5{fill:#666564;}.cls-6{fill:#9c9;}.cls-7{fill:#b3b3b3;}.cls-8{opacity:0.25;}</style></defs><path d="M517.25,935.54a15.87,15.87,0,0,1-11.42-5c-14-14.07-19.33-66.33-19.23-191.66l-6.18-.07-42.21-.45c-8.4,14.26-23,40.79-41.55,81.36q-.29.87-.54,1.71l-.22.79c-.14.45-.27.91-.39,1.36l-.28,1.13-.24,1-.26,1.2c-.06.3-.13.59-.18.88l-.21,1.17q-.09.42-.15.84l-.18,1.15-.12.86-.13,1.08c0,.3-.07.59-.1.88l-.09,1c0,.31-.06.63-.08.94l-.05,1-.06.92,0,.82,0,1.05v.81c0,.34,0,.69,0,1l0,.76c0,.35,0,.7,0,1.05l0,.57.06,1.23,0,.51q0,.63.09,1.26l0,.4c0,.47.08.91.12,1.34l.05.39c0,.43.09.89.15,1.34l0,.24c.07.52.13,1,.2,1.46l0,.19c.07.47.15,1,.22,1.46v.06c.53,3.31,1.16,6.39,1.77,9.38,1.11,5.44,2.07,10.13,2.08,14.66,0,.56,0,1.08,0,1.58a.62.62,0,0,0,0,.13c0,.48-.07,1-.12,1.48a.77.77,0,0,0,0,.15c-.06.53-.14,1-.24,1.55l0,.18c-.1.49-.21,1-.35,1.48,0,.09-.05.18-.07.27-.15.51-.31,1-.49,1.49l-.13.33c-.17.45-.39,1-.62,1.43L396,888c-.25.49-.53,1-.81,1.42l-.2.31c-.28.43-.6.88-.95,1.32l-.22.27c-.35.43-.72.84-1.1,1.23-.07.07-.18.19-.3.3-.35.35-.76.71-1.18,1.06l-.32.26c-.41.32-.83.63-1.27.93l-.35.24c-.43.27-.88.54-1.35.8l-.31.17c-.49.26-.94.48-1.41.69l-.34.15c-.52.23-1,.42-1.49.6l-.38.14c-.48.16-1,.33-1.47.48l-.42.12c-.49.14-1,.27-1.51.4l-.36.08c-.56.13-1.08.24-1.63.34l-.44.08c-.53.1-1.07.19-1.63.27l-.36,0c-.63.09-1.2.16-1.8.22l-.36,0c-.65.07-1.25.12-1.88.17l-.44,0c-.64,0-1.27.09-1.93.12l-.48,0c-.64,0-1.31.06-2,.07h-.46c-.71,0-1.42,0-2.16,0h-.44c-.75,0-1.52,0-2.31,0h-.46l-2.42-.06h-.46l-2.59-.11-.38,0-2.83-.15-.32,0-3.06-.21h-.24l-3.31-.26h-.15c-2.19-.18-4.5-.39-6.95-.64-29.42-2.91-46.27-11.45-51.51-26.11-8.31-23.24,17.77-49.32,33.34-64.9l2.37-2.37c2.11-7.78,2.79-30.87,0-68.19-14.16-.11-25.15-.19-32.75-.21a10.9,10.9,0,0,1-1.82-.18h-4.66c-54.29,0-93.58,92.52-94,93.46a10,10,0,0,1-9.23,6.15H53.92a10,10,0,0,1-7-2.81c-19.3-18.62-6.63-58.37-3-68.29V668.54c-.44-.94-.88-1.86-1.3-2.78-22.88-49.22-28-84.39-15.34-104.52,7.76-12.3,20.33-15.69,26.54-15.75H194.57c18.46,0,32.07,20.19,37.91,30.69h14.67c6.92-15,24.71-19.24,34.46-19.24h92.51c45.49-53.58,47.08-53.58,52.67-53.58h62.73a10,10,0,0,1,9.61,12.77c-.08.25-6.17,21.49-10.64,40.81h3.56c53.84,0,98.89,23.8,110,30.16H781.38a10,10,0,0,1,10,10v.39l11.85.54h250.84l83.31-100.42a10,10,0,0,1,7.7-3.61h61.71a10,10,0,0,1,10,10v94H1225a10,10,0,0,1,10,10v39.52a10,10,0,0,1-10,10h-40.86c-4.77,23.61-14.68,55.4-35.27,85.82a193.5,193.5,0,0,1-70.15,63.29c-32.61,17.3-71.31,26.08-115,26.08l-96.3-.89c-1.1,27.28-2.88,48.31-5.42,64.08-3.16,19.59-8.47,39.61-23.88,39.61ZM963.89,770.45c60.66,0,105.58-20.88,133.39-62a168.28,168.28,0,0,0,22.87-50.91H813v29.14h45.65a10,10,0,0,1,10,10c0,6.29,0,13.35.05,21,0,15.79.11,33.38,0,51.88Zm201.54-193.23V555.61H1160l-16.19,21.61Z" transform="translate(-10.44 -484)"/><path d="M1206.79,504V608H1225v39.52h-49.19c-4.18,25.05-13.71,58.44-35.22,90.22A183.64,183.64,0,0,1,1074,797.83c-31.15,16.53-68.28,24.91-110.33,24.91h-.2l-105.74-1C856,876.91,851,925.54,838.1,925.54H517.25c-20.3,0-20.86-119.72-20.63-196.52l-16.08-.19-48-.51c-8.31,13.69-24.29,41.91-45.23,87.76-.29.84-.55,1.67-.8,2.5l-.21.75q-.25.85-.48,1.71c-.09.31-.16.62-.24.93-.12.5-.25,1-.36,1.49-.08.32-.14.64-.21,1s-.21.94-.3,1.41-.12.65-.18,1-.17.92-.24,1.37-.1.64-.15,1c-.06.46-.14.91-.2,1.36s-.07.61-.1.91c-.06.45-.11.91-.16,1.35s0,.59-.08.88c0,.45-.08.9-.11,1.35,0,.28,0,.56,0,.83,0,.45-.06.91-.08,1.36,0,.27,0,.53,0,.8,0,.45,0,.9,0,1.34v.75c0,.46,0,.91,0,1.36,0,.24,0,.47,0,.7,0,.46,0,.92,0,1.37l0,.64c0,.47,0,.93.07,1.39,0,.19,0,.38,0,.57,0,.47.06.95.1,1.42,0,.16,0,.32.05.49,0,.49.09,1,.14,1.46,0,.14,0,.27,0,.41.06.51.11,1,.18,1.51,0,.1,0,.2,0,.31.06.52.13,1,.21,1.57a1.1,1.1,0,0,0,0,.18c.08.56.17,1.12.25,1.67h0c1.46,9.28,3.71,16.81,3.72,22.51v0c0,.35,0,.69,0,1v.06c0,.32-.05.63-.08.94v.09c0,.3-.08.59-.13.88l0,.1c-.06.28-.12.55-.19.82a.76.76,0,0,0,0,.11,6.91,6.91,0,0,1-.25.77l0,.12c-.1.24-.2.48-.31.71l-.07.13a7.08,7.08,0,0,1-.38.66.57.57,0,0,1-.08.13c-.14.21-.28.42-.44.62l-.11.13q-.24.28-.51.57l-.13.13c-.18.18-.38.35-.58.52l-.16.13c-.21.16-.43.33-.66.48l-.18.12c-.23.15-.48.3-.74.44l-.2.11c-.27.14-.54.28-.83.41l-.23.1c-.29.13-.6.25-.91.37l-.26.09-1,.33-.29.08c-.35.1-.72.2-1.1.29l-.31.07c-.39.09-.79.18-1.21.26l-.34.06c-.42.07-.86.15-1.32.21l-.35,0c-.47.07-.94.13-1.44.18l-.38,0-1.56.14-.39,0-1.69.11h-.42l-1.82.07h-.42l-2,0h-.41c-.7,0-1.41,0-2.15,0h-.41l-2.31-.06-.41,0c-.81,0-1.64-.06-2.49-.1l-.37,0-2.71-.14-.31,0-2.95-.2-.24,0c-1-.07-2.11-.16-3.21-.25h-.11c-2.17-.18-4.43-.38-6.82-.62-84-8.32-25.29-60.33-8.09-78,5.85-13.74,2-65.82.53-83.52-17.94-.16-32.35-.26-42-.29v-.17l-6.52,0c-61.7,0-103.2,99.61-103.2,99.61H53.92c-16.71-16.13,0-59.3,0-59.3V666.28q-1.16-2.4-2.23-4.73C2.63,556,53.92,555.49,53.92,555.49H194.57c17.79,0,31.8,30.69,31.8,30.69h28.19c2.74-19.23,27.06-19.24,27.06-19.24h97.14c14-16.53,45.67-53.58,48-53.58h62.73s-9.12,31.71-13.42,53.58h15.95c58.67,0,107.23,30.16,107.23,30.16h182.1V607L803,608h255.76l86.32-104h61.71m-83,83.22h51.6V545.61H1155l-31.16,41.61M803,696.69h55.65c0,21.29.28,51.39,0,82.78l105.18,1c64.28,0,112-22.36,141.76-66.38,15.48-22.87,23.28-47.17,27.21-66.52H803v49.14M1206.79,484h-61.71a20,20,0,0,0-15.39,7.23L1049.37,588H803.45l-4.34-.2a20,20,0,0,0-17.73-10.73H604.62c-14-7.74-54.62-27.67-103.47-30,3.75-14.9,7.53-28.06,7.59-28.26a20,20,0,0,0-19.22-25.53H426.79c-9.45,0-15.1,6-21.08,12.33-3.38,3.58-7.95,8.64-13.58,15.05-7.49,8.51-15.74,18.12-22.62,26.2H281.62a59.55,59.55,0,0,0-19.52,3.68,43.14,43.14,0,0,0-20.64,15.56h-3.31c-1.45-2.31-3.11-4.8-5-7.31-11.58-15.51-24.57-23.38-38.6-23.38H53.72C43.5,535.6,28.23,541,18.83,555.9,4,579.42,8.8,616.74,33.55,670l.37.79v93a153.82,153.82,0,0,0-6,23.85C24,811.42,28.1,829.36,40,840.87a20,20,0,0,0,13.89,5.61H180.56A20,20,0,0,0,199,834.17a258.71,258.71,0,0,1,26.6-46.31c13.68-18.7,34.87-41,58.14-41h3.86a22.08,22.08,0,0,0,2.59.18c5.84,0,13.69.06,23.44.14,1.82,28.66,1.29,46.12.17,53.3l-.26.26c-6.83,6.83-17.16,17.17-25,28.39-12,17.21-15.64,33-10.65,47,3.59,10,11.17,18,22.54,23.5,9.51,4.64,21.74,7.64,37.4,9.2,2.42.24,4.76.45,7.14.65h.13l3.38.26.27,0,3.15.21H352l.25,0,3,.16h.06l.36,0,2.73.11h.43l2.62.06h.47c.83,0,1.65,0,2.45,0h.48c.8,0,1.57,0,2.33,0h.49l2.22-.08h.07l.43,0,2.15-.13h.05l.46,0c.71,0,1.39-.11,2.06-.18h.05l.44,0c.72-.08,1.38-.17,2-.26h0l.49-.07c.68-.1,1.33-.21,2-.32l.54-.1c.6-.11,1.23-.25,1.91-.4l.51-.12c.64-.15,1.28-.32,1.94-.51l.57-.16c.62-.19,1.24-.39,1.89-.62l.52-.19c.65-.24,1.28-.49,2-.78l.51-.23c.65-.29,1.31-.62,2-1l.55-.29c.61-.34,1.27-.74,1.91-1.15l.48-.32q1-.66,1.92-1.41c.15-.12.32-.25.48-.39.6-.49,1.21-1,1.8-1.62l.42-.41c.58-.6,1.15-1.23,1.68-1.88.12-.15.25-.3.37-.46.51-.64,1-1.34,1.48-2l.28-.44c.44-.7.86-1.45,1.25-2.2l.2-.41c.37-.75.7-1.51,1-2.28l.14-.36c.29-.77.54-1.54.76-2.31l.09-.34c.2-.73.37-1.48.52-2.23v-.06l0-.2q.19-1.11.33-2.19v-.18c.08-.72.14-1.43.18-2.14v-.11h0c0-.68.06-1.38,0-2.07v-.08c0-5.51-1.12-10.9-2.29-16.6-.58-2.88-1.19-5.85-1.68-8.93v-.06c-.06-.42-.13-.88-.2-1.34l0-.19v0c-.06-.42-.12-.85-.17-1.28l0-.23c-.06-.42-.1-.82-.14-1.23l0-.27v-.08c0-.36-.08-.75-.11-1.13l0-.3v-.12c0-.33-.05-.7-.08-1.08l0-.3v-.13c0-.35,0-.71-.05-1.06l0-.34v-.16c0-.34,0-.68,0-1v-.54c0-.29,0-.59,0-.89v-.69c0-.27,0-.56,0-.85V838c0-.24,0-.51,0-.77V837l0-.41v-.21l.06-.72,0-.26,0-.43,0-.22c0-.23.05-.46.08-.69l0-.3,0-.45,0-.23c0-.2.07-.42.1-.65l.05-.33.07-.46,0-.25c0-.2.08-.42.12-.65l.06-.34.09-.49,0-.23c.05-.21.1-.44.15-.66l.07-.37.11-.5.05-.23c.05-.23.12-.49.18-.74l.09-.34.13-.52.05-.21c.09-.33.2-.7.3-1.07l.05-.16.15-.55,0-.08.27-.88c16.29-35.58,29.44-60.12,37.94-74.94l32.66.35c0,34,.41,68.53,2.11,99.13,3.4,61.16,10.47,80.09,20.05,89.7a26.07,26.07,0,0,0,18.5,7.92H838.1c6.69,0,19-2.68,26.68-20.62,2.87-6.75,5.19-15.71,7.07-27.4,2.29-14.22,4-32.52,5.11-55.58l86.36.8h.38c45.36,0,85.63-9.17,119.71-27.25A203.45,203.45,0,0,0,1157.16,749c19.23-28.42,29.52-57.93,35-81.43H1225a20,20,0,0,0,20-20V608a20,20,0,0,0-18.21-19.93V504a20,20,0,0,0-20-20ZM823,667.55h283.6a153.3,153.3,0,0,1-17.6,35.31c-25.83,38.17-67.92,57.55-125.11,57.59l-85.15-.79c0-14.9,0-29.06,0-42,0-7.56-.05-14.69-.05-21a20,20,0,0,0-20-20H823v-9.14Z" transform="translate(-10.44 -484)"/><path class="cls-1" d="M963.7,822.74h-.2l-116.69-1.08.4-42.29,116.59,1.08c64.28,0,112-22.36,141.76-66.38,29.65-43.81,31.15-92.89,31.15-102.29H1179c0,16.24-2.77,73.32-38.41,126A183.64,183.64,0,0,1,1074,797.83C1042.88,814.36,1005.75,822.74,963.7,822.74Z" transform="translate(-10.44 -484)"/><path class="cls-2" d="M331.7,721.41s7.08,72.82,0,89.46c-17.2,17.69-75.88,69.7,8.09,78s29.34-18.72,47.55-72.81c31.36-68.66,51.59-97.79,51.59-97.79Z" transform="translate(-10.44 -484)"/><path class="cls-3" d="M1145.08,504,1051,617.39h155.8V504Zm30.35,83.22h-51.6L1155,545.61h20.44Z" transform="translate(-10.44 -484)"/><path class="cls-1" d="M803,732.86V608L321.21,586.18H226.37s-14-30.69-31.8-30.69H53.92s-52.82.52,0,110.79v100.9s-16.71,43.17,0,59.3H180.56s41.5-99.61,103.2-99.61S803,732.86,803,732.86Z" transform="translate(-10.44 -484)"/><rect class="cls-2" x="792.56" y="124.03" width="422" height="39.53"/><path class="cls-4" d="M438.93,718.29l-41.25,1.2C378,760,339.78,844.94,343.09,889.21c79.2,7.27,26.28-19.77,44.25-73.13C418.7,747.42,438.93,718.29,438.93,718.29Z" transform="translate(-10.44 -484)"/><path class="cls-2" d="M372.16,574.74s51.6-61.38,54.63-61.38h62.73s-21.25,73.86-14.17,73.86Z" transform="translate(-10.44 -484)"/><polygon points="740.09 181.24 586.32 181.24 586.32 233.25 739.7 233.25 740.09 181.24"/><path class="cls-3" d="M290.28,727.06c29.79.11,105.71.86,190.28,1.77L481,686H290.28Z" transform="translate(-10.44 -484)"/><path class="cls-3" d="M254.3,658.48V589.82c0-22.88,27.32-22.88,27.32-22.88H492.05c58.67,0,107.23,30.16,107.23,30.16h182.1v72.82H254.3Z" transform="translate(-10.44 -484)"/><path class="cls-5" d="M858.65,696.69H496.7c0,68.65-2.93,228.85,20.55,228.85H838.1C861.58,925.54,858.65,765.34,858.65,696.69Z" transform="translate(-10.44 -484)"/><rect class="cls-6" x="624.78" y="263.14" width="15.18" height="146.68"/><rect class="cls-6" x="690.54" y="263.14" width="18.21" height="146.68"/><rect class="cls-6" x="562.06" y="263.14" width="15.18" height="146.68"/><rect class="cls-6" x="593.42" y="263.14" width="15.18" height="146.68"/><rect class="cls-6" x="656.14" y="263.14" width="18.21" height="146.68"/><rect class="cls-6" x="526.14" y="263.14" width="19.73" height="146.68"/><rect class="cls-6" x="724.94" y="263.14" width="15.18" height="146.68"/><rect class="cls-6" x="786.65" y="263.14" width="23.77" height="146.68"/><rect class="cls-6" x="756.3" y="263.14" width="14.16" height="146.68"/><path class="cls-7" d="M834.06,709.49H521.14c-1.63,0-2.94,1-2.94,2.25v19c0,1.24,1.31,2.25,2.94,2.25H833.4c1.6,0,2.9-1,2.94-2.19l.66-19C837,710.53,835.72,709.49,834.06,709.49Z" transform="translate(-10.44 -484)"/><polygon class="cls-1" points="666.84 185.92 687.52 185.92 687.56 113.1 666.84 113.1 666.84 185.92"/><polygon class="cls-1" points="709.84 185.92 729.52 185.92 729.56 113.1 709.84 113.1 709.84 185.92"/><polygon class="cls-1" points="610.84 185.92 647.49 185.92 647.56 113.1 610.84 113.1 610.84 185.92"/><path class="cls-2" d="M544.89,606H296.7a1.7,1.7,0,0,0-1.7,1.7v21.6a1.7,1.7,0,0,0,1.7,1.7H544.34a1.7,1.7,0,0,0,1.7-1.66l.55-21.6A1.7,1.7,0,0,0,544.89,606Z" transform="translate(-10.44 -484)"/><path class="cls-8" d="M254.3,645v24.92H781.38V645Z" transform="translate(-10.44 -484)"/><rect class="cls-7" x="442.96" y="697.2" width="21.08" height="21.08" rx="7.69" transform="translate(-7.97 -485.58) rotate(0.2)"/><rect class="cls-7" x="397.96" y="697.2" width="21.08" height="21.08" rx="7.69" transform="translate(-7.97 -485.42) rotate(0.2)"/><rect class="cls-7" x="352.96" y="697.2" width="21.08" height="21.08" rx="7.69" transform="translate(-7.97 -485.26) rotate(0.2)"/><rect class="cls-7" x="307.96" y="697.2" width="21.08" height="21.08" rx="7.69" transform="translate(-7.97 -485.11) rotate(0.2)"/><path class="cls-2" d="M58.78,579H166.69a3.79,3.79,0,0,1,3.37,2L184.94,610a3.79,3.79,0,0,0,3.37,2h47.91a3.78,3.78,0,0,1,3.78,3.78v13.44a3.78,3.78,0,0,1-3.78,3.78H170.11a3.8,3.8,0,0,1-3.22-1.79l-18.8-30.44a3.77,3.77,0,0,0-3.17-1.79L58.74,598A3.78,3.78,0,0,1,55,594.26V582.78A3.78,3.78,0,0,1,58.78,579Z" transform="translate(-10.44 -484)"/><path class="cls-2" d="M236.22,657H49.61c1.35,3,2.78,6.09,4.31,9.28V678h182.3a3.78,3.78,0,0,0,3.78-3.78V660.78A3.78,3.78,0,0,0,236.22,657Z" transform="translate(-10.44 -484)"/></svg>