<svg id="Layer_2" data-name="Layer 2" xmlns="http://www.w3.org/2000/svg" xmlns:xlink="http://www.w3.org/1999/xlink" viewBox="0 0 1280 1280"><defs><style>.cls-1{fill:#817f79;}.cls-2{fill:#4f554f;}.cls-3{fill:#4a4942;}.cls-4,.cls-8{fill:#63453b;}.cls-5{fill:url(#radial-gradient);}.cls-6{fill:url(#linear-gradient);}.cls-7{opacity:0.19;}.cls-8{opacity:0.53;}.cls-9{fill:#635d5a;}</style><radialGradient id="radial-gradient" cx="549.72" cy="649.5" r="211.86" gradientTransform="translate(0 -203.74) scale(1 1.31)" gradientUnits="userSpaceOnUse"><stop offset="0.07" stop-color="#7d7d7d"/><stop offset="0.54" stop-color="#555"/><stop offset="0.94" stop-color="#363636"/></radialGradient><linearGradient id="linear-gradient" x1="669.5" y1="1160.26" x2="669.5" y2="690.22" gradientUnits="userSpaceOnUse"><stop offset="0.07" stop-color="#453f26"/><stop offset="0.08" stop-color="#494227"/><stop offset="0.17" stop-color="#786d3b"/><stop offset="0.25" stop-color="#9b8c49"/><stop offset="0.31" stop-color="#b09f52"/><stop offset="0.35" stop-color="#b8a655"/><stop offset="0.44" stop-color="#b3a253"/><stop offset="0.53" stop-color="#a6954d"/><stop offset="0.64" stop-color="#8f8142"/><stop offset="0.74" stop-color="#6f6433"/><stop offset="0.85" stop-color="#463f20"/><stop offset="0.96" stop-color="#15130a"/><stop offset="1"/></linearGradient></defs><rect class="cls-1" x="205" y="919" width="168" height="121" transform="translate(-72.09 24.22) rotate(-4.27)"/><rect class="cls-1" x="971" y="919" width="90" height="121" transform="matrix(0.98, -0.2, 0.2, 0.98, -177.05, 225.64)"/><rect class="cls-2" x="388" y="693" width="81" height="154" transform="translate(-214.05 166.97) rotate(-17.72)"/><rect class="cls-2" x="800.82" y="690.96" width="80" height="155.11" transform="translate(151.76 -138.57) rotate(10.35)"/><rect class="cls-2" x="800" y="780" width="181" height="275"/><rect class="cls-3" x="118" y="999" width="387" height="121"/><rect class="cls-3" x="938" y="999" width="181" height="121"/><path class="cls-4" d="M128,1069c4-1,39,24,41,23s33-86,37-82,13,63,16,64,18-14,21-16,2,28,4,29,42-16,44-9,29,57,21,57-207-3-207-3S124,1070,128,1069Z"/><polygon class="cls-4" points="933 795 890 775 882 745 862 759 846 712 831 755 796 756 808.45 799.44 779.5 856.5 825.5 829.5 832.5 881.5 856.5 852.5 898.5 863.5 891.05 804.64 933 795"/><path class="cls-5" d="M649.5,599.5c-147.93,0-129.8,213-129.8,262H779.3C779.3,812.5,797.43,599.5,649.5,599.5Z"/><rect class="cls-6" x="399" y="821" width="541" height="299" transform="translate(-52.53 38.42) rotate(-3.16)"/><rect class="cls-7" x="479.26" y="830.38" width="41" height="299" transform="translate(-53.3 29.07) rotate(-3.16)"/><rect class="cls-7" x="399.39" y="835.29" width="23" height="299" transform="translate(-53.71 24.17) rotate(-3.16)"/><path class="cls-4" d="M971.79,1125.45c-.55-1.3,35.5-19,45.63-26.66s35.4-38.24,38.64-39.61,32.85-8.94,35.77-11.13,9.91-18.15,11.48-18.06-.62,27.42,1.43,38.58,15.81,58.06,14.52,58.6-44.15-24.79-55.06-24.4-30.83,15.82-41.56,18.78S972.34,1126.74,971.79,1125.45Z"/><path class="cls-4" d="M493.84,850.82c1.88,1.08,18.35,94.26,18.35,94.26L573.57,877s97.14,1.78,120.29-26.38c9.14-11.11,15.29-26,19.24-32.21L417.73,834.69c-4.85,6.34-8,10.71-7.75,11.62C411,850.44,492,849.73,493.84,850.82Z"/><path class="cls-8" d="M686.27,611.42c.11-.94-2.23-4.27-6-9.19a129.21,129.21,0,0,0-31.74-3.73c-95.37,0-121.71,88.52-128.4,164.56l10.72,26.4s2.83-53,6.14-55.67,38.89,30.45,42.1,28.79c1.92-1-14.76-85.13-14.32-89.1s27.83-15.24,30.13-17.81c5.74-6.41,8.15-28.28,11.79-33.91C619.46,606.07,685.72,616.39,686.27,611.42Z"/><path class="cls-9" d="M207.24,931.35c4.91,3,22.58,18.58,29.56,19.06s42.81-22.64,47.83-18.51,25.51,36.77,31.23,36.21,16.8-40.88,21-44.76,27.45-2.67,29.29-7.47c.81-2.11-1.42-10.19-4.17-18.57l-164,16C201.72,922.38,205.33,930.19,207.24,931.35Z"/><path d="M649.5,599.5c1.65,0,3.26,0,4.87.09l1,0c1.56.07,3.11.15,4.63.26l.73.06c1.39.11,2.76.24,4.11.38l.78.09c1.47.17,2.92.36,4.35.58l.94.14c1.41.23,2.82.47,4.2.74l.15,0c1.41.27,2.81.58,4.18.91l.91.21c1.35.33,2.68.67,4,1.05l.59.17c1.19.35,2.37.71,3.54,1.09l.7.23c1.27.42,2.51.87,3.74,1.33l.78.3c1.19.46,2.36.93,3.51,1.42l.24.1c1.2.53,2.38,1.07,3.55,1.63l.79.38c1.15.56,2.28,1.14,3.4,1.74l.45.25c1,.56,2,1.13,3,1.72l.64.37q1.6,1,3.15,2l.66.43c1,.66,2,1.32,2.9,2l.28.2c1,.73,2,1.48,3,2.24l.66.52c1,.77,1.93,1.55,2.86,2.35.12.09.23.19.34.29.86.74,1.71,1.5,2.55,2.27l.55.5c.89.83,1.77,1.68,2.63,2.53l.54.54c.8.81,1.59,1.64,2.37,2.47l.29.31q1.24,1.35,2.46,2.76l.55.64c.8.94,1.59,1.88,2.36,2.85l.24.3c.72.91,1.42,1.82,2.12,2.75l.47.62c.73,1,1.45,2,2.15,3,.14.21.28.42.43.62.64.94,1.28,1.89,1.9,2.85.1.13.19.27.28.41.68,1,1.34,2.11,2,3.18l.45.74c.65,1.08,1.29,2.17,1.91,3.27l.15.26c.59,1.05,1.17,2.11,1.74,3.17.13.24.26.48.38.72.59,1.11,1.17,2.23,1.73,3.36l.32.66c.52,1,1,2.09,1.51,3.14.08.18.17.35.25.52.53,1.16,1.06,2.33,1.57,3.51.12.26.23.53.35.8.51,1.19,1,2.39,1.52,3.6l.07.19c.48,1.17.94,2.35,1.39,3.53.11.26.21.53.31.79.46,1.21.9,2.42,1.34,3.64l.24.68c.4,1.11.78,2.23,1.16,3.36l.21.6c.41,1.24.81,2.48,1.2,3.73.09.28.18.56.26.85q.6,1.9,1.17,3.84v.06c.38,1.28.74,2.56,1.09,3.84.08.28.15.57.23.85.34,1.27.68,2.54,1,3.82,0,.22.11.44.16.66q.45,1.75.87,3.51c0,.22.1.44.16.67.3,1.28.6,2.57.88,3.87.07.28.13.57.19.85.29,1.3.56,2.61.83,3.91l0,.08c.27,1.33.53,2.67.79,4,.06.29.11.57.16.86.25,1.31.49,2.62.72,3.92,0,.2.07.4.11.6.21,1.2.41,2.41.61,3.61l.12.7c.21,1.31.41,2.62.61,3.92l.12.83c.2,1.29.38,2.58.56,3.87l0,.17c.18,1.34.36,2.68.53,4,0,.28.07.56.1.84.17,1.31.33,2.63.48,3.94l.06.51c.14,1.22.27,2.44.4,3.65,0,.23,0,.46.07.68q.21,1.95.39,3.9c0,.26,0,.51.07.77.12,1.26.24,2.53.35,3.79,0,.07,0,.14,0,.2.12,1.32.22,2.63.32,3.93l.06.8c.1,1.3.2,2.59.28,3.87l0,.37c.08,1.22.15,2.42.23,3.63,0,.22,0,.43,0,.65l.21,3.79,0,.65c.06,1.22.12,2.43.17,3.64,0,.08,0,.16,0,.24.05,1.26.1,2.52.15,3.76,0,.24,0,.48,0,.71.05,1.24.09,2.48.13,3.7a2.09,2.09,0,0,0,0,.25l.09,3.51c0,.2,0,.4,0,.59,0,1.2.05,2.39.07,3.58,0,.17,0,.35,0,.53,0,1.16,0,2.32.05,3.46v.17c0,1.19,0,2.37,0,3.54v.57c0,1.17,0,2.33,0,3.48l11.85-.66L815.4,685l78.7,14.37L879.38,780H981V925l66.84-13.8L1066,999h53v121H938v-14.61l-170.45,9.42-336.92,18.62-23,1.27-.81-14.7H118V999h88.22l-5.49-73.58,167.53-12.5L374.69,999h25.47l-9-162.85,15.69-.86L366.48,709l77.16-24.65,46.77,146.34,28.68-1.59Q519,823.77,519,818v-4.2q0-3.82.07-7.8c0-.14,0-.27,0-.4,0-1.28,0-2.56.06-3.85,0-.16,0-.31,0-.46q.09-4,.22-8c0-.17,0-.33,0-.49l.15-4,0-.63q.08-2,.18-4a2.64,2.64,0,0,1,0-.29q.09-2,.21-4c0-.15,0-.29,0-.43.08-1.35.16-2.7.25-4.06,0-.25,0-.5,0-.75.09-1.35.19-2.71.29-4.07,0-.19,0-.38,0-.57.1-1.34.21-2.68.32-4l0-.33c.12-1.39.24-2.77.37-4.16,0-.27,0-.53.08-.79.13-1.36.26-2.73.4-4.09,0-.25.06-.5.08-.75.15-1.41.31-2.81.47-4.22v-.08c.17-1.42.34-2.84.52-4.26,0-.26.07-.53.1-.79.18-1.37.36-2.73.55-4.1l.12-.85c.2-1.4.41-2.8.62-4.19,0-.14,0-.28.07-.42.2-1.33.42-2.66.64-4l.12-.72c.23-1.37.47-2.74.71-4.1.06-.3.11-.6.17-.9.25-1.38.51-2.75.78-4.12l.12-.63c.26-1.3.53-2.6.8-3.9,0-.19.09-.39.13-.59.29-1.36.59-2.72.9-4.07l.21-.92c.31-1.34.63-2.68,1-4,.07-.26.13-.52.2-.78.33-1.31.66-2.61,1-3.91l.09-.36c.36-1.35.74-2.7,1.13-4l.24-.87c.38-1.3.77-2.61,1.17-3.9.09-.28.17-.56.26-.84.42-1.34.84-2.68,1.28-4,0-.11.07-.21.11-.31.42-1.26.85-2.52,1.3-3.78l.27-.77c.46-1.27.92-2.53,1.4-3.78l.33-.86c.49-1.27,1-2.53,1.5-3.79.07-.17.14-.35.22-.52.48-1.18,1-2.36,1.49-3.52l.27-.62c.54-1.23,1.1-2.44,1.66-3.65l.39-.82q.85-1.8,1.74-3.57l.33-.63c.57-1.14,1.16-2.26,1.76-3.37l.22-.41c.64-1.17,1.29-2.33,2-3.48l.43-.75c.66-1.12,1.33-2.23,2-3.33l.42-.67c.7-1.12,1.42-2.23,2.15-3.32l.12-.17c.73-1.09,1.49-2.17,2.26-3.24l.46-.64c.76-1,1.53-2.06,2.32-3.08l.51-.65c.81-1,1.63-2.05,2.47-3.05l.26-.3c.81-1,1.63-1.89,2.47-2.82l.45-.5c.87-.94,1.75-1.87,2.65-2.79l.59-.59c.91-.92,1.83-1.82,2.77-2.7l.43-.39c.91-.84,1.84-1.67,2.78-2.48l.38-.33c1-.84,2-1.66,3-2.47l.65-.51c1-.79,2-1.57,3.11-2.32l.57-.4c1.06-.75,2.13-1.49,3.23-2.2l.2-.13c1.13-.73,2.29-1.43,3.45-2.12l.68-.4c1.14-.66,2.3-1.3,3.47-1.92l.7-.36c1.22-.63,2.46-1.25,3.72-1.84l.2-.09c1.24-.57,2.49-1.11,3.76-1.64l.67-.28c1.27-.51,2.56-1,3.87-1.48l.81-.28c1.33-.48,2.69-.93,4.07-1.35l.47-.14q2-.6,4-1.14l.59-.15c1.42-.37,2.87-.7,4.33-1l.88-.19c1.46-.3,3-.58,4.45-.83l.7-.11c1.49-.24,3-.45,4.52-.64l.4,0c1.58-.2,3.2-.35,4.83-.49l.93-.07c1.6-.12,3.22-.22,4.87-.29l.89,0c1.72-.06,3.47-.1,5.24-.1m0-35c-2,0-4.12,0-6.47.12h-.25l-.84,0c-2,.08-4.07.2-6.1.36l-1,.08h-.17c-2.2.19-4.2.39-6.1.62l-.65.08c-1.83.23-3.72.5-5.63.8h-.09l-.81.13c-1.89.31-3.77.66-5.76,1.07l-1.15.24c-2,.43-3.86.86-5.65,1.32l-.83.22h0c-1.74.46-3.48.94-5.15,1.45l-.7.21c-1.77.54-3.54,1.13-5.45,1.8l-.06,0-1,.35c-1.78.65-3.52,1.31-5.18,2l-.78.32-.11,0c-1.74.72-3.32,1.41-4.83,2.11l-.49.22c-1.59.74-3.24,1.55-5,2.48l-.13.07-.8.41c-1.58.84-3.16,1.71-4.7,2.6l-.74.44-.16.09c-1.72,1-3.25,1.95-4.68,2.88l-.44.29c-1.36.88-2.73,1.82-4.19,2.85l-.07,0-.69.48c-1.39,1-2.8,2.05-4.2,3.14l-.89.7c-1.43,1.13-2.76,2.21-4,3.29l-.58.5c-1.21,1-2.41,2.11-3.58,3.2l0,0-.57.53c-1.21,1.13-2.41,2.29-3.69,3.58l-.79.79c-1.2,1.23-2.37,2.47-3.47,3.66l-.53.59-.07.08c-1.08,1.19-2.13,2.39-3.11,3.55l-.39.46,0,0,0,0c-1,1.21-2.06,2.5-3.19,3.93l-.08.1-.59.75c-1,1.3-2,2.62-3,3.93l-.47.65-.11.15c-1.07,1.49-2,2.83-2.87,4.12l0,.05,0,0-.08.12c-.86,1.27-1.74,2.64-2.7,4.16l-.12.17-.39.64c-.85,1.36-1.7,2.75-2.52,4.16l-.47.81-.07.12c-.89,1.53-1.67,2.93-2.41,4.28l-.29.55c-.7,1.3-1.42,2.66-2.13,4.05l-.07.15c-.11.21-.22.42-.32.63-.7,1.38-1.39,2.79-2.11,4.31-.16.33-.32.67-.47,1-.71,1.52-1.36,3-2,4.35-.09.19-.18.41-.27.62l-.06.13c-.6,1.38-1.2,2.78-1.77,4.17v0l-.24.57c-.57,1.39-1.15,2.85-1.77,4.47l0,.1-.35.92c-.57,1.48-1.12,3-1.63,4.4l-.24.67-.08.23c-.54,1.54-1,3-1.49,4.34l-.12.35v.05c-.46,1.4-.94,2.91-1.47,4.6l-.08.24-.22.72c-.45,1.47-.9,3-1.34,4.47l-.21.75-.07.23c-.48,1.69-.9,3.2-1.28,4.61l-.11.45v0c-.36,1.37-.74,2.81-1.13,4.39l-.06.24-.16.63c-.37,1.51-.73,3-1.08,4.52l-.24,1c-.34,1.52-.68,3-1,4.55l-.1.51,0,.15c-.31,1.45-.61,2.89-.89,4.34l0,.17-.11.53c-.23,1.2-.46,2.4-.68,3.6L477,673.67l-10.66-33.34L433,651l-77.16,24.65L322.49,686.3l10.65,33.34,26.59,83.2-5.44.3,1.93,34.94,2.23,40.47-160.32,12-34.91,2.6,2.61,34.9,2.68,36H83v191H373.73l.92,16.57,34.94-1.93,23-1.26,336.92-18.62L903,1142.38V1155h251V964h-59.51l-12.37-59.92L1075,869.8l-34.28,7.07L1016,882V745H921.35l7.18-39.3,6.29-34.43L900.39,665l-78.7-14.37-34.43-6.29-1.35,7.43c-.27-.54-.53-1.09-.8-1.63l-.09-.19-.3-.6c-.68-1.36-1.38-2.74-2.1-4.1l-.36-.68-.1-.19c-.73-1.36-1.41-2.6-2.08-3.79l-.26-.46c-.7-1.24-1.48-2.57-2.36-4-.19-.32-.37-.63-.56-.93-.86-1.41-1.68-2.71-2.48-4l-.37-.56.05.08c-.79-1.22-1.6-2.42-2.43-3.63l-.09-.13-.44-.63c-.89-1.28-1.81-2.56-2.74-3.82l-.51-.67-.1-.14c-.89-1.19-1.75-2.3-2.62-3.39l-.39-.5c-.95-1.18-1.95-2.39-3.07-3.7-.23-.28-.47-.55-.7-.82-1.15-1.33-2.2-2.5-3.23-3.62l-.47-.5c-1-1-2-2.06-3-3.14l-.13-.13-.57-.58c-1.15-1.14-2.32-2.27-3.49-3.35l-.62-.58-.12-.1c-1.11-1-2.22-2-3.31-2.95-.19-.17-.37-.33-.56-.48-1.17-1-2.42-2-3.81-3.13l-.89-.7c-1.42-1.11-2.74-2.09-4-3l-.52-.37c-1.18-.85-2.42-1.7-3.76-2.59l-.13-.08-.79-.52c-1.38-.9-2.81-1.8-4.24-2.66l-.75-.45-.11-.06c-1.33-.78-2.67-1.55-4-2.26l-.69-.38c-1.46-.79-3-1.56-4.61-2.36l-1.05-.51c-1.72-.83-3.29-1.54-4.79-2.19l-.53-.23c-1.4-.59-2.87-1.19-4.49-1.81l-.19-.08-.88-.34c-1.65-.62-3.33-1.22-5-1.76l-.82-.27-.1,0c-1.55-.51-3.1-1-4.62-1.43h0l-.9-.27c-1.66-.46-3.36-.91-5.19-1.36l-1.11-.26h-.06c-2-.47-3.76-.86-5.46-1.19l-.42-.08c-1.61-.31-3.31-.61-5.2-.91l-.14,0-1-.16c-1.89-.29-3.76-.54-5.56-.74l-.87-.1h-.12c-1.71-.19-3.45-.35-5.18-.48h-.09l-.82-.07c-1.87-.13-3.76-.24-5.79-.32l-1.16,0h-.12c-2.24-.08-4.14-.11-6-.11Z"/></svg>