<svg id="Layer_2" data-name="Layer 2" xmlns="http://www.w3.org/2000/svg" xmlns:xlink="http://www.w3.org/1999/xlink" viewBox="0 0 1280 1280"><defs><style>.cls-1{fill:url(#linear-gradient);}.cls-2{fill:#4f554f;}.cls-3{fill:#63453b;}.cls-4{fill:url(#linear-gradient-2);}.cls-5{fill:url(#linear-gradient-3);}.cls-6{fill:url(#linear-gradient-4);}.cls-7{fill:#3f3e3b;}</style><linearGradient id="linear-gradient" x1="989.08" y1="921.83" x2="238.95" y2="921.83" gradientUnits="userSpaceOnUse"><stop offset="0" stop-color="#4b4a45"/><stop offset="0.51" stop-color="#3f3e3b"/><stop offset="1" stop-color="#3a3a37"/></linearGradient><linearGradient id="linear-gradient-2" x1="1152.86" y1="613.87" x2="537.41" y2="613.87" gradientUnits="userSpaceOnUse"><stop offset="0" stop-color="#585651"/><stop offset="0.01" stop-color="#585651"/><stop offset="0.54" stop-color="#4a4844"/><stop offset="1" stop-color="#45433f"/></linearGradient><linearGradient id="linear-gradient-3" x1="640" y1="-69.52" x2="640" y2="826.63" gradientUnits="userSpaceOnUse"><stop offset="0" stop-color="#a9a8a7"/><stop offset="0.06" stop-color="#a5a4a3"/><stop offset="0.4" stop-color="#91908c"/><stop offset="0.72" stop-color="#85837e"/><stop offset="1" stop-color="#817f79"/></linearGradient><linearGradient id="linear-gradient-4" x1="306.88" y1="841.31" x2="1049.72" y2="240.52" gradientUnits="userSpaceOnUse"><stop offset="0" stop-color="#3b3a34"/><stop offset="1" stop-color="#575853"/></linearGradient></defs><polygon class="cls-1" points="1247 612.38 33 612.38 33.01 705.62 336.5 1231.29 943.5 1231.29 1246.99 705.62 1247 612.38"/><polygon class="cls-2" points="943.5 86.71 336.5 86.71 33.01 612.38 336.5 1138.05 943.5 1138.05 1246.99 612.38 943.5 86.71"/><path class="cls-3" d="M954.34,152.21c.49-3.13-40.43-41.84-55.27-65.5H610.38c-13.26,14.64-28,33.67-27.8,45.64C584,139,636,147,647,149c3.66.67,12.23,20,25,33,25.59,26,122.18,15.44,122.18,15.44l67.26,62.34s8-94.28,9.79-95.53S953.68,156.42,954.34,152.21Z"/><polygon class="cls-4" points="865.14 181.93 414.86 181.93 189.71 571.89 189.71 658.01 405.93 1045.81 874.07 1045.81 1090.29 658.01 1090.29 571.89 865.14 181.93"/><polygon class="cls-5" points="865.14 181.93 414.86 181.93 189.71 571.89 414.86 961.86 865.14 961.86 1090.29 571.89 865.14 181.93"/><polygon class="cls-6" points="805.64 285 474.36 285 308.73 571.89 474.36 858.78 805.64 858.78 971.27 571.89 805.64 285"/><polygon class="cls-7" points="308.93 572.25 342.39 630.2 487.26 371.37 791.75 371.37 938.05 629.44 971.07 572.24 971.07 571.55 805.64 285 474.36 285 308.93 571.55 308.93 572.25"/><path class="cls-3" d="M682,962c0-2,57-5.18,74.49-9.59S824,922,829,922s47.94,6.51,53,5.26S905,909,907,910s-16,35.53-19.51,51.26S876,1046,874,1046s-44-56.92-58.51-62.46-49.11,3.62-64.8,1.54S682,964,682,962Z"/><path class="cls-3" d="M70,503s45-44,44-36c-5,21,70,85,70,90s-67,2-78,19c-3,6-3,28-8,35-2,2.8-28,17-28,21s25.8,85.8,24,87c-3,2-42-27-45-24s0,56,0,56L9,677l15-84Z"/><path class="cls-3" d="M540.18,1203.82c-4.81,2.1-49.18-33.11-53.69-33.14s-79.76,60.26-83.49,60-14-40-18.82-41.3c-1.76-.47-33.64,34.73-56.18,48.59l30.5,5H733.62c-8.36-8.23-13.82-15.86-15.72-16.36-4.1-1.07-118.9-39.93-120.86-41.23s-24-7.7-26-10.7-19.17-22.11-22-18S545,1201.71,540.18,1203.82Z"/><path class="cls-3" d="M815.76,1243H907.6c-25.8-18.24-45.49-35-49.21-35.61C853.37,1206.61,835.7,1226.58,815.76,1243Z"/><path d="M943.5,86.71,1247,612.38h0v93.24L943.5,1231.29h-607L33,705.62V612.38h0L336.5,86.71h607m0-30h-607a30,30,0,0,0-26,15L7.29,596.93A30,30,0,0,0,3,612.39v93.23a30,30,0,0,0,4,15l303.49,525.67a30,30,0,0,0,26,15h607a30,30,0,0,0,26-15L1273,720.62a30,30,0,0,0,4-15V612.39a30,30,0,0,0-4.36-15.59L969.48,71.71a30,30,0,0,0-26-15Z"/></svg>