<svg id="Layer_2" data-name="Layer 2" xmlns="http://www.w3.org/2000/svg" viewBox="0 0 1280 1280"><defs><style>.cls-1{fill:#4a494a;}.cls-2{fill:#635d5a;}.cls-3{fill:#908c89;}.cls-4{fill:#63453b;}</style></defs><rect class="cls-1" x="750" y="601" width="203" height="78"/><rect class="cls-2" x="482" y="589" width="91" height="102"/><rect class="cls-2" x="729" y="581" width="116" height="118"/><rect class="cls-3" x="511" y="559" width="259" height="162"/><path class="cls-4" d="M703.33,702.11c-4.6-3.45-20.68-20.68-27.57-21.83S631,698.66,626.35,694.06,604.52,655,598.78,655s-20.68,39.06-25.28,42.51-27.57,0-29.87,4.6c-1,2,.42,10.28,2.35,18.89H710.74C708,711.57,705.12,703.45,703.33,702.11Z"/><path class="cls-2" d="M732,651c2,1,40-28,40-28V559l-161-1s116,32,121,36S730,650,732,651Z"/><path d="M770,559v22h75v20H953v78H845v20H770v22H511V691H482V589h29V559H770m15-15H496v30H467V706h29v30H785V714h75V694H968V586H860V566H785V544Z"/></svg>