<svg id="Work_Layer" data-name="Work Layer" xmlns="http://www.w3.org/2000/svg" xmlns:xlink="http://www.w3.org/1999/xlink" viewBox="0 0 1298 752"><defs><style>.cls-1{fill:url(#radial-gradient);}.cls-2{fill:#747474;}.cls-3{fill:#616161;}.cls-4{opacity:0.2;}</style><radialGradient id="radial-gradient" cx="960.5" cy="614" r="799.23" gradientTransform="translate(1609.5 792.76) rotate(180) scale(1 0.75)" gradientUnits="userSpaceOnUse"><stop offset="0.48" stop-color="#fff"/><stop offset="1" stop-color="#d0d0d0"/></radialGradient></defs><polygon points="147.79 737 15 604.21 15 147.79 147.79 15 1150.21 15 1283 147.79 1283 604.21 1150.21 737 147.79 737"/><path d="M1455.5,314l124,124V882l-124,124h-990l-124-124V438l124-124h990m12.43-30H453.07l-8.78,8.79-124,124-8.79,8.78V894.43l8.79,8.78,124,124,8.78,8.79H1467.93l8.78-8.79,124-124,8.79-8.78V425.57l-8.79-8.78-124-124-8.78-8.79Z" transform="translate(-311.5 -284)"/><polygon class="cls-1" points="1144 30 969 30 329 30 154 30 30 154 30 330 30 506 154 630 329 630 969 630 1144 630 1268 506 1268 330 1268 154 1144 30"/><rect class="cls-2" x="154" y="630" width="990" height="92"/><polygon class="cls-3" points="1268 506 1144 630 1144 722 1268 598 1268 506"/><polygon class="cls-3" points="30 506 154 630 154 722 30 598 30 506"/><polygon class="cls-4" points="1108.63 92 970 92 330 92 191.37 92 93 190.37 93 330 93 469.63 191.37 568 330 568 970 568 1108.63 568 1207 469.63 1207 330 1207 190.37 1108.63 92"/></svg>