<svg id="Work_Layer" data-name="Work Layer" xmlns="http://www.w3.org/2000/svg" xmlns:xlink="http://www.w3.org/1999/xlink" viewBox="0 0 660 752"><defs><style>.cls-1{fill:url(#radial-gradient);}.cls-2{opacity:0.2;}.cls-3{fill:#747474;}.cls-4{fill:#616161;}</style><radialGradient id="radial-gradient" cx="641" cy="609" r="462.16" gradientTransform="translate(-311 -265.84) scale(1 0.98)" gradientUnits="userSpaceOnUse"><stop offset="0.48" stop-color="#fff"/><stop offset="1" stop-color="#d0d0d0"/></radialGradient></defs><polygon points="147.79 737 15 604.21 15 147.79 147.79 15 512.21 15 645 147.79 645 604.21 512.21 737 147.79 737"/><path d="M817,309,941,433V877L817,1001H465L341,877V433L465,309H817m12.43-30H452.57l-8.78,8.79-124,124L311,420.57V889.43l8.79,8.78,124,124,8.78,8.79H829.43l8.78-8.79,124-124,8.79-8.78V420.57l-8.79-8.78-124-124L829.43,279Z" transform="translate(-311 -279)"/><polygon class="cls-1" points="506 30 330 30 154 30 30 154 30 330 30 506 154 630 330 630 506 630 630 506 630 330 630 154 506 30"/><polygon class="cls-2" points="469.63 92 330 92 190.37 92 92 190.37 92 330 92 469.63 190.37 568 330 568 469.63 568 568 469.63 568 330 568 190.37 469.63 92"/><rect class="cls-3" x="154" y="630" width="352" height="92"/><polygon class="cls-4" points="630 506 506 630 506 722 630 598 630 506"/><polygon class="cls-4" points="30 506 154 630 154 722 30 598 30 506"/></svg>