<svg id="Work_Layer" data-name="Work Layer" xmlns="http://www.w3.org/2000/svg" xmlns:xlink="http://www.w3.org/1999/xlink" viewBox="0 0 660 1390"><defs><style>.cls-1{fill:url(#radial-gradient);}.cls-2{fill:#747474;}.cls-3{fill:#616161;}.cls-4{opacity:0.2;}</style><radialGradient id="radial-gradient" cx="-701.5" cy="2901" r="705.41" gradientTransform="translate(2429.7 1350.5) rotate(90) scale(1 0.72)" gradientUnits="userSpaceOnUse"><stop offset="0.48" stop-color="#fff"/><stop offset="1" stop-color="#d0d0d0"/></radialGradient></defs><polygon points="147.79 1375 15 1242.21 15 147.79 147.79 15 512.21 15 645 147.79 645 1242.21 512.21 1375 147.79 1375"/><path d="M816.5,282l124,124V1488l-124,124h-352l-124-124V406l124-124h352m12.43-30H452.07l-8.78,8.79-124,124-8.79,8.78V1500.43l8.79,8.78,124,124,8.78,8.79H828.93l8.78-8.79,124-124,8.79-8.78V393.57l-8.79-8.78-124-124L828.93,252Z" transform="translate(-310.5 -252)"/><polygon class="cls-1" points="30 154 30 329 30 969 30 1144 154 1268 330 1268 506 1268 630 1144 630 969 630 329 630 154 506 30 330 30 154 30 30 154"/><rect class="cls-2" x="154" y="1268" width="352" height="92"/><polygon class="cls-3" points="630 1144 506 1268 506 1360 630 1236 630 1144"/><polygon class="cls-3" points="30 1144 154 1268 154 1360 30 1236 30 1144"/><polygon class="cls-4" points="568 1107.63 568 969 568 329 568 190.37 469.63 92 330 92 190.37 92 92 190.37 92 329 92 969 92 1107.63 190.37 1206 330 1206 469.63 1206 568 1107.63"/></svg>