<?xml version="1.0" encoding="utf-8"?>
<!-- Generator: Adobe Illustrator 24.1.2, SVG Export Plug-In . SVG Version: 6.00 Build 0)  -->
<svg version="1.1" id="Layer_3" xmlns="http://www.w3.org/2000/svg" xmlns:xlink="http://www.w3.org/1999/xlink" x="0px" y="0px"
	 viewBox="0 0 1280 1280" style="enable-background:new 0 0 1280 1280;" xml:space="preserve">
<style type="text/css">
	.st0{fill:#C6C6C6;}
	.st1{fill:#ABABAB;}
	.st2{fill:#828282;}
	.st3{fill:#FFFFFF;}
</style>
<g>
	<path d="M1074.24,798.15c-24.92,0-85.33-4.74-134.14-9.43c-26.92-2.59-51.36-5.25-68.79-7.5c-9.55-1.23-17.03-2.34-22.25-3.3
		c-3.13-0.57-5.54-1.11-7.37-1.64c-11.98-3.46-12.92-12.7-12.92-15.45c0-0.14,0-0.28,0.01-0.41c0.53-19.15-14.85-26.35-33.48-33.15
		c-1.35-0.49-2.66-0.97-3.91-1.45h-32.31c-5.33,0-10.26-2.83-12.95-7.43c-0.25-0.43-1.78-3.09-3.85-7.44H178.76
		c-3.77,3.47-8.81,5.56-14.34,5.56h-50.07c-5.68,0-11.21-2.34-15.17-6.42c-7.01-7.23-15.37-22.42-15.37-53.8s8.36-46.57,15.37-53.8
		c3.96-4.08,9.49-6.42,15.17-6.42h50.07c5.53,0,10.57,2.09,14.34,5.56h563.51c2.06-4.34,3.59-7,3.85-7.43
		c2.69-4.6,7.62-7.44,12.95-7.44h32.31c1.25-0.48,2.56-0.95,3.91-1.45c18.63-6.81,34.01-14,33.48-33.15c0-0.14-0.01-0.27-0.01-0.41
		c0-2.75,0.93-11.99,12.92-15.45c1.83-0.53,4.24-1.07,7.37-1.64c5.22-0.96,12.71-2.07,22.26-3.3c17.44-2.25,41.87-4.92,68.8-7.5
		c48.82-4.69,109.22-9.43,134.14-9.43c3.49,0,6.25,0.09,8.43,0.28c28.2,2.4,54.74,9.1,69.63,63.49c5.36,9.21,8.61,20.82,9.87,35.28
		c9.14,11.64,13.76,26.01,13.76,42.82c0,16.81-4.63,31.19-13.76,42.83c-1.27,14.46-4.51,26.07-9.87,35.28
		c-14.89,54.38-41.43,61.09-69.63,63.49C1080.49,798.06,1077.73,798.15,1074.24,798.15
		C1074.25,798.15,1074.24,798.15,1074.24,798.15z"/>
	<path d="M1074.24,529.42c2.97,0,5.39,0.07,7.16,0.22c24.74,2.11,44.48,6.84,56.97,54.51c4.92,7.63,8.31,18.82,9.19,35.3
		c7.69,8.19,13.38,19.98,13.38,36.84c0,16.86-5.69,28.65-13.38,36.84c-0.88,16.48-4.26,27.66-9.18,35.29
		c-12.49,47.67-32.24,52.41-56.97,54.51c-1.77,0.15-4.18,0.22-7.16,0.22c-46.59,0-230.48-17.53-230.48-22.33
		c0.99-36.04-35.62-44.18-49.52-50.02c-21.67,0-35.17,0-35.17,0s-3.38-5.79-6.96-14.87H170.52c-0.29,3.12-2.91,5.56-6.1,5.56h-50.07
		c-1.66,0-3.25-0.67-4.41-1.87c-3.81-3.93-11.13-15.15-11.13-43.35s7.32-39.42,11.13-43.35c1.16-1.19,2.74-1.87,4.41-1.87h50.07
		c3.19,0,5.81,2.44,6.1,5.56h581.59c3.58-9.08,6.96-14.87,6.96-14.87s13.5,0,35.17,0c13.9-5.83,50.52-13.98,49.52-50.02
		C843.76,546.94,1027.67,529.42,1074.24,529.42 M1074.24,499.42C1074.24,499.42,1074.24,499.42,1074.24,499.42
		c-27.15,0-90,5.12-135.58,9.5c-27.08,2.6-51.69,5.29-69.28,7.56c-9.81,1.27-17.56,2.42-23.04,3.42c-3.67,0.67-6.48,1.3-8.83,1.98
		c-2.45,0.71-4.61,1.53-6.6,2.52c-10.58,5.27-17.15,15.75-17.15,27.34c0,0.28,0,0.55,0.01,0.83c0.19,6.74-2.09,10.78-23.63,18.65
		c-0.49,0.18-0.98,0.36-1.47,0.54h-29.6c-10.66,0-20.53,5.66-25.91,14.87H183.68c-5.73-3.62-12.38-5.56-19.27-5.56h-50.07
		c-9.71,0-19.17,4-25.93,10.97c-13.01,13.4-19.61,35.02-19.61,64.24s6.6,50.84,19.61,64.24c6.77,6.97,16.22,10.97,25.93,10.97h50.07
		c6.88,0,13.54-1.95,19.27-5.56h549.48c5.38,9.21,15.24,14.87,25.91,14.87h29.6c0.48,0.18,0.97,0.36,1.47,0.54
		c21.55,7.87,23.82,11.91,23.63,18.65c-0.01,0.28-0.01,0.55-0.01,0.83c0,11.59,6.57,22.07,17.15,27.34c1.99,0.99,4.15,1.82,6.6,2.53
		c2.35,0.68,5.15,1.31,8.83,1.98c5.48,1.01,13.23,2.16,23.04,3.42c17.59,2.27,42.2,4.95,69.28,7.56
		c45.57,4.38,108.42,9.5,135.58,9.5c3.92,0,7.09-0.11,9.7-0.33c16.19-1.38,33.32-4.31,48.87-16.32
		c15.24-11.77,25.93-29.74,33.45-56.35c5.35-9.83,8.79-21.54,10.41-35.48c9.36-13.58,14.26-30.09,14.26-48.38
		c0-18.29-4.89-34.8-14.25-48.38c-1.62-13.95-5.06-25.66-10.42-35.49c-7.52-26.61-18.21-44.58-33.45-56.35
		c-15.55-12.01-32.67-14.94-48.87-16.32C1081.33,499.52,1078.16,499.42,1074.24,499.42L1074.24,499.42L1074.24,499.42z"/>
</g>
<path class="st0" d="M1144.77,695.81c-11.47,78.37-33.87,84.6-63.37,87.11c-29.5,2.51-237.64-17-237.64-22.11
	c1.09-39.69-43.43-45.55-52.99-51.74C802.61,709.08,1069.93,695.81,1144.77,695.81z"/>
<path class="st0" d="M1144.77,616.75c-11.47-78.37-33.87-84.6-63.37-87.11c-29.5-2.51-237.64,17-237.64,22.11
	c1.09,39.69-43.43,45.55-52.99,51.74C802.61,603.49,1069.93,616.75,1144.77,616.75z"/>
<rect x="447.07" y="286.89" transform="matrix(-1.836970e-16 1 -1 -1.836970e-16 1143 169.5652)" class="st1" width="79.3" height="738.78"/>
<path class="st2" d="M1160.93,656.28c0-46.63-43.5-54.52-52.7-54.52s-349.17,0-349.17,0s-15.27,26.13-15.27,54.52
	c0,28.39,15.27,54.52,15.27,54.52s339.97,0,349.17,0S1160.93,702.91,1160.93,656.28z"/>
<path class="st1" d="M1146.98,672.92c0.09,1.81,0.71,14.6,0.74,16.3c-1.46,52.55-26.82,55.06-48.5,56.15
	c-22.37,1.13-251.88-3.5-252.31-12.1c-1.52-26.66-52.78-40.54-52.97-44.34c-0.01-0.18-0.24-4.83-0.44-8.75
	C819.65,675.9,1098.66,675.35,1146.98,672.92z"/>
<path class="st3" d="M1146.98,672.92c2.45,48.55-26.47,50.01-48.83,51.13c-22.37,1.13-246.14-0.73-246.49-7.82
	c-1.29-21.99-58-32.96-58.16-36.09S1096.24,675.47,1146.98,672.92z"/>
<path class="st3" d="M1146.98,639.65c0.09-1.81,0.71-14.6,0.74-16.3c-1.46-52.55-26.82-55.06-48.5-56.15
	c-22.37-1.13-251.88,3.5-252.31,12.1c-1.52,26.66-52.78,40.54-52.97,44.34c-0.01,0.18-0.24,4.83-0.44,8.75
	C819.66,636.66,1098.67,637.21,1146.98,639.65z"/>
<path class="st1" d="M1147.04,639.97c2.45-48.55-26.47-50.01-48.83-51.13c-22.37-1.13-246.14,0.73-246.49,7.82
	c-1.29,21.99-58,32.96-58.16,36.09C793.4,635.89,1096.31,637.42,1147.04,639.97z"/>
<path class="st2" d="M170.54,656.28v-39.09c0-3.38-2.74-6.13-6.13-6.13h-50.07c-1.66,0-3.25,0.67-4.41,1.87
	c-3.81,3.93-11.13,15.15-11.13,43.35s7.32,39.42,11.13,43.35c1.16,1.19,2.74,1.87,4.41,1.87h50.07c3.38,0,6.13-2.74,6.13-6.13
	V656.28z"/>
</svg>
