<svg id="Work" xmlns="http://www.w3.org/2000/svg" viewBox="0 0 1280 1280"><defs><style>.cls-1{fill:#7a7875;}</style></defs><path class="cls-1" d="M488,468.5c-8.08,0-14.35-7.88-21.64-27.19-4.58-12.13-9.59-28.95-14.88-50-9-35.56-15.78-71.58-15.85-71.94l-3.31-17.52,14.84,9.89c.3.2,30.48,20.34,60.26,42.05,17.57,12.82,31.6,23.69,41.7,32.32,17.8,15.2,21.38,21.55,21.38,26.87,0,9.86-10,13.5-21.7,17.72-6.95,2.52-14.84,5.37-21.89,9.68C519.1,445.17,513.19,451,508,456.15,501.26,462.78,495.46,468.5,488,468.5Z"/><path d="M443,318s120,80,120,95c0,8-22,10-40,21s-26.64,27-35,27c-18,0-45-143-45-143m-21.36-32.27,6.62,35c.28,1.48,6.94,36.61,15.94,72.38,5.37,21.31,10.46,38.4,15.14,50.8,6.29,16.64,14.11,32,28.66,32,10.54,0,17.68-7.05,25.24-14.51,4.93-4.86,10.51-10.37,17.58-14.69,6.41-3.91,13.91-6.63,20.54-9a99,99,0,0,0,14.11-5.89C575.83,426.15,578,418.45,578,413c0-9-6.06-17.25-24-32.58-10.24-8.75-24.43-19.74-42.15-32.67-29.91-21.8-60.22-42-60.52-42.23l-29.68-19.79Z"/><path class="cls-1" d="M792,471.5c-7.46,0-13.26-5.72-20-12.35-5.22-5.14-11.13-11-18.94-15.75-7.05-4.31-14.94-7.16-21.89-9.68-11.65-4.22-21.7-7.86-21.7-17.72,0-5.32,3.58-11.67,21.38-26.87,10.1-8.63,24.13-19.5,41.7-32.32,29.78-21.71,60-41.85,60.26-42.05l14.84-9.89-3.31,17.52c-.07.36-6.9,36.38-15.85,71.94-5.29,21-10.3,37.85-14.88,50C806.35,463.62,800.08,471.5,792,471.5Z"/><path d="M837,321s-27,143-45,143c-8.36,0-17-16-35-27s-40-13-40-21c0-15,120-95,120-95m21.36-32.27-29.68,19.79c-.3.2-30.61,20.43-60.52,42.23-17.72,12.93-31.91,23.92-42.15,32.67-18,15.33-24,23.56-24,32.58,0,5.45,2.17,13.15,12.53,18.88a99,99,0,0,0,14.11,5.89c6.63,2.4,14.13,5.12,20.54,9,7.07,4.32,12.65,9.83,17.58,14.69C774.32,472,781.46,479,792,479c14.55,0,22.37-15.4,28.66-32,4.68-12.4,9.77-29.49,15.14-50.8,9-35.77,15.66-70.9,15.94-72.38l6.62-35Z"/></svg>