<svg id="Work" xmlns="http://www.w3.org/2000/svg" viewBox="0 0 1280 1280"><defs><style>.cls-1{fill:#7a7875;}</style></defs><path class="cls-1" d="M734.17,575.5l-.79-.17c-10.25-2.24-21.12-5.26-31.44-15.32s-13.78-24.79-15.48-35l-.11-.66v-.67c.35-29.51,26.09-44.68,55.89-62.25,12.5-7.37,25.43-15,38.31-24.49l12-8.81V443c0,37-4.7,68.83-13.58,92-12.8,33.43-31,40.45-43.94,40.45Z"/><path d="M785,443c0,71.65-18.23,125-50,125-9.33-2-18.75-4.54-27.8-13.36-7.54-7.35-11.21-18.14-13.33-30.85.43-36.07,47.06-48.27,91.15-80.79m15-29.7-23.9,17.63c-12.57,9.27-25.33,16.79-37.67,24.06-14.81,8.74-28.81,17-39.38,26.75-13.4,12.38-20,26.07-20.2,41.88V525l.22,1.31c1.87,11.24,5.74,27.52,17.64,39.12,11.74,11.45,24.26,14.92,35.08,17.28l1.58.34H735c11.68,0,22.67-4.77,31.78-13.8,7.6-7.53,14-18.12,19.16-31.47C795.13,513.66,800,480.9,800,443V413.3Z"/></svg>