<svg id="Work" xmlns="http://www.w3.org/2000/svg" viewBox="0 0 1280 1280"><defs><style>.cls-1{fill:#7a7875;}</style></defs><path class="cls-1" d="M482.93,469.5c-9.93,0-14.56-12.29-18.09-25.58-2.89-10.9-5.7-26-8.34-44.88-4.45-31.86-6.95-64.14-7-64.46l-1.15-15,12.68,8.14c.23.15,23.71,15.23,46.87,32.11,43.57,31.77,49.58,42.87,49.58,50.13,0,9.89-9.45,14-19.46,18.44-6.16,2.7-13.14,5.77-19.34,10.37-6.93,5.14-12.21,11.45-16.86,17C495.43,463.44,490.36,469.5,482.93,469.5Z"/><path d="M457,334s93,59.66,93,75.93c0,8.72-19.67,10.85-35.77,22.78S490.41,462,482.93,462C466.84,462,457,334,457,334m-17.27-28.9,2.31,30c.11,1.33,2.55,32.83,7,64.93,2.68,19.17,5.55,34.57,8.52,45.77a88.55,88.55,0,0,0,6.28,17.54c5.82,11.25,13.58,13.61,19.06,13.61,10.94,0,17.92-8.35,24.66-16.43,4.39-5.25,9.36-11.2,15.57-15.81,5.53-4.09,12.1-7,17.89-9.53a83.43,83.43,0,0,0,13-6.6c9-6.07,10.92-13.52,10.92-18.7,0-8.82-5.46-17.19-19.47-29.85a419.7,419.7,0,0,0-33.19-26.34c-23.35-17-46.28-31.75-47.24-32.37L439.73,305.1Z"/><path class="cls-1" d="M790.18,462.16l-.59,0c-6.76-.36-11.57-5.54-17.14-11.54-4.16-4.48-8.87-9.55-15.2-13.81-5.71-3.86-12.23-6.57-18-9-9.7-4-18.86-7.86-18.36-17,.33-6.11,4.46-14.06,50.07-37.7,22.72-11.77,45.66-22.15,45.89-22.25l12.54-5.66-2,13.61c0,.24-3.74,24.8-9.27,49-10.3,45.05-18.6,54.29-27.9,54.29Z"/><path d="M819.94,357.73s-14.52,96.93-29.76,96.93H790c-7.11-.38-13.73-14.1-28.54-24.08S728,417.94,728.39,411.25c.67-12.49,91.55-53.52,91.55-53.52m18.92-25-25.09,11.33c-.94.42-23.35,10.56-46.26,22.43-13.67,7.08-24.68,13.33-32.71,18.55-12.81,8.33-20.86,15.49-21.39,25.4-.23,4.29.88,12.42,10.94,18.6a87.07,87.07,0,0,0,12,5.7c5.43,2.26,11.59,4.83,16.68,8.26,5.61,3.78,10,8.52,13.89,12.71,6.12,6.58,12.45,13.39,22.23,13.92.33,0,.67,0,1,0,4.81,0,11.83-1.83,17.94-10.56a66.74,66.74,0,0,0,7.13-14.19c3.36-8.71,6.77-20.61,10.15-35.38C831,385,834.62,361,834.78,360l4.08-27.22Z"/></svg>