<svg id="Work" xmlns="http://www.w3.org/2000/svg" viewBox="0 0 1280 1280"><defs><style>.cls-1{fill:#7a7875;}</style></defs><path class="cls-1" d="M484.42,481.23l-.46,0c-13.1-.81-14.88-14.63-16.17-24.72-1-7.82-1.8-17.66-2.5-26.34-.55-6.81-1.31-16.13-1.77-18.22-.57-2.39-6.22-10.24-12.37-16.38L432,376.34l26.9-3.71a73.53,73.53,0,0,1,9.51-.54c11.4,0,33.07,2.16,50.08,16.62a147.49,147.49,0,0,1,18.31,18.94c9.06,11.21,11.45,17.24,9.45,23.92-2.29,7.63-8.86,10.18-18,13.72-3.72,1.45-9.94,3.86-11.94,5.4-3.39,2.62-7.82,9.21-11.06,14-6.22,9.23-11.12,16.52-20.45,16.52Z"/><path d="M468.36,379.59c10.37,0,30,1.93,45.23,14.84a141,141,0,0,1,17.33,17.93c8.89,11,8.9,14.35,8.09,17.06-1.23,4.12-5.33,5.71-13.48,8.88-4.88,1.9-10.95,4.26-13.8,6.45-4.35,3.36-9,10.25-12.71,15.78-5.54,8.23-8.88,13.2-14.22,13.2h-.46c-6.36-.39-7.74-7.46-9.11-18.19-1-7.63-1.77-17.38-2.46-26-.67-8.19-1.35-16.65-1.93-19.25-1.12-5-9.08-14.76-14.38-20.06l-8.54-8.53,12-1.65a67.07,67.07,0,0,1,8.48-.47m0-15a81.58,81.58,0,0,0-10.53.61l-12,1.65L416,371l21.34,21.34,8.54,8.54c4.89,4.89,9.3,10.87,10.42,13.13.42,2.82,1.09,11.14,1.54,16.77.71,8.77,1.52,18.7,2.54,26.69.77,6,1.63,11.81,3.71,16.82,3.59,8.63,10.64,13.89,19.35,14.43h.45l.37,0h.57c13.32,0,20.11-10.08,26.67-19.83,2.42-3.6,6.91-10.27,9.35-12.21,1.69-1.12,7.39-3.34,10.14-4.41,9.82-3.82,19.08-7.42,22.42-18.56,3.17-10.59-1.78-19.63-10.79-30.78A156.53,156.53,0,0,0,523.3,383c-18.84-16-42.51-18.41-54.94-18.41Z"/><path class="cls-1" d="M795.2,481.23c-9.33,0-14.23-7.29-20.44-16.51-3.24-4.82-7.68-11.41-11.07-14-2-1.54-8.22-3.95-11.93-5.4-9.1-3.54-15.67-6.09-18-13.72-2-6.68.39-12.71,9.45-23.92a147.49,147.49,0,0,1,18.31-18.94c17-14.46,38.68-16.62,50.08-16.62a73.53,73.53,0,0,1,9.51.54l26.9,3.71-19.2,19.21c-6.15,6.15-11.79,14-12.37,16.38-.46,2.09-1.22,11.41-1.77,18.21-.7,8.69-1.5,18.53-2.5,26.35-1.29,10.09-3.07,23.91-16.09,24.72l-.38,0h-.54Z"/><path d="M811.64,379.59a67.07,67.07,0,0,1,8.48.47l12,1.65-8.54,8.53c-5.3,5.31-13.27,15.05-14.38,20.06-.58,2.6-1.26,11.06-1.93,19.25-.69,8.6-1.48,18.35-2.46,26-1.37,10.73-2.75,17.8-9.11,18.19h-.46c-5.34,0-8.68-5-14.22-13.2-3.72-5.53-8.36-12.42-12.71-15.78-2.85-2.19-8.92-4.55-13.8-6.45-8.15-3.17-12.25-4.76-13.48-8.88-.81-2.71-.8-6.05,8.09-17.06a141,141,0,0,1,17.33-17.93c15.19-12.91,34.86-14.84,45.23-14.84m0-15c-12.43,0-36.1,2.39-54.94,18.41a156.53,156.53,0,0,0-19.29,19.94c-9,11.15-14,20.19-10.79,30.78,3.34,11.14,12.6,14.74,22.42,18.56,2.75,1.07,8.45,3.29,10.14,4.41,2.44,1.94,6.93,8.61,9.35,12.21,6.56,9.75,13.35,19.83,26.67,19.83h.8l.39,0h.18c8.73-.54,15.78-5.8,19.37-14.43,2.08-5,2.94-10.81,3.71-16.82,1-8,1.83-17.92,2.54-26.68.45-5.64,1.12-13.95,1.54-16.77,1.12-2.27,5.54-8.25,10.43-13.15l8.53-8.53L864,371l-29.9-4.12-12-1.65a81.58,81.58,0,0,0-10.53-.61Z"/></svg>