<svg id="Work" xmlns="http://www.w3.org/2000/svg" viewBox="0 0 1280 1280"><defs><style>.cls-1{fill:#7a7875;}</style></defs><path class="cls-1" d="M493,468.5c-10.56,0-19.47-11.1-28.64-65.25-5-29.43-7.8-59.26-7.83-59.55l-1.29-13.81,12.27,6.48c.26.14,26.48,14,52.35,29.58C571.2,396.8,575.5,406.41,575.5,413c0,9.86-10,13.5-21.7,17.72-6.95,2.52-14.84,5.37-21.89,9.68C524.1,445.17,518.19,451,513,456.15,506.26,462.78,500.46,468.5,493,468.5Z"/><path d="M464,343s104,55,104,70c0,8-22,10-40,21s-26.64,27-35,27c-18,0-29-118-29-118m-17.51-26.23,2.57,27.62c.12,1.23,2.86,30.4,7.9,60.12,3,17.83,6.27,32.18,9.64,42.65a74.7,74.7,0,0,0,7.28,16.74c6.27,10,13.86,12.1,19.12,12.1,10.54,0,17.68-7.05,25.24-14.51,4.93-4.86,10.51-10.37,17.58-14.69,6.41-3.91,13.91-6.63,20.54-9a99,99,0,0,0,14.11-5.89C580.83,426.15,583,418.45,583,413c0-10.56-8.53-19-22.29-29.29-9-6.73-21.46-14.87-37-24.19-26.06-15.66-51.64-29.21-52.72-29.78l-24.52-13Z"/><path class="cls-1" d="M787,475.5c-7.46,0-13.26-5.72-20-12.35-5.22-5.14-11.13-11-18.94-15.75-7.05-4.31-14.94-7.16-21.89-9.68-11.65-4.22-21.7-7.86-21.7-17.72,0-6.37,5.1-14.05,30-30.83a14.91,14.91,0,0,1,8.36-2.55,14.76,14.76,0,0,1,5.75,1.15c2.55,1.08,5.54,2.13,8.7,3.24a146.4,146.4,0,0,1,20.22,8.36c8,4.19,14.29,9.25,20.43,14.14,2.51,2,4.88,3.89,7.28,5.66a14.9,14.9,0,0,1,5.7,15.33C804.28,463.62,797.35,475.5,787,475.5Z"/><path d="M742.83,394.12a7.2,7.2,0,0,1,2.84.57c7.81,3.28,18.21,6,28.33,11.31,10.46,5.52,18.36,13,26.77,19.21a7.44,7.44,0,0,1,2.83,7.62C799.11,452.55,793.51,468,787,468c-8.36,0-17-16-35-27s-40-13-40-21c0-5,11.41-14.32,26.66-24.61a7.46,7.46,0,0,1,4.17-1.27m0-15A22.35,22.35,0,0,0,730.28,383C705.71,399.52,697,409.22,697,420c0,5.45,2.17,13.15,12.53,18.88a99,99,0,0,0,14.11,5.89c6.63,2.4,14.13,5.12,20.54,9,7.07,4.32,12.65,9.83,17.58,14.69C769.32,476,776.46,483,787,483c9.55,0,17.22-6.45,22.8-19.17,3-6.79,5.73-15.84,8.43-27.67a22.41,22.41,0,0,0-8.57-23c-2.29-1.68-4.6-3.53-7-5.48-6.11-4.87-13-10.4-21.61-14.92a152.73,152.73,0,0,0-21.22-8.79c-3.06-1.08-5.95-2.09-8.3-3.08a22.13,22.13,0,0,0-8.65-1.74Z"/></svg>