<svg id="Work" xmlns="http://www.w3.org/2000/svg" viewBox="0 0 1280 1280"><defs><style>.cls-1{fill:#7a7875;}</style></defs><path class="cls-1" d="M490.55,464.5c-9.62,0-14.61-11.93-18.57-24.83-3.28-10.65-6.63-25.4-10-43.83-5.65-31.12-9.41-62.64-9.45-63L449.83,310l15.68,17a479.12,479.12,0,0,0,43.72,40.93c8.35,6.76,17.2,13.23,25,19,21.74,15.9,29.26,21.79,29.26,29.39,0,9.22-9.53,12.58-19.62,16.15-6,2.12-12.87,4.54-19,8.15-6.73,4-11.84,8.93-16.35,13.27C502.58,459.52,497.39,464.5,490.55,464.5Z"/><path d="M460,332a484.54,484.54,0,0,0,44.51,41.67C528.75,393.28,556,409.74,556,416.18c0,6.84-19.2,8.51-34.91,17.86s-23.25,23-30.54,23C474.84,457,460,332,460,332m-20.33-44.06,5.43,45.83c.16,1.29,3.83,32.07,9.52,63.41,3.4,18.72,6.83,33.76,10.19,44.69a89,89,0,0,0,6.82,17.07c6,10.79,13.61,13.06,18.92,13.06,9.87,0,16.66-6.53,23.23-12.85,4.22-4.06,9-8.66,15-12.22,5.43-3.24,11.9-5.52,17.6-7.53a90.45,90.45,0,0,0,12.57-5.12c10.49-5.66,12.06-13.77,12.06-18.1,0-11.79-10.13-19.2-32.33-35.45-7.74-5.66-16.51-12.08-24.73-18.72A472.87,472.87,0,0,1,471,321.81l-31.34-33.87Z"/><path class="cls-1" d="M789.45,464.5c-6.84,0-12-5-18-10.75-4.51-4.34-9.62-9.26-16.35-13.26-6.07-3.62-12.91-6-19-8.16-10.09-3.57-19.62-6.93-19.62-16.15,0-7.6,7.52-13.49,29.26-29.39,7.81-5.72,16.66-12.19,25-19a479.21,479.21,0,0,0,43.72-40.93l15.68-17-2.72,22.93c0,.32-3.8,31.84-9.45,63-3.35,18.43-6.7,33.18-10,43.83C804.06,452.57,799.07,464.5,789.45,464.5Z"/><path d="M820,332s-14.84,125-30.55,125c-7.29,0-14.83-13.61-30.54-23S724,423,724,416.18c0-6.44,27.25-22.9,51.49-42.51A484.54,484.54,0,0,0,820,332m20.34-44.09L809,321.81h0A472.87,472.87,0,0,1,766.06,362c-8.22,6.64-17,13.06-24.73,18.72C719.13,397,709,404.39,709,416.18c0,4.33,1.57,12.44,12.06,18.1a90.45,90.45,0,0,0,12.57,5.12c5.7,2,12.17,4.29,17.61,7.53,6,3.56,10.76,8.16,15,12.22,6.57,6.32,13.36,12.85,23.23,12.85,5.31,0,12.9-2.27,18.92-13.06a89,89,0,0,0,6.82-17.07c3.36-10.93,6.79-26,10.19-44.69,5.69-31.34,9.36-62.12,9.52-63.41l5.44-45.86Z"/></svg>