<svg id="Work" xmlns="http://www.w3.org/2000/svg" viewBox="0 0 1280 1280"><defs><style>.cls-1{fill:#7a7875;}.cls-2{fill:#a09c95;}</style></defs><path class="cls-1" d="M493,468.5c-10.56,0-19.47-11.1-28.64-65.25-5-29.43-7.8-59.26-7.83-59.55l-1.28-13.81,12.26,6.48c.26.14,26.48,14,52.35,29.58C571.2,396.8,575.5,406.41,575.5,413c0,9.86-10,13.5-21.7,17.72-6.95,2.52-14.84,5.37-21.89,9.68C524.1,445.17,518.19,451,513,456.15,506.26,462.78,500.46,468.5,493,468.5Z"/><path d="M464,343s104,55,104,70c0,8-22,10-40,21s-26.64,27-35,27c-18,0-29-118-29-118m-17.51-26.23,2.57,27.62c.12,1.23,2.86,30.4,7.9,60.12,3,17.83,6.27,32.18,9.64,42.65a74.7,74.7,0,0,0,7.28,16.74c6.27,10,13.86,12.1,19.12,12.1,10.54,0,17.68-7.05,25.24-14.51,4.93-4.86,10.51-10.37,17.58-14.69,6.41-3.91,13.91-6.63,20.54-9a99,99,0,0,0,14.11-5.89C580.83,426.15,583,418.45,583,413c0-10.56-8.53-19-22.29-29.29-9-6.73-21.46-14.87-37-24.19-26.06-15.66-51.64-29.21-52.72-29.78l-24.52-13Z"/><path class="cls-2" d="M564.12,423.73a12.64,12.64,0,0,1-6.1-1.46c-8.4-4.56-7.86-16.45,2-45.44,5.71-16.7,12.45-32.49,12.74-33.16l5.45-12.75,7.69,11.55c.09.14,9.79,14.73,18.83,30.08,18.73,31.78,18.14,38.25,15.6,42.94C619,418,616,421,609.55,421a59.94,59.94,0,0,1-8.53-.9A78.45,78.45,0,0,0,589.44,419c-.6,0-1.21,0-1.82,0a58.65,58.65,0,0,0-13.49,2.71C570.45,422.81,567.27,423.73,564.12,423.73Z"/><path d="M579.69,346.62s38.29,57.55,34.09,65.29c-.66,1.21-2.15,1.63-4.23,1.63-4.61,0-12.15-2.05-20.11-2.05-.73,0-1.47,0-2.2.05-10.33.53-18.27,4.69-23.12,4.69a5.26,5.26,0,0,1-2.52-.55c-9.3-5.05,18.09-69.06,18.09-69.06m-2.88-31.4-10.91,25.5c-.29.68-7.13,16.72-12.93,33.69A193.22,193.22,0,0,0,545.76,400c-1,5.42-4.12,21.92,8.68,28.87a20.08,20.08,0,0,0,9.68,2.37c4.21,0,8-1.11,12.09-2.28a52.15,52.15,0,0,1,11.8-2.43c.45,0,.94,0,1.43,0a70.94,70.94,0,0,1,10.46,1.07,66.33,66.33,0,0,0,9.65,1c10.67,0,15.49-5.94,17.41-9.47,4.65-8.57.83-18.39-3.12-26.92-2.86-6.19-7.1-14.06-12.61-23.4-9.15-15.53-18.65-29.84-19.05-30.44l-15.37-23.09Z"/><path class="cls-1" d="M788,468.5c-7.46,0-13.26-5.72-20-12.35-5.22-5.14-11.13-11-18.94-15.75-7.05-4.31-14.94-7.16-21.89-9.68-11.65-4.22-21.7-7.86-21.7-17.72,0-6.59,4.3-16.2,55.64-47.05,25.87-15.55,52.09-29.44,52.35-29.58l12.26-6.48-1.28,13.81c0,.29-2.84,30.12-7.83,59.55C807.47,457.4,798.56,468.5,788,468.5Z"/><path d="M817,343s-11,118-29,118c-8.36,0-17-16-35-27s-40-13-40-21c0-15,104-70,104-70m17.51-26.23-24.52,13c-1.08.57-26.66,14.12-52.72,29.78-15.52,9.32-28,17.46-37,24.19C706.53,394,698,402.44,698,413c0,5.45,2.17,13.15,12.53,18.88a99,99,0,0,0,14.11,5.89c6.63,2.4,14.13,5.12,20.54,9,7.07,4.32,12.65,9.83,17.58,14.69C770.32,469,777.46,476,788,476c5.26,0,12.85-2.1,19.12-12.1a74.7,74.7,0,0,0,7.28-16.74c3.37-10.47,6.62-24.82,9.64-42.65,5-29.72,7.78-58.89,7.9-60.12l2.57-27.62Z"/><path class="cls-2" d="M716.88,423.73c-3.15,0-6.33-.92-10-2A58.65,58.65,0,0,0,693.38,419c-.61,0-1.22,0-1.82,0A78.45,78.45,0,0,0,680,420.14a59.94,59.94,0,0,1-8.53.9h0c-6.45,0-9.44-3-10.82-5.55-2.54-4.69-3.13-11.16,15.6-42.94,9-15.35,18.74-29.94,18.83-30.08l7.69-11.55,5.45,12.75c.29.67,7,16.46,12.74,33.16,9.9,29,10.44,40.88,2,45.44A12.64,12.64,0,0,1,716.88,423.73Z"/><path d="M701.31,346.62s27.39,64,18.09,69.06a5.26,5.26,0,0,1-2.52.55c-4.85,0-12.79-4.16-23.12-4.69-.73,0-1.47-.05-2.2-.05-8,0-15.5,2.05-20.11,2.05-2.08,0-3.57-.42-4.23-1.63-4.2-7.74,34.09-65.29,34.09-65.29m2.88-31.4-15.37,23.09c-.4.6-9.9,14.91-19.05,30.44-5.51,9.34-9.75,17.21-12.61,23.4-3.95,8.53-7.77,18.35-3.12,26.92,1.92,3.53,6.74,9.47,17.41,9.47a66.33,66.33,0,0,0,9.65-1,70.94,70.94,0,0,1,10.46-1.07c.49,0,1,0,1.43,0a52.15,52.15,0,0,1,11.8,2.43c4.05,1.17,7.88,2.28,12.09,2.28a20.08,20.08,0,0,0,9.68-2.37c12.8-6.95,9.7-23.45,8.68-28.87A193.22,193.22,0,0,0,728,374.41c-5.8-17-12.64-33-12.93-33.69l-10.91-25.5Z"/></svg>