<svg id="Work" xmlns="http://www.w3.org/2000/svg" viewBox="0 0 1280 1280"><defs><style>.cls-1{fill:#7a7875;}</style></defs><path class="cls-1" d="M749,591.52c-10,0-19.93-3.43-31.18-10.78l-.66-.44-.56-.56c-13.86-14-10.41-33.52-6-58.25,4.79-27.1,10.75-60.83,0-105.27L704.19,390l19,19.16c33.67,34,58.14,66.69,70.75,94.51,17.68,39,8.45,60-2.4,70.72l-.45.44-.52.37c-10.35,7.27-20.88,14-35.9,15.94A42.58,42.58,0,0,1,749,591.52Z"/><path d="M717.84,414.45c66.3,67,95.58,127.7,68.4,154.62-9.31,6.54-19,12.86-32.57,14.64A35,35,0,0,1,749,584c-9.49,0-18.3-3.82-27.07-9.56-23.78-24,16.84-73.6-4.11-160m-27.29-48.88L703.26,418c10.41,42.93,4.6,75.8-.06,102.21-2.21,12.51-4.12,23.31-4,33.29.2,13.22,4.15,23.53,12.07,31.54l1.12,1.13,1.33.87c12.52,8.19,23.73,12,35.28,12a52.28,52.28,0,0,0,6.61-.43c16.69-2.21,28.53-9.73,39.23-17.25l1-.72.89-.89c9.46-9.37,14.5-22.06,14.55-36.7,0-12.57-3.51-26.85-10.58-42.45-13-28.62-38-62.06-72.26-96.69l-38-38.32Z"/></svg>