<svg id="Work" xmlns="http://www.w3.org/2000/svg" viewBox="0 0 1280 1280"><defs><style>.cls-1{fill:#7a7875;}</style></defs><path class="cls-1" d="M714.74,566.62l-.67-.12c-12.28-2.24-24.3-5-36.18-14.71-12.19-9.92-16.3-24.56-18.33-34.7l-.16-.78v-.8c.26-18.18,18.24-41.67,55-71.81,32.51-26.68,71.39-51.6,91.68-64.09l11.43-7V386c0,34.13-12.77,77.73-34.16,116.61-10.59,19.25-38.4,64-67.93,64Z"/><path d="M810,386c0,70.5-57.09,173.12-94.59,173.12-11-2-22.11-4.47-32.78-13.15-8.9-7.23-13.22-17.85-15.72-30.35C667.41,480.12,758,418,810,386m15-26.84-22.86,14.07c-20.45,12.58-59.66,37.71-92.51,64.67-39.08,32.07-57.42,56.7-57.72,77.51l0,1.59.31,1.56c2.26,11.28,6.89,27.6,21,39.05,13.25,10.78,26.81,13.95,39.57,16.27l1.33.24h1.35c13.19,0,27.07-7.26,41.26-21.58C768.09,541,779.58,525,789.91,506.23c22-40,35.09-84.89,35.09-120.23V359.16Z"/></svg>