<svg id="Work" xmlns="http://www.w3.org/2000/svg" viewBox="0 0 1280 1280"><defs><style>.cls-1{fill:#7a7875;}</style></defs><path class="cls-1" d="M444.19,513.69l-.8-.14-1.39-.27-1.2-.77c-7.78-4.95-15-5.79-22.67-6.68-9.62-1.12-20.52-2.39-28.95-13.42-8.1-10.61-12.93-29-15.65-59.75l-1.2-13.5,12.08,6.16c28.67,14.63,45.08,15.1,60.94,15.55,12.41.35,25.25.71,41.86,8.25l1.33.61,1,1.06a7.75,7.75,0,0,1,2.07,6.37c-.54,4.14-3.54,6-8.08,8.76-5,3.1-13.48,8.29-18.37,15.35-4.62,6.67-7.53,14.57-9.66,20.34-2.49,6.75-4.46,12.08-10.6,12.08Z"/><path d="M381,432c53.23,27.17,67.93,8,103.11,23.95C485.49,457.41,468,464,459,477c-8.89,12.84-11.92,29.19-14.09,29.19h-.08C413.93,486.54,388.9,521.29,381,432m-17.33-25.69,2.39,27c2.85,32.21,8.14,51.84,17.16,63.65,10.36,13.55,24,15.15,34,16.31,7.07.82,13.18,1.54,19.51,5.56l2.39,1.53,2.79.54a15.36,15.36,0,0,0,3,.28c3.82,0,10.87-1.39,15.16-10.71.82-1.79,1.58-3.86,2.47-6.27,2-5.4,4.72-12.79,8.79-18.67s11.6-10.44,16.14-13.23c5-3,10.58-6.49,11.59-14.18a15.21,15.21,0,0,0-4.07-12.5l-2-2.13-2.67-1.21c-18-8.16-31.59-8.55-44.75-8.92-15.72-.44-30.57-.86-57.74-14.73l-24.15-12.33Z"/><path class="cls-1" d="M835.28,513.69c-6.14,0-8.11-5.33-10.6-12.08-2.13-5.77-5-13.67-9.66-20.34-4.89-7.06-13.33-12.25-18.38-15.35-4.53-2.78-7.53-4.62-8.07-8.76a7.71,7.71,0,0,1,2.07-6.37l1-1.06,1.34-.61c16.61-7.54,29.44-7.9,41.86-8.25,15.86-.45,32.26-.92,60.94-15.55l12.07-6.16-1.19,13.5c-2.72,30.72-7.55,49.14-15.66,59.75-8.42,11-19.33,12.3-29,13.42-7.65.89-14.88,1.73-22.67,6.68l-1.19.77-2.11.41Z"/><path d="M899.19,432c-7.91,89.29-32.94,54.54-63.83,74.19h-.08c-2.18,0-5.21-16.35-14.09-29.19-9-13-26.49-19.59-25.11-21.05C831.26,440,846,459.17,899.19,432m17.33-25.69-24.15,12.33c-27.17,13.87-42,14.29-57.74,14.73-13.16.37-26.77.76-44.75,8.92l-2.67,1.21-2,2.13a15.24,15.24,0,0,0-4.06,12.5c1,7.69,6.63,11.14,11.59,14.18,4.54,2.79,12.14,7.46,16.13,13.23s6.8,13.27,8.79,18.67c.89,2.41,1.66,4.48,2.48,6.27,4.28,9.32,11.33,10.71,15.16,10.71a15.33,15.33,0,0,0,2.94-.28l2.79-.54,2.4-1.53c6.33-4,12.44-4.74,19.51-5.56,10-1.16,23.69-2.76,34-16.31,9-11.81,14.32-31.44,17.17-63.65l2.39-27Z"/></svg>