<svg id="Work" xmlns="http://www.w3.org/2000/svg" viewBox="0 0 1280 1280"><defs><style>.cls-1{fill:#7a7875;}</style></defs><path class="cls-1" d="M501.47,455a10.94,10.94,0,0,1-5-1.17c-6.79-3.41-8.69-12.77-13.16-39.34-1.61-9.53-3.43-20.35-5.72-30.85-6.49-29.66-10-49.13-10-49.33l-2.92-16.42,14.22,8.71c.24.16,24.92,15.3,48.41,32,43.59,30.95,49.57,42.73,45.07,51.7-3.07,6.12-9.85,8.52-17.7,11.3-5.9,2.08-12.59,4.45-19.18,8.67-6,3.81-11.18,8.84-15.79,13.28-6.66,6.41-11.91,11.47-18.26,11.47Z"/><path d="M475,333s97.73,59.87,90.69,73.92c-3.27,6.52-18.81,7.16-34.21,17-14.12,9-23.79,23.57-30,23.57a3.62,3.62,0,0,1-1.61-.37c-5.75-2.89-8.25-34.63-14.92-65.09-6.53-29.86-9.94-49-9.94-49m-20.6-30.21,5.83,32.83c.14.8,3.54,19.82,10.06,49.63,2.26,10.32,4.06,21,5.66,30.49,4.56,27.13,6.65,39.51,17.19,44.8a18.48,18.48,0,0,0,8.33,2c9.37,0,15.9-6.29,23.46-13.57,4.36-4.2,9.3-9,14.63-12.36,5.86-3.76,12.12-6,17.64-7.92,8.59-3,17.48-6.19,21.9-15,2.37-4.72,3.8-12.41-2.82-22.28a76.66,76.66,0,0,0-11.58-12.91c-7.71-7.16-18.82-15.9-33-26-23.69-16.82-47.82-31.63-48.83-32.25L454.4,302.79Z"/><path class="cls-1" d="M791.21,464c-6.34,0-11.6-5.06-18.26-11.47-4.6-4.44-9.83-9.47-15.78-13.28-6.6-4.22-13.29-6.59-19.19-8.67-7.85-2.78-14.62-5.18-17.69-11.3-4.41-8.79,3.92-17.91,12.66-25.66,7.34-6.53,18-14.49,31.73-23.66,23.09-15.44,47.36-29.33,47.6-29.47l13-7.41-1.8,14.83c-.08.59-1.85,14.87-8.38,44.73-2.3,10.5-4.12,21.32-5.73,30.86-4.47,26.56-6.37,35.92-13.16,39.33A10.94,10.94,0,0,1,791.21,464Z"/><path d="M816,347s-1.73,14.18-8.26,44c-6.67,30.46-9.17,62.2-14.92,65.09a3.62,3.62,0,0,1-1.61.37c-6.22,0-15.88-14.54-30-23.57-15.41-9.85-31-10.49-34.22-17C720,401.87,816,347,816,347m18.5-27.84L808.56,334c-1,.57-24.74,14.16-48,29.74-14,9.37-24.94,17.54-32.55,24.29a71.15,71.15,0,0,0-11.53,12.42c-7,10.24-4.8,18.31-2.85,22.21,4.43,8.82,13.31,12,21.9,15,5.52,2,11.78,4.16,17.65,7.92,5.33,3.4,10.26,8.16,14.62,12.36,7.56,7.28,14.09,13.57,23.46,13.57a18.45,18.45,0,0,0,8.33-2c10.54-5.29,12.63-17.67,17.2-44.8,1.59-9.45,3.39-20.17,5.65-30.49,6.61-30.2,8.43-44.83,8.5-45.44l3.61-29.65Z"/></svg>