<svg id="Work" xmlns="http://www.w3.org/2000/svg" viewBox="0 0 1280 1280"><defs><style>.cls-1{fill:#7a7875;}</style></defs><path class="cls-1" d="M514.4,596.59C474.71,593,456.67,529.16,466.15,426l2.62-28.52,11.7,26.14c18.35,41,42.5,63.06,61.9,80.78,17.73,16.19,31.73,29,29.94,48.43l-.06.74-.21.72c-2.83,9.49-8,23.08-20.55,31.49-12.17,8.17-23.85,9.79-35.74,10.85l-.67.06Z"/><path d="M473.62,426.65c35.69,79.74,94.32,91.82,91.23,125.47-3.46,11.63-8.48,21.32-17.54,27.4-10.87,7.3-21.62,8.67-32.22,9.61-35.54-3.27-50.09-68.64-41.47-162.48m-9.7-58.39-5.24,57c-4.44,48.42-2.87,90,4.55,120.15,11.22,45.66,33.65,57.09,50.49,58.63l1.34.13,1.35-.12C528.8,603,542,601.14,555.67,592c14.53-9.76,20.4-25,23.55-35.59l.43-1.42.13-1.48c1-11-2.18-21.33-9.78-31.54-5.81-7.81-13.57-14.9-22.57-23.12-18.89-17.25-42.4-38.72-60.12-78.31l-23.39-52.26Z"/><path class="cls-1" d="M764.25,596.6c-11.89-1.06-23.57-2.68-35.74-10.85-12.52-8.41-17.72-22-20.55-31.49l-.21-.72-.06-.74c-1.79-19.45,12.21-32.24,29.94-48.43,19.4-17.72,43.55-39.78,61.9-80.78l11.7-26.14L813.85,426c9.48,103.19-8.56,167-48.25,170.62l-.68.07Z"/><path d="M806.38,426.65c8.62,93.84-5.93,159.21-41.47,162.48-10.6-.94-21.35-2.31-32.22-9.61-9.06-6.08-14.08-15.77-17.54-27.4-3.09-33.65,55.54-45.73,91.23-125.47m9.7-58.39-23.39,52.26c-17.72,39.59-41.23,61.06-60.12,78.31-9,8.22-16.76,15.31-22.57,23.12-7.6,10.21-10.8,20.53-9.78,31.54l.13,1.48.43,1.42c3.15,10.61,9,25.83,23.55,35.59,13.64,9.16,26.87,11,39.26,12.09l1.35.12,1.34-.13c16.84-1.54,39.27-13,50.49-58.63,7.42-30.18,9-71.73,4.55-120.15l-5.24-57Z"/></svg>