<svg id="Work" xmlns="http://www.w3.org/2000/svg" viewBox="0 0 1280 1280"><defs><style>.cls-1{fill:#7a7875;}.cls-2{fill:#4d4d4d;}</style></defs><path class="cls-1" d="M713.78,565.36a61.4,61.4,0,0,1-21.12-3.61c-14.8-5.32-23.53-17.76-28.81-26.66l-.4-.68-.26-.76c-8.29-24.7,9.62-46.47,28.73-66.64,3.3-3.7,9-5.65,16.35-5.65,5.92,0,15.67,1.29,28.46,7.42,21.88,10.5,32.3,22.89,31,36.83C765.36,544,747.53,558.18,733,563.3l-.64.22-.67.11A112.84,112.84,0,0,1,713.78,565.36Z"/><path d="M708.27,468.86c6.43,0,15.14,1.85,25.22,6.68,18.49,8.87,27.82,18.84,26.74,29.48-1.56,25.94-11.17,44.67-29.75,51.2a105.13,105.13,0,0,1-16.7,1.64,53.87,53.87,0,0,1-18.59-3.17c-10.79-3.87-18.38-12.46-24.89-23.43-6.6-19.67,7-37.94,27.15-59.19,1.66-1.92,5.45-3.21,10.82-3.21m0-15c-9.55,0-17.1,2.78-21.87,8.06-9.24,9.77-19.5,21.35-25.82,33.35-7.37,14-8.88,27.71-4.5,40.77l.51,1.51.81,1.37c5.87,9.89,15.65,23.76,32.72,29.89a68.74,68.74,0,0,0,23.66,4.05A118.8,118.8,0,0,0,732.84,571l1.34-.21,1.28-.45c23.57-8.28,37.67-31.07,39.72-64.19.61-6.66-.68-16.59-9.92-26.68-5.85-6.41-14.13-12.13-25.28-17.48s-22.1-8.16-31.71-8.16Z"/><path class="cls-2" d="M697.45,472.07l-1.54,1.64C699,478,706,484.3,721.43,492.5c22.21,11.8,33.94,13.62,38.71,13.72l.09-1.2c1.08-10.64-8.25-20.61-26.74-29.48S701.1,467.85,697.45,472.07Z"/></svg>