<svg id="Work" xmlns="http://www.w3.org/2000/svg" viewBox="0 0 1280 1280"><defs><style>.cls-1{fill:#4c4a46;}.cls-2{fill:#7a7875;}</style></defs><path class="cls-1" d="M692.94,479.69a36,36,0,0,1-14.06-2.7c-8.62-3.55-13.32-10.92-16.1-16.15l-.37-.7-.22-.76c-4.8-16.84,8.78-29.45,24.5-44.06,6.2-5.76,12.61-11.71,18.67-18.52l8.93-10,3.86,12.86c5.6,18.67,7.57,35.68,5.69,49.19-2.21,15.85-9.92,26.53-21.7,30.07l-.64.19-.68.08a68.45,68.45,0,0,1-7.88.53Z"/><path d="M711,401.78c10.52,35,7.66,64.33-11,69.92a63.05,63.05,0,0,1-7,.49,28.54,28.54,0,0,1-11.2-2.13c-5.5-2.27-9.23-6.9-12.34-12.74-5-17.72,20.5-31.88,41.56-55.54m6.66-30-17.86,20.05c-5.83,6.54-12.11,12.38-18.18,18-7.61,7.07-14.8,13.75-19.91,20.86-7.34,10.23-9.59,20.57-6.7,30.74l.44,1.53.75,1.41c5.21,9.8,11.71,16.2,19.85,19.56a43.65,43.65,0,0,0,16.93,3.26,77.29,77.29,0,0,0,8.72-.58l1.34-.15,1.3-.39c8.54-2.56,23.4-10.68,27-36.22,2-14.57,0-32.68-5.93-52.38l-7.71-25.71Z"/><path class="cls-2" d="M714.74,566.62l-.67-.12c-12.28-2.24-24.29-5-36.18-14.71-12.19-9.92-16.3-24.56-18.33-34.7l-.16-.78v-.8c.42-29.47,30.7-44.36,65.75-61.61,14.78-7.27,30.07-14.78,45.32-24.17l11.43-7v13.42c0,36.58-5.57,68.07-16.12,91.06-14.95,32.6-35.65,39.44-50.38,39.44Z"/><path d="M774.41,436.12c0,70.5-21.5,123-59,123-11-2-22.11-4.47-32.78-13.15-8.9-7.23-13.22-17.85-15.72-30.35.5-35.5,55.5-47.5,107.5-79.5m15-26.85-22.86,14.07c-14.95,9.2-30.07,16.64-44.7,23.83-17.32,8.53-33.69,16.58-46,26-15.91,12.25-23.75,26.06-24,42.21l0,1.59.31,1.56c2.26,11.28,6.89,27.6,21,39.05,13.25,10.78,26.81,13.95,39.57,16.27l1.33.24h1.35A53.18,53.18,0,0,0,750,561.38c8.92-7.38,16.53-17.83,22.6-31.07,11-24,16.8-56.54,16.8-94.19V409.27Z"/></svg>