<svg id="Work" xmlns="http://www.w3.org/2000/svg" viewBox="0 0 1280 1280"><defs><style>.cls-1{fill:#7a7875;}</style></defs><path class="cls-1" d="M471.65,488.2a14.24,14.24,0,0,1-4.54-.73c-3.91-1.31-8.78-4.63-9.75-13-.52-4.44,0-9.92.82-17.77.71-6.73,1.74-14.64,2.74-22a37,37,0,0,1-11.69,4,65.76,65.76,0,0,1-7.6.4c-9.18,0-25.75-1.24-33.5-9.52l-.39-.42-.37-.47c-9.6-12.22-13.5-33.16-18-57.4-4.46-23.89-9.51-51-20.49-73.53l-15.2-31.22L386,279.28c41.34,16.33,55.15,46.42,59.06,70.79,7.05.89,14.94,1.42,22.08,1.91,14.5,1,22.32,1.6,27.79,3.91,6.33,2.67,38.73,16.79,54.83,32.78l2.76,2.74.88,3.78c1,4.43.94,14.13.85,18.1-.32,14.4-1.76,19.39-6.69,23.24-2,1.58-4.3,2.55-8.42,4.3-4.29,1.83-10.18,4.34-13.84,6.82-9.87,6.7-20.48,16.54-29,24.45C483.64,483.82,478.92,488.2,471.65,488.2Z"/><path d="M368.85,280.58l14.36,5.67c40.61,16,52.61,46.25,55.12,70.43,8.58,1.44,18.95,2.15,28.27,2.78,13.28.9,21,1.5,25.37,3.34,3.75,1.58,37,15.87,52.47,31.2l1.22,1.21.39,1.68c.91,3.88.69,15,.66,16.23-.3,13.79-1.64,15.81-3.8,17.49-1.22.95-2.85,1.66-6.74,3.32-4.58,1.95-10.86,4.62-15.12,7.51-10.35,7-21.18,17.08-29.89,25.17-11.79,10.94-15.37,14.09-19.51,14.09a6.83,6.83,0,0,1-2.16-.34c-5.82-1.95-5.39-8.42-3.86-22.86,1-9.3,2.6-20.94,3.89-30.29.3-2.17.61-4.44.9-6.57-9.26,5.64-16.78,10-22.07,10.59a57.65,57.65,0,0,1-6.72.35h0c-5,0-21.82-.52-28-7.14l-.18-.19-.16-.21c-8.47-10.78-12.21-30.87-16.55-54.15-4.54-24.36-9.69-52-21.11-75.43l-6.76-13.88m-30.38-28.12,16.89,34.69L362.12,301c10.54,21.65,15.49,48.2,19.85,71.62,4.7,25.22,8.76,47,19.51,60.67l.15.2.41.52.45.48.18.19c9.19,9.82,26.26,11.88,39,11.88a74.76,74.76,0,0,0,8.5-.45c.58-.07,1.17-.16,1.76-.27-.44,3.49-.84,6.9-1.17,10.06-.89,8.35-1.42,14.21-.81,19.43,1.51,12.92,9.93,17.59,14.82,19.23a21.66,21.66,0,0,0,6.92,1.12c10.21,0,16.32-5.67,29.71-18.1,8.34-7.74,18.71-17.37,28.11-23.74,3.06-2.08,8.78-4.52,12.57-6.13,4.54-1.93,7.28-3.1,10.09-5.28,8.44-6.58,9.3-16.17,9.58-29,.14-6.44.08-15.14-1.05-20l-.39-1.68-1-4.2-3.06-3L555,383.35c-17.09-17-50.66-31.61-57.21-34.37s-14.87-3.45-30.19-4.49c-5.23-.35-10.88-.73-16.24-1.26a95.59,95.59,0,0,0-13.83-33.14C426.41,293.42,410,280.7,388.72,272.3l-14.36-5.67-35.89-14.17Z"/><path class="cls-1" d="M813.11,488.2c-7.27,0-12-4.38-24.61-16.1-8.53-7.91-19.13-17.76-29-24.45-3.66-2.48-9.55-5-13.85-6.82-4.11-1.75-6.38-2.72-8.41-4.3-4.94-3.85-6.38-8.84-6.69-23.24-.09-4-.18-13.66.85-18.1l.88-3.78,2.75-2.73c16.11-16,48.51-30.12,54.84-32.79,5.47-2.31,13.29-2.93,27.79-3.91,7.14-.49,15-1,22.08-1.91,3.91-24.37,17.71-54.46,59.06-70.79l32.3-12.76-15.2,31.22c-11,22.56-16,49.63-20.49,73.53-4.52,24.24-8.42,45.18-18,57.41l-.36.46-.39.42c-7.75,8.28-24.32,9.52-33.5,9.52a66.07,66.07,0,0,1-7.61-.4,37.08,37.08,0,0,1-11.68-4c1,7.4,2,15.3,2.74,22,.83,7.85,1.34,13.33.82,17.77-1,8.36-5.84,11.68-9.75,13A14.24,14.24,0,0,1,813.11,488.2Z"/><path d="M915.91,280.58l-6.76,13.88c-11.42,23.46-16.57,51.07-21.11,75.43C883.7,393.17,880,413.26,871.49,424l-.16.21-.18.19c-6.2,6.62-23,7.14-28,7.14a57.53,57.53,0,0,1-6.72-.35c-5.29-.63-12.81-5-22.07-10.59.29,2.13.6,4.4.9,6.57,1.29,9.35,2.9,21,3.88,30.29,1.53,14.44,2,20.91-3.85,22.86a6.83,6.83,0,0,1-2.16.34h0c-4.14,0-7.72-3.15-19.51-14.1-8.71-8.08-19.55-18.14-29.89-25.16-4.26-2.89-10.54-5.56-15.12-7.51-3.89-1.66-5.52-2.37-6.74-3.32-2.16-1.68-3.5-3.7-3.8-17.49,0-1.25-.25-12.35.65-16.23l.39-1.68,1.23-1.21c15.44-15.33,48.72-29.62,52.47-31.2,4.36-1.84,12.09-2.44,25.37-3.34,9.32-.63,19.69-1.34,28.27-2.78,2.51-24.18,14.51-54.39,55.12-70.43l14.36-5.67m30.37-28.12L910.4,266.63,896,272.3c-21.27,8.4-37.69,21.12-48.82,37.79a95.4,95.4,0,0,0-13.83,33.14c-5.36.52-11,.91-16.24,1.26-15.32,1-23.62,1.71-30.19,4.49s-40.12,17.41-57.21,34.37l-1.23,1.22-3.06,3-1,4.2-.4,1.69c-1.12,4.81-1.18,13.51-1,19.95.28,12.83,1.14,22.42,9.58,29,2.81,2.18,5.55,3.35,10.08,5.28,3.79,1.61,9.52,4,12.58,6.13,9.39,6.37,19.76,16,28.1,23.73C796.78,490,802.9,495.7,813.11,495.7a21.66,21.66,0,0,0,6.92-1.12c4.89-1.64,13.31-6.31,14.82-19.23.61-5.22.08-11.08-.81-19.43-.33-3.16-.74-6.57-1.17-10.06q.89.17,1.77.27a72.22,72.22,0,0,0,8.49.45c12.7,0,29.77-2.07,39-11.89l.18-.19.44-.47.39-.51.17-.2c10.74-13.69,14.8-35.46,19.51-60.68,4.36-23.42,9.31-50,19.85-71.62l6.76-13.87,16.88-34.69Z"/></svg>