<svg id="Work" xmlns="http://www.w3.org/2000/svg" viewBox="0 0 1280 1280"><defs><style>.cls-1{fill:#7a7875;}</style></defs><path class="cls-1" d="M733,573.38c-.61,0-1.24,0-1.86,0l-.63,0-.62-.14c-12.36-2.67-24.42-5.87-36.06-15.56-12.08-10.06-15.67-24.29-17.32-34.11l-.13-.79,0-.79c.88-19.67,17.57-30.38,38.7-43.94,23.17-14.86,52-33.36,77.35-71.43l15-22.44-1.22,26.94C801.58,512.69,774.21,573.38,733,573.38Z"/><path d="M798.66,410.71C794.48,503.59,770.3,565.88,733,565.88c-.5,0-1,0-1.52,0-11.13-2.4-22.35-5.25-32.86-14-8.75-7.29-12.7-17.58-14.71-29.58,1.52-33.76,65.52-37.55,114.8-111.55m17.41-53.2L786.18,402.4c-24.49,36.76-52.58,54.78-75.16,69.27-10.68,6.86-19.92,12.78-27.16,19.66-9.57,9.11-14.48,19-15,30.25l-.08,1.59.27,1.57c1.84,11,5.91,27,19.91,38.63,12.94,10.77,26.49,14.37,39.27,17.14l1.24.26,1.26.06c.73,0,1.48,0,2.2,0,17.18,0,41.39-9,59.16-52C804,500,811.48,459.37,813.65,411.39l2.42-53.88Z"/></svg>