<svg id="Work" xmlns="http://www.w3.org/2000/svg" viewBox="0 0 1280 1280"><defs><style>.cls-1{fill:#7a7875;}</style></defs><path class="cls-1" d="M527.09,610.32A70.71,70.71,0,0,1,506,606.63l-.71-.22-.65-.36c-17.13-9.39-19.91-28.14-23.43-51.89-3.85-26-8.65-58.35-32.4-96.48l-15.14-24.3,25.11,13.76c90.88,49.8,133.7,100.41,114.54,135.36l-.33.59-.42.53c-7.52,9.27-15.39,18-29,23.58A43.49,43.49,0,0,1,527.09,610.32Z"/><path d="M455.14,453.71C537.77,499,583.86,547.6,566.7,578.9c-6.7,8.26-13.84,16.41-26,21.35a35.84,35.84,0,0,1-13.64,2.57,63.51,63.51,0,0,1-18.88-3.34c-29.63-16.24-6.89-71.61-53.07-145.77m-43-40.67,30.27,48.6c22.93,36.81,27.6,68.31,31.35,93.62,1.79,12,3.33,22.45,6.56,31.63,4.22,12,11,20.43,20.69,25.74l1.3.72,1.42.44a78,78,0,0,0,23.37,4,50.92,50.92,0,0,0,19.3-3.68c15.22-6.19,24.13-16.14,32-25.8l.86-1.05.65-1.19c8.12-14.82,11.18-39.81-20.41-74.63-20.89-23-54.47-47.54-97.11-70.91L412.13,413Z"/><path class="cls-1" d="M748.08,607.88a42.5,42.5,0,0,1-12.82-1.94c-14-4.42-22.53-12.54-30.77-21.18l-.47-.49-.37-.56c-7.95-12.09-12-33.59,14-67.34,18.47-24,49.34-50.52,89.27-76.79l23.92-15.73-13.13,25.44c-20.61,39.91-22.79,72.55-24.54,98.77-1.6,24-2.87,42.87-19.19,53.61l-.62.41-.69.28C763.37,606.13,755.55,607.88,748.08,607.88Z"/><path d="M811.06,445.84c-40.08,77.63-12.95,131-41.18,149.56-7.48,3-14.73,5-21.8,5a34.77,34.77,0,0,1-10.56-1.59c-12.49-3.95-20.26-11.5-27.6-19.2-19.62-29.82,22.42-82,101.14-133.75m39.6-44-47.84,31.46C762.2,460,730.7,487.17,711.73,511.8c-28.69,37.24-23.64,61.9-14.34,76l.74,1.13.93,1c8.58,9,18.27,18.2,33.94,23.15a50,50,0,0,0,15.08,2.29c8.47,0,17.18-1.93,27.42-6.07l1.38-.56,1.24-.81c9.24-6.08,15.31-15,18.56-27.32,2.48-9.41,3.18-19.91,4-32.06,1.7-25.53,3.83-57.3,23.72-95.83l26.27-50.88Z"/></svg>