<svg id="Work" xmlns="http://www.w3.org/2000/svg" viewBox="0 0 1280 1280"><defs><style>.cls-1{fill:#7a7875;}.cls-2{fill:#a09c95;}</style></defs><path class="cls-1" d="M759.32,607.5l-.66-.12c-12.29-2.23-24.3-5-36.18-14.71-12.2-9.92-16.31-24.55-18.33-34.7l-.16-.78v-.8c.42-29.47,30.69-44.36,65.75-61.6,14.78-7.27,30.06-14.79,45.32-24.18l11.43-7V477c0,36.58-5.57,68.07-16.12,91.06-15,32.6-35.65,39.44-50.38,39.44Z"/><path d="M819,477c0,70.5-21.5,123-59,123-11-2-22.11-4.46-32.79-13.14C718.32,579.62,714,569,711.5,556.5,712,521,767,509,819,477m15-26.84-22.86,14.07c-14.95,9.2-30.08,16.63-44.7,23.83-17.33,8.52-33.69,16.57-46,26-15.9,12.26-23.74,26.06-24,42.21l0,1.59.31,1.56c2.26,11.28,6.88,27.6,21,39,13.25,10.78,26.81,14,39.57,16.27l1.33.24H760a53.17,53.17,0,0,0,34.59-12.74c8.93-7.38,16.53-17.83,22.61-31.07,11-24,16.8-56.54,16.8-94.19V450.16Z"/><path class="cls-2" d="M563.25,509.07c-6.42,0-11.69-1.78-16.54-3.61l-.63-.23-.58-.35c-10.41-6.24-15.2-18.32-13.47-34,1.47-13.35,7.46-29.1,17.31-45.55l6.9-11.52,6.19,11.91c4.14,8,8.8,15.17,13.32,22.15,11.47,17.75,21.38,33.08,12.71,48l-.4.69-.54.59c-3.92,4.32-10.2,10.23-19.31,11.54A34.59,34.59,0,0,1,563.25,509.07Z"/><path d="M555.78,429.17c14.36,27.63,35.28,47.29,26.19,63-4.37,4.81-9,8.32-14.83,9.16a27.83,27.83,0,0,1-3.89.28c-5.18,0-9.6-1.51-13.9-3.13-16.4-9.82-12.05-38.43,6.43-69.27m.93-30.73-13.8,23c-10.41,17.38-16.75,34.18-18.34,48.59-2.79,25.33,9.5,36.73,17.07,41.26l1.17.7,1.26.47c5.25,2,11.5,4.09,19.18,4.09a42.18,42.18,0,0,0,6-.44c8.64-1.24,16.42-5.8,23.8-13.92l1.07-1.18.8-1.38c5.25-9.06,5.61-19.53,1-31.12-3.16-8-8.4-16.15-14-24.74-4.42-6.83-9-13.9-13-21.54l-12.38-23.81Z"/><path class="cls-1" d="M520,607.5c-14.73,0-35.43-6.84-50.38-39.44-10.55-23-16.12-54.48-16.12-91.06V463.58l11.43,7c15.26,9.39,30.54,16.91,45.32,24.18,35.06,17.24,65.33,32.13,65.75,61.6v.8l-.16.78c-2,10.15-6.13,24.78-18.33,34.7-11.88,9.67-23.89,12.48-36.18,14.71l-.66.12Z"/><path d="M461,477c52,32,107,44,107.5,79.5-2.5,12.5-6.82,23.12-15.71,30.36C542.11,595.54,531,598,520,600c-37.5,0-59-52.5-59-123m-15-26.84V477c0,37.65,5.81,70.23,16.8,94.19,6.08,13.24,13.68,23.69,22.61,31.07A53.17,53.17,0,0,0,520,615h1.35l1.33-.24c12.76-2.32,26.32-5.49,39.57-16.27,14.08-11.45,18.7-27.77,21-39l.31-1.56,0-1.59c-.23-16.15-8.07-29.95-24-42.21-12.28-9.45-28.64-17.5-46-26-14.62-7.2-29.75-14.63-44.7-23.83L446,450.16Z"/><path class="cls-2" d="M723.71,503c-9.2-.06-16.22-5.05-20.7-8.8l-.62-.51-.49-.63c-10.63-13.63-2.9-30.16,6-49.31,3.52-7.53,7.16-15.32,10.17-23.76l4.5-12.64L731,417.85c12,14.95,20.09,29.74,23.37,42.76,3.85,15.31.76,27.93-8.7,35.53l-.53.42-.59.33C738.83,500,732.5,503,723.94,503Z"/><path d="M725.17,422.55c22.52,28,30.73,55.77,15.82,67.74-5,2.7-10.13,5.25-17,5.25h-.18c-5.85,0-11-2.88-15.94-7.05-11.14-14.28,6.9-36.61,17.35-65.94m-5.12-30.33-9,25.29c-2.89,8.11-6.45,15.73-9.9,23.11-4.32,9.26-8.41,18-10.44,26.41-2.94,12.1-1.15,22.42,5.29,30.68l1,1.26,1.22,1c8.42,7,16.75,10.49,25.48,10.55h.27c10.32,0,17.91-3.65,24.2-7.06l1.19-.65,1.06-.84c6.88-5.53,17.5-18.49,11.27-43.21-3.54-14.06-12.11-29.84-24.79-45.63l-16.82-20.93Z"/></svg>