<svg id="Work" xmlns="http://www.w3.org/2000/svg" viewBox="0 0 1280 1280"><defs><style>.cls-1{fill:#7a7875;}</style></defs><path class="cls-1" d="M767.57,603.09c-11.79,0-26-3.88-43.51-11.85l-.23-.11c-18.28-8.92-22.7-21-23.2-29.6-1.93-33.18,52.33-68,109.77-104.85,28-17.95,56.89-36.5,65.94-47.75l31.86-39.61-8,50.19c-7,43.92-34.48,72.91-58.72,98.48-17.79,18.76-33.14,35-35.83,52.43l-.16,1-.73,2.29c-2.49,8-9.1,29.34-37.18,29.34Z"/><path d="M896.34,396l-3.55,22.31c-6.64,41.63-33.27,69.72-56.76,94.5-18.65,19.67-34.76,36.66-37.81,56.44l-.07.47-.14.46q-.21.63-.42,1.32c-2.42,7.81-7.47,24.07-30,24.07h0c-10.7,0-23.91-3.66-40.4-11.18l-.14-.06c-12-5.85-18.35-13.67-18.91-23.25-1.68-28.81,53.23-64,106.33-98.11,29.79-19.11,57.92-37.16,67.74-49.36L896.34,396m23.71-53.41-35.39,44-14.16,17.6c-8.29,10.31-38,29.35-64.15,46.15-26.7,17.13-54.32,34.84-75.17,52.09-17,14.05-39.44,35.52-38,59.51.62,10.58,5.86,25.39,27.31,35.86l.09,0,.08,0,.14.07.09,0,.09,0c18.49,8.43,33.74,12.53,46.63,12.53,17.75,0,28.22-7.75,33.88-14.26,6.45-7.42,9.06-15.84,10.47-20.36q.18-.62.36-1.17l.16-.49.36-1.12L813,572l.07-.47c2.33-15.14,16.94-30.55,33.86-48.4,23.76-25.06,53.32-56.24,60.69-102.46l3.56-22.31,8.89-55.77Z"/><path class="cls-1" d="M512.43,603.09c-28.07,0-34.69-21.32-37.18-29.34l-.39-1.25-.34-1-.16-1.05c-2.69-17.46-18-33.66-35.83-52.42-24.24-25.57-51.72-54.56-58.72-98.48l-8-50.19,31.86,39.6c9,11.26,38,29.81,65.94,47.76C527,493.53,581.3,528.35,579.37,561.53c-.5,8.59-4.92,20.68-23.11,29.56l-.23.1C538.46,599.21,524.22,603.09,512.43,603.09Z"/><path d="M383.66,396l14.15,17.61c9.82,12.2,37.95,30.25,67.74,49.36,53.1,34.07,108,69.3,106.33,98.11-.56,9.58-6.92,17.4-18.91,23.25l-.14.06c-16.49,7.52-29.7,11.18-40.4,11.18-22.55,0-27.6-16.26-30-24.07q-.21-.69-.42-1.32l-.14-.46-.07-.47c-3-19.78-19.16-36.77-37.81-56.44-23.49-24.78-50.12-52.87-56.76-94.5L383.66,396M360,342.61l8.89,55.77,3.56,22.31c7.37,46.22,36.93,77.4,60.69,102.46C450,541,464.62,556.41,467,571.56l.07.46.18,1.17.36,1.12.14.45v0c.12.36.23.74.35,1.13,1.42,4.55,4,13,10.49,20.39,5.65,6.51,16.12,14.26,33.87,14.26,12.89,0,28.14-4.1,46.63-12.53l.09,0,.09,0,.14-.07.08,0,.09,0C581,587.36,586.24,572.55,586.86,562c1.4-24-21-45.46-38-59.51-20.86-17.25-48.47-35-75.17-52.09-26.18-16.8-55.86-35.84-64.15-46.15l-14.16-17.6-35.39-44Z"/></svg>