<svg id="Work" xmlns="http://www.w3.org/2000/svg" viewBox="0 0 1280 1280"><defs><style>.cls-1{fill:#7a7875;}</style></defs><path class="cls-1" d="M720.26,605.35c-15.94,0-22.14-9.55-24.06-13.66l-.2-.43-.15-.45c-20.48-63.44-41.67-63.48-64.09-63.53-11.62,0-24.79,0-36.58-9.39-12.37-9.8-21.26-28.29-28-58.2l-3-13.23L577,451c17.54,6.18,33.1,8.94,50.45,8.94,7.15,0,13.89-.45,20.39-.9s12.39-.84,18.62-.84c25.14,0,49.42,6.79,86.2,39.91l.09.08c3.09,2.88,6.23,5.68,9.27,8.39,15.36,13.7,29.86,26.65,31.2,43.57l.07.8-.11.81c-3.48,25.37-38.79,49.43-66.84,53.2A46.41,46.41,0,0,1,720.26,605.35Z"/><path d="M574.5,458c21.32,7.52,38.21,9.37,53,9.37,14.31,0,26.61-1.74,39-1.74,22.51,0,45.36,5.73,81.18,38,18.23,16.95,36.77,30.22,38.11,47.05-3,22.12-36.07,43.52-60.41,46.79a39.1,39.1,0,0,1-5.08.35c-11.08,0-15.54-5.65-17.27-9.34C659.44,453.66,602.74,583.58,574.5,458m-20.58-23.16,6,26.46c7.13,31.67,16.87,51.51,30.65,62.43s29,11,41.22,11c10.75,0,19.24,0,27.45,5.88C670,548.36,680,566,688.72,593.12l.29.89.4.86c2.53,5.41,10.6,18,30.85,18a52.52,52.52,0,0,0,7.06-.49c14.52-2,31.36-9.08,45.06-19.07,16.24-11.86,26.27-26.25,28.23-40.54l.22-1.61-.13-1.62C799.12,529.6,783.53,515.69,767,501c-3-2.69-6.12-5.47-9.16-8.29l-.08-.08-.09-.08c-18-16.2-34.28-27.25-49.8-33.77-13.28-5.58-26-8.07-41.41-8.07-6.5,0-12.92.44-19.13.86-6.39.43-13,.88-19.89.88-16.46,0-31.26-2.62-48-8.51l-25.57-9Z"/></svg>