<svg id="Work" xmlns="http://www.w3.org/2000/svg" viewBox="0 0 1280 1280"><defs><style>.cls-1{fill:#7a7875;}</style></defs><path class="cls-1" d="M514,600.72c-20.51,0-26.49-12-28.11-17.12l-.14-.45-.08-.46c-11.9-65.6-32.89-68.45-55.11-71.47-11.52-1.57-24.56-3.34-35-14.16-11-11.35-17.33-30.86-20-61.4l-1.2-13.5,12.08,6.16c28.87,14.74,49.35,16.07,69.15,17.36,30.66,2,57.14,3.73,98.71,52.63l.08.09c2.69,3.26,5.43,6.45,8.08,9.54,13.4,15.62,26.06,30.37,25.15,47.32l0,.81-.22.78c-6.81,24.69-45,43.85-73.3,43.87Z"/><path d="M383,435c75.11,38.33,99.38-9.66,165.56,68.16,15.83,19.22,32.44,34.84,31.53,51.7-5.94,21.52-41.51,38.35-66.08,38.36-15,0-19.56-7.44-20.95-11.87C467.77,441.92,394.35,563.17,383,435m-17.33-25.69,2.39,27c2.86,32.34,9.89,53.3,22.1,65.95s27.31,14.74,39.4,16.38c10.65,1.45,19.06,2.59,26.43,9.46,9.72,9.07,17.22,27.88,22.31,55.91l.16.93.29.9a30.08,30.08,0,0,0,10.64,15.06c6.41,4.85,14.7,7.31,24.62,7.31,14.65,0,32.28-4.84,47.18-12.93,17.68-9.6,29.53-22.54,33.36-36.45l.43-1.56.09-1.62c1.08-19.95-12.54-35.81-27-52.6-2.63-3.06-5.34-6.23-8-9.43l-.08-.09-.07-.09c-19.65-23.1-37.43-37.64-56-45.74-17.16-7.5-32.82-8.52-48-9.51-19-1.24-38.74-2.53-66.23-16.56l-24.15-12.33Z"/><path class="cls-1" d="M766.11,600.72c-28.3,0-66.49-19.18-73.3-43.87l-.22-.78,0-.81c-.92-17,11.74-31.7,25.15-47.32,2.65-3.09,5.39-6.28,8.08-9.54l.07-.09c41.58-48.9,68.06-50.63,98.71-52.63,19.81-1.29,40.28-2.62,69.16-17.36l12.07-6.16-1.19,13.5c-2.7,30.54-9.07,50-20,61.4-10.45,10.82-23.5,12.59-35,14.16-22.22,3-43.21,5.87-55.11,71.47l-.08.46-.14.45c-1.62,5.15-7.61,17.12-28.11,17.12Z"/><path d="M897.13,435c-11.35,128.17-84.77,6.92-110.06,146.35-1.39,4.43-6,11.87-21,11.87-24.57,0-60.15-16.84-66.08-38.36-.91-16.86,15.7-32.48,31.53-51.7C797.74,425.34,822,473.33,897.13,435m17.33-25.69-24.15,12.33c-27.5,14-47.19,15.32-66.23,16.56-15.15,1-30.81,2-48,9.51-18.53,8.1-36.32,22.64-56,45.74l-.08.09-.07.09c-2.64,3.2-5.36,6.37-8,9.43-14.41,16.79-28,32.65-27,52.6l.08,1.62.44,1.56c3.83,13.91,15.68,26.85,33.35,36.45,14.9,8.09,32.54,12.92,47.18,12.93,9.93,0,18.21-2.46,24.63-7.31a30.08,30.08,0,0,0,10.64-15.06l.28-.9.17-.93c5.08-28,12.59-46.84,22.31-55.91,7.37-6.87,15.78-8,26.43-9.46C862.66,517,877.71,515,890,502.27s19.25-33.61,22.11-65.95l2.39-27Z"/></svg>