<svg id="Work" xmlns="http://www.w3.org/2000/svg" viewBox="0 0 1280 1280"><defs><style>.cls-1{fill:#7a7875;}</style></defs><path class="cls-1" d="M436.42,529c-8.21,0-19.45-6.65-45.91-54.87-13.95-25.43-25.82-51.2-25.94-51.45l-5.8-12.61,13.72,2.06c.3,0,29.64,4.45,59.2,10.54,58.67,12.09,65.91,19.74,68.09,25.95,3.27,9.31-5,16.08-14.6,23.91-5.72,4.69-12.22,10-17.44,16.39-5.79,7.1-9.43,14.56-12.64,21.15-4.14,8.47-7.71,15.79-14.76,18.26A11.78,11.78,0,0,1,436.42,529Z"/><path d="M371.38,419.57S487.73,437,492.71,451.14c2.66,7.58-17.44,16.73-30.78,33.07s-16.19,34.31-24.07,37.08a4.35,4.35,0,0,1-1.44.24c-18.17,0-65-102-65-102m-25.21-18.94,11.58,25.21c.49,1.06,12.1,26.27,26.18,51.93,26.86,48.93,40,58.76,52.49,58.76a19.31,19.31,0,0,0,6.41-1.09c9.95-3.49,14.35-12.51,19-22.05,3-6.22,6.47-13.27,11.71-19.69,4.75-5.82,10.93-10.87,16.38-15.33a99.66,99.66,0,0,0,11.37-10.23c7.87-8.85,7.36-16.83,5.56-22-3.5-10-14.36-15.14-30.74-20.25-10.74-3.35-25.18-6.91-42.91-10.56-29.77-6.14-58.4-10.44-59.61-10.62l-27.43-4.11Z"/><path class="cls-1" d="M843.58,529a11.78,11.78,0,0,1-3.92-.67c-7-2.47-10.62-9.79-14.76-18.26-3.21-6.59-6.85-14.05-12.64-21.15-5.22-6.4-11.72-11.7-17.44-16.39-9.59-7.83-17.87-14.6-14.6-23.91,2.18-6.21,9.42-13.86,68.09-25.95,29.57-6.09,58.9-10.5,59.2-10.54l13.72-2.06-5.8,12.61c-.12.25-12,26-25.94,51.45C863,522.37,851.79,529,843.59,529Z"/><path d="M908.62,419.57s-46.87,102-65,102a4.35,4.35,0,0,1-1.44-.24c-7.88-2.77-10.73-20.73-24.07-37.08s-33.44-25.49-30.78-33.07c5-14.15,121.33-31.57,121.33-31.57m25.21-18.94-27.43,4.11c-1.21.18-29.84,4.48-59.61,10.62-17.73,3.65-32.17,7.21-42.91,10.56-16.38,5.11-27.24,10.28-30.74,20.25-1.8,5.14-2.31,13.12,5.56,22a99.66,99.66,0,0,0,11.37,10.23c5.45,4.46,11.63,9.51,16.38,15.33,5.24,6.42,8.68,13.47,11.71,19.69,4.66,9.54,9.06,18.56,19,22.05a19.31,19.31,0,0,0,6.41,1.09c12.5,0,25.63-9.83,52.49-58.76,14.08-25.66,25.69-50.87,26.18-51.93l11.58-25.21Z"/></svg>