<svg id="Work" xmlns="http://www.w3.org/2000/svg" viewBox="0 0 1280 1280"><defs><style>.cls-1{fill:#7a7875;}</style></defs><path class="cls-1" d="M515.24,586.63c-13.86,0-25.39-9.42-32.45-26.49-8.58-20.75-10.82-55.72-1.09-65.44,3.05-3.06,7.77-4.54,14.42-4.54,12.05,0,29.1,5,42.42,12.41,17.79,9.92,27.72,23.11,28,37.15a9,9,0,0,1-.18,1.93c-1.85,9.19-5.6,22.44-16.72,31.48-10.8,8.79-22.09,11.42-32.73,13.35a8.88,8.88,0,0,1-1.62.15Z"/><path d="M496.12,497.66c20,0,62.45,16.51,62.88,42.18a2,2,0,0,1,0,.34c-2.26,11.17-6.14,20.66-14.1,27.13-9.55,7.77-19.5,10-29.35,11.8l-.27,0C482.14,579.1,478,509,487,500c1.59-1.59,4.84-2.34,9.12-2.34m0-15v0h0c-8.62,0-15.26,2.26-19.73,6.73-6.05,6.06-8.91,17.41-8.48,33.75.37,14,3.26,28.54,7.95,39.87,11.19,27.06,29.48,31.11,39.38,31.12a16.94,16.94,0,0,0,3-.26c11.62-2.12,24-5,36.15-14.92,13-10.57,17.25-25.49,19.33-35.8a16.39,16.39,0,0,0,.33-3.56c-.29-16.82-11.58-32.3-31.8-43.57-14.57-8.12-32.66-13.36-46.08-13.36Z"/><path class="cls-1" d="M764.75,586.63a9.42,9.42,0,0,1-1.6-.14c-10.66-1.94-21.95-4.57-32.75-13.36-11.12-9-14.87-22.29-16.72-31.47a9.14,9.14,0,0,1-.18-1.95c.24-14,10.17-27.22,28-37.14,13.32-7.42,30.37-12.41,42.42-12.41,6.65,0,11.37,1.48,14.42,4.54,9.73,9.72,7.49,44.69-1.09,65.44-7.06,17.07-18.59,26.48-32.45,26.49Z"/><path d="M783.88,497.66c4.28,0,7.53.75,9.12,2.34,9,9,4.86,79.1-28.25,79.13l-.27,0c-9.85-1.8-19.8-4-29.35-11.8-8-6.47-11.84-16-14.1-27.13a2,2,0,0,1,0-.34c.43-25.67,42.89-42.18,62.88-42.18m0-15c-13.42,0-31.51,5.24-46.07,13.36-20.23,11.27-31.52,26.75-31.81,43.57a16.39,16.39,0,0,0,.33,3.56c2.08,10.31,6.35,25.23,19.33,35.8,12.19,9.91,24.53,12.8,36.13,14.91a16.38,16.38,0,0,0,3,.27c9.91,0,28.2-4.06,39.39-31.12,4.69-11.33,7.58-25.86,8-39.87.43-16.34-2.43-27.69-8.48-33.75-4.47-4.47-11.11-6.73-19.73-6.73Z"/></svg>