<svg id="Work" xmlns="http://www.w3.org/2000/svg" viewBox="0 0 1280 1280"><defs><style>.cls-1{fill:#7a7875;}</style></defs><path class="cls-1" d="M731.64,579.52c-18.71,0-32-4.18-40.56-12.78C681,556.6,681,544,681,537.3v-2.39l.16-1.06c2.64-17.46-7.18-37.51-18.56-60.72-15.52-31.64-33.1-67.5-26.69-111.51l7.33-50.3,18.6,47.31c5.28,13.44,27.35,39.78,48.69,65.24,43.84,52.31,85.25,101.72,73.51,132.82-3,8-10.86,18.28-30.87,21.32l-.35,0A171.42,171.42,0,0,1,731.64,579.52Z"/><path d="M646.57,340.35l8.26,21c5.74,14.58,27.21,40.2,49.94,67.32C745.29,477.05,787.2,527.05,777,554c-3.39,9-11.79,14.55-25,16.56l-.15,0a164.34,164.34,0,0,1-20.23,1.4c-16.62,0-28.15-3.46-35.26-10.58-7.92-7.94-7.9-18.07-7.89-24.13v-1.86l.07-.47c3-19.79-7.32-40.81-19.25-65.15-15-30.66-32.07-65.42-26-107.13l3.26-22.35m-6.7-58.05-8.14,55.88-3.26,22.36c-6.75,46.31,12.17,84.89,27.37,115.89,10.83,22.08,20.18,41.15,17.89,56.3l-.07.47-.18,1.18v2.87c0,7.31,0,22.45,12.28,34.79,10.06,10.08,25.06,15,45.87,15a178.79,178.79,0,0,0,22.1-1.52h.1l.11,0,.15,0h.17c23.6-3.59,33-16.17,36.76-26.09,8.5-22.48-6.52-49.66-18.55-68.15-14.77-22.67-35.84-47.82-56.22-72.13-20-23.85-42.63-50.87-47.47-63.18l-8.26-21L639.87,282.3Z"/></svg>