<svg id="Work" xmlns="http://www.w3.org/2000/svg" viewBox="0 0 1280 1280"><defs><style>.cls-1{fill:#7a7875;}</style></defs><path class="cls-1" d="M516.63,606.5c-20.94,0-37.94-29.27-46.2-46.72C463,544.15,462,523,461.29,507.55c-.21-4.22-.48-10-.84-11.62-.58-2.39-6.23-10.23-12.37-16.39l-19.18-19.2,26.88-3.71a73.53,73.53,0,0,1,9.51-.54c11.4,0,33.07,2.16,50.08,16.62,11.32,9.62,17.76,19.2,22.93,26.9,4.78,7.11,8.56,12.73,15.11,17.36a73.46,73.46,0,0,0,16,8.77c5.17,2.14,12.26,5.09,14.74,14.21l.1.34.07.35c4.58,21.07-21.44,46-26.75,50C549.15,597,531.29,606.5,516.63,606.5Z"/><path d="M465.29,463.59c10.37,0,30,1.93,45.22,14.84,10.53,8.95,16.39,17.67,21.56,25.36,5,7.45,9.33,13.88,17,19.31a81.15,81.15,0,0,0,17.44,9.56c4.56,1.9,8.87,3.68,10.39,9.26l0,.15,0,.16c3.44,15.83-17.67,37.65-24,42.41-7.33,5.55-23.69,14.36-36.41,14.36-17.93,0-34.71-32.48-39.42-42.43-6.77-14.27-7.73-34.56-8.43-49.38-.26-5.47-.51-10.64-1-12.89-1.11-5-9.08-14.75-14.39-20.06l-8.52-8.53,11.95-1.65a67.26,67.26,0,0,1,8.48-.47m0-15a81.58,81.58,0,0,0-10.53.61l-11.95,1.65L413,455l21.3,21.33,8.52,8.54c4.86,4.87,9.25,10.81,10.41,13.11.23,2,.46,6.7.61,9.93C454.56,524,455.6,546,463.65,563A168.37,168.37,0,0,0,480,590.52C491.65,606.1,504,614,516.63,614c17.8,0,37.53-11.39,45.47-17.41,4.66-3.53,12.55-11.42,18.84-20.39,9.52-13.56,13.12-26.06,10.71-37.16l0-.14-.08-.38-.11-.38,0-.15c-3.46-12.68-13.64-16.91-19.11-19.18a65.64,65.64,0,0,1-14.54-8c-5.43-3.83-8.7-8.69-13.22-15.41-5.43-8.08-12.18-18.14-24.29-28.43-18.84-16-42.51-18.41-54.94-18.41Z"/><path class="cls-1" d="M763.37,606.5c-14.66,0-32.52-9.5-40.94-15.89-5.31-4-31.33-28.91-26.75-50l.07-.34.1-.35c2.48-9.11,9.57-12.06,14.74-14.2a73.46,73.46,0,0,0,16-8.77c6.55-4.63,10.33-10.25,15.11-17.36,5.17-7.7,11.61-17.28,22.93-26.9,17-14.46,38.68-16.62,50.08-16.62a73.53,73.53,0,0,1,9.51.54l26.91,3.71-19.21,19.21c-6.15,6.15-11.79,14-12.37,16.38-.36,1.62-.63,7.4-.84,11.62-.73,15.45-1.73,36.6-9.14,52.23C801.31,577.23,784.31,606.5,763.37,606.5Z"/><path d="M814.71,463.59a67.26,67.26,0,0,1,8.48.47l12,1.65-8.54,8.53c-5.3,5.31-13.27,15.05-14.38,20.06-.5,2.25-.75,7.42-1,12.89-.7,14.82-1.66,35.11-8.43,49.38C798.08,566.52,781.3,599,763.37,599c-12.72,0-29.08-8.81-36.41-14.36-6.28-4.76-27.39-26.58-24-42.41l0-.16,0-.15c1.52-5.58,5.83-7.36,10.39-9.26a81.15,81.15,0,0,0,17.44-9.56c7.69-5.43,12-11.86,17-19.31,5.17-7.69,11-16.41,21.56-25.36,15.18-12.91,34.85-14.84,45.22-14.84m0-15c-12.43,0-36.1,2.39-54.94,18.41-12.11,10.29-18.86,20.35-24.29,28.42-4.53,6.73-7.79,11.59-13.22,15.42a65.64,65.64,0,0,1-14.54,8c-5.47,2.27-15.65,6.5-19.11,19.16l0,.16-.11.38-.08.39,0,.15c-2.41,11.08,1.19,23.59,10.71,37.15,6.29,9,14.18,16.86,18.84,20.39,7.94,6,27.67,17.41,45.47,17.41,12.64,0,25-7.9,36.67-23.48A168.37,168.37,0,0,0,816.35,563c8-17,9.09-39,9.86-55.08.15-3.26.38-8,.61-10,1.16-2.3,5.55-8.24,10.41-13.11l8.53-8.53L867.1,455l-29.9-4.12-12-1.65a81.58,81.58,0,0,0-10.53-.61Z"/></svg>