<svg id="Work" xmlns="http://www.w3.org/2000/svg" viewBox="0 0 1280 1280"><defs><style>.cls-1{opacity:0;}.cls-2{fill:#7a7875;}</style></defs><g class="cls-1"><path class="cls-2" d="M487,465.5c-6,0-14.1-3.76-18.67-21.66-5-19.68-5.33-59.59,12-69.07,3.69-2,8.35-3,14.26-3,14.5,0,33.12,6.05,45.71,11.71,19.38,8.71,29.21,17.64,29.21,26.52,0,9.86-10,13.5-21.7,17.72-6.95,2.52-14.84,5.37-21.89,9.68C518.1,442.17,512.19,448,507,453.15,500.26,459.78,494.46,465.5,487,465.5Z"/><path d="M494.58,379.27c23.79,0,67.42,19.22,67.42,30.73,0,8-22,10-40,21s-26.64,27-35,27c-16.3,0-20.16-67.3-3.08-76.65,2.64-1.44,6.32-2.08,10.66-2.08m0-15h0c-7.19,0-13,1.28-17.85,3.92-10.08,5.52-16.21,17.82-18.24,36.57-1.47,13.58-.5,28.89,2.58,40.94C467.14,469.45,479.92,473,487,473c10.54,0,17.68-7.05,25.24-14.51,4.93-4.86,10.51-10.37,17.58-14.69,6.41-3.91,13.91-6.63,20.54-9a99,99,0,0,0,14.11-5.89C574.83,423.15,577,415.45,577,410c0-12.27-11-23.18-33.64-33.36-17.21-7.75-35.45-12.37-48.78-12.37Z"/></g><g class="cls-1"><path class="cls-2" d="M794.81,472.5c-7.46,0-13.26-5.72-20-12.35-5.22-5.14-11.13-11-18.94-15.75-7-4.31-14.94-7.16-21.89-9.68-11.64-4.22-21.7-7.86-21.7-17.72,0-8.88,9.83-17.81,29.21-26.52,12.59-5.66,31.21-11.71,45.72-11.71,5.9,0,10.56,1,14.25,3,17.32,9.48,17,49.39,12,69.07C808.91,468.74,800.8,472.5,794.81,472.5Z"/><path d="M787.24,386.27c4.33,0,8,.64,10.65,2.08C815,397.7,811.11,465,794.81,465c-8.36,0-17-16-35-27s-40-13-40-21c0-11.51,43.63-30.73,67.43-30.73m0-15c-13.33,0-31.57,4.62-48.79,12.37-22.64,10.18-33.64,21.09-33.64,33.36,0,5.45,2.17,13.15,12.53,18.88a99.45,99.45,0,0,0,14.11,5.89c6.63,2.4,14.13,5.12,20.54,9,7.07,4.32,12.65,9.83,17.58,14.69C777.13,473,784.27,480,794.81,480c7.08,0,19.86-3.55,25.94-27.3,3.08-12.05,4-27.36,2.58-40.94-2-18.75-8.16-31.05-18.24-36.57-4.82-2.64-10.66-3.92-17.85-3.92Z"/></g></svg>