<svg id="Work" xmlns="http://www.w3.org/2000/svg" viewBox="0 0 1280 1280"><defs><style>.cls-1{fill:#7a7875;}</style></defs><path class="cls-1" d="M741.85,564.9a8.73,8.73,0,0,1-1.54-.13c-10.66-1.85-22-4.38-32.86-13.07-11.19-9-15.05-22.16-17-31.32a9,9,0,0,1-.19-2c.25-30.63,46.31-50.16,70.32-50.16,6.45,0,11.06,1.44,14.09,4.42,9.8,9.64,7.87,44.63-.54,65.45-6.91,17.13-18.36,26.63-32.22,26.76Z"/><path d="M760.6,475.77c4.13,0,7.27.73,8.83,2.27,9.08,8.92,5.54,79.05-27.57,79.36h0a1.23,1.23,0,0,1-.27,0c-9.86-1.71-19.82-3.85-29.44-11.54-8-6.41-12-15.86-14.33-27a1.31,1.31,0,0,1,0-.34c.21-25.8,43-42.72,62.82-42.72m0-15c-13.39,0-31.51,5.35-46.16,13.63-20.28,11.45-31.52,27.07-31.66,44a16.83,16.83,0,0,0,.35,3.55c2.17,10.29,6.56,25.18,19.64,35.64,12.27,9.8,24.64,12.59,36.25,14.6a17,17,0,0,0,2.83.24H742c9.86-.09,28.11-4.3,39.07-31.46,4.59-11.36,7.36-25.92,7.61-39.93.28-16.34-2.67-27.67-8.78-33.67-4.43-4.36-10.94-6.57-19.34-6.57Z"/></svg>