<svg id="Work" xmlns="http://www.w3.org/2000/svg" viewBox="0 0 1280 1280"><defs><style>.cls-1{fill:#7a7875;}</style></defs><path class="cls-1" d="M497.82,598.3c-34,0-68.27-38.37-91.66-102.64L401.57,483l13.15,2.7c17.54,3.61,34.48,5.45,50.85,7.22,38.84,4.21,72.39,7.85,82.86,35.41l.28.74.12.79c1.56,10.23,2.71,25.38-5.36,38.88-7.86,13.15-18.19,19.89-29,26.19l-.58.34-.64.23A45,45,0,0,1,497.82,598.3Z"/><path d="M413.21,493.09C473,505.38,528.8,497.84,541.41,531c1.93,12.6,1.5,24.06-4.38,33.9-7.06,11.81-16.66,17.92-26.31,23.57a37.57,37.57,0,0,1-12.9,2.3c-31.38,0-63.42-39.48-84.61-97.71M389.93,473l9.18,25.22C410.3,529,424.53,555,440.27,573.5c18,21.13,37.87,32.3,57.55,32.3a52.58,52.58,0,0,0,18-3.21l1.27-.46,1.17-.68c11.19-6.55,22.85-14.16,31.62-28.82,9.3-15.57,8.07-32.49,6.33-43.86l-.24-1.58-.56-1.49c-5.74-15.09-17.83-25.38-37-31.46-14.77-4.69-32.9-6.65-52.1-8.73-16.2-1.76-32.95-3.58-50.15-7.11l-26.3-5.4Z"/><path class="cls-1" d="M782.18,598.3a45,45,0,0,1-15.46-2.76l-.64-.23-.58-.34c-10.78-6.3-21.11-13-29-26.19-8.07-13.5-6.92-28.65-5.36-38.88l.12-.79.28-.74c10.47-27.56,44-31.2,82.86-35.41,16.37-1.77,33.31-3.61,50.85-7.22l13.15-2.7-4.59,12.62c-23.39,64.27-57.66,102.64-91.65,102.64Z"/><path d="M866.79,493.09c-21.19,58.23-53.23,97.71-84.61,97.71a37.57,37.57,0,0,1-12.9-2.3c-9.65-5.65-19.25-11.76-26.31-23.57-5.88-9.84-6.31-21.3-4.38-33.9,12.61-33.19,68.39-25.65,128.2-37.94M890.07,473l-26.3,5.4c-17.2,3.53-33.95,5.35-50.15,7.11-19.2,2.08-37.33,4-52.1,8.73-19.13,6.08-31.22,16.37-37,31.46l-.56,1.49-.24,1.58c-1.74,11.37-3,28.29,6.33,43.86,8.77,14.66,20.43,22.27,31.62,28.82l1.17.68,1.27.46a52.58,52.58,0,0,0,18,3.21c19.68,0,39.59-11.17,57.55-32.3,15.74-18.51,30-44.54,41.16-75.28L890.07,473Z"/></svg>