<svg id="Work" xmlns="http://www.w3.org/2000/svg" viewBox="0 0 1280 1280"><defs><style>.cls-1{fill:#7a7875;}</style></defs><path class="cls-1" d="M731.52,586.31a49.33,49.33,0,0,1-16.61-2.91l-.62-.22-.58-.33c-11.78-6.75-23.07-14-31.74-28-8.88-14.41-7.81-30.68-6.24-41.66l.12-.8.28-.75c11-29.51,47.49-33.47,89.73-38.07,17.92-1.94,36.44-4,55.63-7.89l13-2.67-4.48,12.54c-11.54,32.34-26.29,59.61-42.64,78.88-17.72,20.88-37,31.91-55.9,31.91Z"/><path d="M823,473c-22.51,63-57.13,105.81-91.48,105.81a41.5,41.5,0,0,1-14.08-2.47c-10.64-6.09-21.22-12.69-29.08-25.45-6.56-10.64-7.16-23-5.2-36.66C696.56,478.31,757.7,486.38,823,473m23.08-20L820,458.31c-18.85,3.86-37.19,5.85-54.94,7.78-20.9,2.27-40.65,4.42-56.62,9.47C688,482,675.08,493,669.1,509l-.56,1.52-.23,1.6c-1.74,12.13-2.88,30.17,7.28,46.66,9.58,15.55,22.24,23.64,34.39,30.6l1.16.66,1.25.45a56.79,56.79,0,0,0,19.13,3.34c21.13,0,42.43-11.95,61.62-34.55,16.93-20,32.14-48,44-81.22l9-25.08Z"/></svg>