<svg id="Work" xmlns="http://www.w3.org/2000/svg" viewBox="0 0 1280 1280"><defs><style>.cls-1{fill:#7a7875;}</style></defs><path class="cls-1" d="M751.06,569.38c-11.55-1.68-23.85-4.21-36.1-14.79-9.27-8-15.63-20.22-20-38.43l-.15-.62,0-.65c-2.2-33.4,25-53,56.47-75.68,13.34-9.61,27.13-19.55,40.72-31.68l11.3-10.09,1.17,15.11c3.29,42.6.9,79.62-6.92,107.08-11.15,39.17-30.49,48.7-44.75,49.8l-.83.07Z"/><path d="M796.91,413.13c6.4,82.82-9.22,146.08-44.77,148.82-10.61-1.54-21.37-3.62-32.27-13-9.09-7.85-14.15-20-17.65-34.51-2.75-41.74,48.3-59.87,94.69-101.27m12.62-31.37-22.61,20.18c-13.29,11.86-26.92,21.69-40.1,31.19-15.71,11.31-30.54,22-41.35,34.05-13.41,14.94-19.37,30.71-18.22,48.21l.08,1.28.3,1.25c3,12.47,8.62,30.42,22.43,42.35S737.34,575,750,576.8l1.65.24,1.67-.13c12.66-1,24.16-7.24,33.24-18.1,7.62-9.11,13.72-21.6,18.14-37.13,8.06-28.3,10.55-66.23,7.19-109.71l-2.34-30.21Z"/></svg>