<svg id="Work" xmlns="http://www.w3.org/2000/svg" viewBox="0 0 1280 1280"><defs><style>.cls-1{fill:#7a7875;}</style></defs><path class="cls-1" d="M544.27,606.9c-18.18,0-31.73-11.81-36.87-18.79-3.77-5.11-5.08-11.81-6.16-17.84-4.83-.95-11.53-2.14-17.24-3.15-30.06-5.33-44.91-8.23-51.32-11.84l-3.38-1.91L427.44,550c-9.88-18.21-13.94-50.06-14.65-56.26-.63-5.53.82-12.54,3.67-25.48,1.32-6,2.76-12.52,3.77-18.55C400.11,439.85,377.72,420,374.05,380l-3.18-34.58,25.7,23.35c16.61,15.1,38.69,26.28,58.17,36.15,20,10.13,37.27,18.88,45.62,30.55l.34.48.29.5c7.92,13.39-2.33,38.83-2.43,39.08a31.13,31.13,0,0,1-5.26,7.95c33.07,5.64,54.25,11.29,63.42,20.73,14,14.37,29.84,50,30,63.28l0,.9c.27,15.17-4,26.38-26.29,35.32A43.29,43.29,0,0,1,544.27,606.9Z"/><path d="M380.11,363.92l11.42,10.38c17.36,15.78,39.92,27.21,59.82,37.29,19.12,9.68,35.63,18.05,42.9,28.22l.16.22.13.22c5.24,8.86-1.36,28.77-2.88,32.32-1.87,4.38-7,9.41-14.12,15.91l.79.13c30.16,4.75,63.15,10.67,73,20.81,13.35,13.72,27.76,47.69,27.91,58.16l0,.91c.19,11-1.27,20.08-21.59,28.24a35.8,35.8,0,0,1-13.42,2.67c-15.22,0-26.82-10.3-30.84-15.74-2.88-3.91-4-10-4.94-15.44-.24-1.36-.54-3-.82-4.27-4.24-1-14.16-2.76-22.39-4.22-25.92-4.59-43.33-7.84-48.92-11l-1.5-.85-.83-1.51c-9.41-17.35-13.37-49.88-13.79-53.54-.5-4.33.95-11.21,3.55-23,1.77-8.06,3.75-17,4.68-24.67-20.35-8.44-43.35-26.63-47-65.88l-1.41-15.37m-18.47-37.05,3.53,38.42,1.41,15.37c1.92,20.85,8.85,38.59,20.61,52.72a87.83,87.83,0,0,0,24.67,20.38c-.83,4.29-1.81,8.71-2.72,12.83-3,13.76-4.57,21.25-3.8,28,.74,6.44,5,39.55,15.51,59l.83,1.52,2.05,3.79,3.76,2.12,1.5.85c7.46,4.2,22.08,7.09,53.67,12.69,3.76.67,8.21,1.46,12.19,2.19,1.15,5.31,2.92,11,6.51,15.87,6,8.11,21.74,21.84,42.91,21.84a50.79,50.79,0,0,0,19-3.75c27.7-11.13,31.26-27,31-42.42v-.9c-.22-15-16.47-52.25-32.16-68.37-9.43-9.7-27.64-15.51-56.47-20.92,1.44-3.61,11.24-29.5,1.82-45.43l-.13-.22-.33-.56-.38-.53-.15-.21c-9.41-13.17-27.45-22.3-48.32-32.88-19.06-9.66-40.66-20.6-56.52-35l-11.43-10.38-28.55-25.95Z"/><path class="cls-1" d="M735.73,606.9a43.29,43.29,0,0,1-16.22-3.21c-22.25-8.94-26.56-20.14-26.28-35.33v-.91c.2-13.28,16-48.89,30-63.26,9.17-9.44,30.35-15.09,63.42-20.73a31.13,31.13,0,0,1-5.26-7.95c-.1-.25-10.35-25.69-2.43-39.08l.29-.5.34-.47C788,423.78,805.26,415,825.25,404.9c19.49-9.87,41.57-21,58.18-36.15l25.7-23.35L906,380c-3.67,40-26.06,59.87-46.18,69.69,1,6,2.45,12.59,3.77,18.55,2.85,12.94,4.3,19.95,3.67,25.48-.71,6.2-4.77,38.05-14.65,56.26l-1.86,3.41-3.38,1.91c-6.41,3.61-21.26,6.51-51.29,11.84-5.73,1-12.44,2.2-17.27,3.15-1.08,6-2.39,12.73-6.16,17.84C767.46,595.09,753.91,606.9,735.73,606.9Z"/><path d="M899.89,363.92l-1.41,15.37c-3.6,39.25-26.6,57.44-47,65.88.93,7.66,2.91,16.61,4.68,24.67,2.6,11.79,4,18.67,3.55,23-.42,3.66-4.38,36.19-13.79,53.54l-.83,1.51-1.5.85c-5.59,3.15-23,6.4-48.92,11-8.23,1.46-18.15,3.22-22.39,4.22-.28,1.23-.58,2.91-.82,4.27-1,5.4-2.06,11.53-4.94,15.44-4,5.44-15.62,15.74-30.84,15.74a35.8,35.8,0,0,1-13.42-2.67c-20.32-8.16-21.78-17.23-21.59-28.24l0-.91c.15-10.47,14.56-44.44,27.91-58.16,9.87-10.14,42.86-16.06,73-20.81l.79-.13c-7.11-6.5-12.25-11.53-14.12-15.91-1.52-3.55-8.12-23.46-2.88-32.32l.13-.22.16-.22c7.27-10.17,23.78-18.54,42.9-28.22,19.9-10.08,42.46-21.51,59.82-37.29l11.42-10.38m18.47-37.05-28.55,25.95L878.38,363.2c-15.86,14.41-37.46,25.35-56.51,35C801,408.79,783,417.92,773.54,431.09l-.15.21-.38.53-.33.56-.13.23c-9.42,15.92.38,41.81,1.82,45.42-28.83,5.41-47,11.22-56.47,20.92-15.69,16.12-31.94,53.39-32.16,68.4v.88c-.28,15.44,3.28,31.28,31,42.41a50.79,50.79,0,0,0,19,3.75c21.17,0,36.93-13.73,42.91-21.84,3.59-4.87,5.36-10.56,6.51-15.87,4-.73,8.42-1.52,12.17-2.18,31.61-5.61,46.23-8.5,53.68-12.7l1.51-.85,3.76-2.12,2.05-3.79.83-1.51c10.54-19.43,14.77-52.54,15.51-59,.77-6.72-.77-14.21-3.8-27.95-.91-4.13-1.89-8.56-2.72-12.85a87.83,87.83,0,0,0,24.67-20.38c11.76-14.13,18.69-31.87,20.61-52.72l1.41-15.37,3.53-38.42Z"/></svg>