<svg id="Work" xmlns="http://www.w3.org/2000/svg" viewBox="0 0 1280 1280"><defs><style>.cls-1{fill:#7a7875;}</style></defs><path class="cls-1" d="M755.46,588.56a44.15,44.15,0,0,1-19.7-4.71c-24.47-12.11-25.33-25.53-24.11-38.23l.09-.94c1.26-13.67,20.49-49.13,36.08-62.84,10.27-9,32.93-13.16,68.14-16.35a33.38,33.38,0,0,1-5.33-9.29c-.09-.26-8.59-27.21.55-40.25l.34-.48.38-.45c9.5-11.33,28.07-19,49.56-27.85,21-8.68,44.88-18.52,63.39-32.88L952.29,333l-5.85,34.23c-7,41.17-31.92,59.85-53.58,68.3.56,6.46,1.55,13.55,2.45,20,1.91,13.6,2.85,20.95,1.76,26.55-1.24,6.36-8,39-19.66,57l-2.11,3.26-3.52,1.64c-6.87,3.2-22.47,5-54,8.09-6.46.64-13.55,1.33-18.54,1.92-1.62,6.2-3.49,13.15-7.81,18.15C784.88,579.69,771.52,588.56,755.46,588.56Z"/><path d="M941.64,350.75,939,366c-6.9,40.41-32.27,57.36-54,64.41.34,8.07,1.68,17.61,2.88,26.18,1.74,12.41,2.68,19.65,1.82,24.07-.73,3.75-7.45,37.13-18.59,54.33l-.94,1.45-1.57.73c-6,2.8-24.31,4.76-51.55,7.43-9.19.9-19.41,1.9-23.73,2.59-.4,1.27-.87,3.07-1.24,4.52-1.44,5.5-3.06,11.74-6.33,15.52-4.45,5.15-15.83,13.86-30.3,13.86a36.58,36.58,0,0,1-16.37-3.93c-20.28-10-21.06-19.48-20-30.8l.09-.94c1-10.81,18.65-44.8,33.57-57.92,11-9.67,45.65-13.14,77.28-15.64l1.33-.1c-7-7.48-12-13.2-13.65-17.93-1.28-3.79-6.5-24.86-.41-33.54l.15-.21.17-.2c8.32-9.93,26.1-17.26,46.68-25.75,21.48-8.86,45.82-18.9,65.13-33.89l12.19-9.46m21.29-35.5L932.45,338.9l-12.2,9.46c-17.7,13.75-41,23.38-61.64,31.87-22.42,9.25-41.77,17.23-52.46,30l-.15.17-.44.52-.38.55-.15.21c-11.58,16.52-1.61,46.64-1.51,46.94s.13.37.19.55c-30.77,3.28-50.31,7.78-60.85,17.05-10.87,9.57-20.45,25.28-25.2,33.79-3.69,6.63-12.39,23.22-13.39,34l-.09.92c-1.5,15.7.88,32.1,28.25,45.65a51.55,51.55,0,0,0,23,5.49c18.59,0,34.06-10.26,41.65-19,4.15-4.8,6.41-10.69,8-16.17,4.23-.44,9.07-.92,13.38-1.34,33.13-3.25,48.47-5.06,56.42-8.76l1.57-.73,3.91-1.82,2.34-3.62.94-1.45c12.42-19.16,19.45-53,20.73-59.63,1.32-6.77.33-14.61-1.69-29-.64-4.56-1.33-9.46-1.86-14.18a90.58,90.58,0,0,0,27.45-19.13c13.27-13.6,21.85-31.32,25.5-52.67l2.6-15.21,6.5-38Z"/></svg>