<svg id="Work" xmlns="http://www.w3.org/2000/svg" viewBox="0 0 1280 1280"><defs><style>.cls-1{fill:#7a7875;}.cls-2{fill:#4d4d4d;}</style></defs><path class="cls-1" d="M759.32,607.5l-.66-.12c-12.29-2.23-24.3-5-36.18-14.71-12.2-9.92-16.31-24.55-18.33-34.7l-.16-.78v-.8c.42-29.47,30.69-44.36,65.75-61.6,14.78-7.27,30.06-14.79,45.32-24.18l11.43-7V477c0,36.58-5.57,68.07-16.12,91.06-15,32.6-35.65,39.44-50.38,39.44Z"/><path d="M819,477c0,70.5-21.5,123-59,123-11-2-22.11-4.46-32.79-13.14C718.32,579.62,714,569,711.5,556.5,712,521,767,509,819,477m15-26.84-22.86,14.07c-14.95,9.2-30.08,16.63-44.7,23.83-17.33,8.52-33.69,16.57-46,26-15.9,12.26-23.74,26.06-24,42.21l0,1.59.31,1.56c2.26,11.28,6.88,27.6,21,39,13.25,10.78,26.81,14,39.57,16.27l1.33.24H760a53.17,53.17,0,0,0,34.59-12.74c8.93-7.38,16.53-17.83,22.61-31.07,11-24,16.8-56.54,16.8-94.19V450.16Z"/><path class="cls-1" d="M534.17,515.5l-.17.5-57,47-1.17.58C485.91,586.33,500.87,600,520,600c11-2,22.12-4.46,32.79-13.14C561.68,579.62,566,569,568.5,556.5,568.25,538.78,554.42,526.92,534.17,515.5Z"/><path class="cls-2" d="M476.21,564.43C480,571,498,592,526,564s15.71-44.91,7.36-49S499.5,507.5,486,521,472.42,557.86,476.21,564.43Z"/><path d="M513.58,511.41c8.34,0,15.9,1.76,19.78,3.63a17.31,17.31,0,0,1,1.53.87C554.75,527.2,568.25,539,568.5,556.5c-2.5,12.5-6.82,23.12-15.71,30.36C542.12,595.54,531,598,520,600c-18.87,0-33.69-13.31-43.76-35.52l0-.05c-3.79-6.57-3.71-29.93,9.79-43.43,7.24-7.24,17.93-9.59,27.58-9.59m0-15c-11,0-26.63,2.43-38.19,14-8.15,8.16-13.69,19.78-15.61,32.73-1.62,11-.48,21.41,3.05,28.1,6,13.13,13.56,23.51,22.38,30.87,10.28,8.57,22,12.91,34.79,12.91h1.35l1.33-.24c12.76-2.32,26.32-5.49,39.57-16.27,14.08-11.45,18.7-27.77,21-39l.31-1.56,0-1.59c-.17-11.91-4.64-22.82-13.3-32.45-6.36-7.07-15.14-13.69-27.59-20.8a30.36,30.36,0,0,0-2.72-1.5c-6.54-3.16-16.62-5.13-26.31-5.13Z"/></svg>