<svg id="Work" xmlns="http://www.w3.org/2000/svg" viewBox="0 0 1280 1280"><defs><style>.cls-1{fill:#7a7875;}</style></defs><path class="cls-1" d="M434.79,526.5l-1.71-.12-1.14-.28c-2.37-.6-6.79-1.7-23.44-20.51A262.88,262.88,0,0,1,379.37,466c-9.11-15.47-15.46-39.14-16.58-46.41l-4.68-30.56,25.6,17.33c1.69,1.15,4.32,3.2,8.68,6.59,7.2,5.6,18,14,28.27,21.09,7.61,5.25,15.45,10.51,22.36,15.16,6.54,4.4,12.17,8.18,16.33,11.08,7.29,5.08,11.69,8.15,12.3,15,.76,8.46-5.16,13.12-10.89,17.63a55.33,55.33,0,0,0-5.51,4.71c-1.09,1.74-2.49,7.08-3.25,10-2.09,8-4.95,18.85-16.74,18.85Z"/><path d="M368.12,404.91l11.38,7.71c1.49,1,4.21,3.12,8.33,6.33,7.22,5.61,18.12,14.1,28.58,21.31,7.62,5.26,15.49,10.54,22.43,15.21,6.5,4.36,12.11,8.14,16.22,11,6.6,4.6,8.82,6.16,9.12,9.53.4,4.41-3,7.06-8.06,11.07-2.52,2-6,4.69-7.1,6.42-1.76,2.68-3.15,8-4.27,12.25-1.95,7.41-3.48,13.26-9.49,13.26H435l-.78,0-.5-.13c-3.75-.93-12.75-10.41-19.64-18.2a256.65,256.65,0,0,1-28.29-38.38c-8.47-14.39-14.61-37.12-15.62-43.75l-2.09-13.58m-20-31.68,5.21,34,2.08,13.58c1,6.69,7.33,31.76,17.52,49.08a271.14,271.14,0,0,0,30,40.71c15.21,17.19,21.51,21.38,27.23,22.81l.51.13,1.28.32,1.32.09.78.05.52,0h.73a21.84,21.84,0,0,0,19.26-11.36c2.38-4.13,3.58-8.68,4.74-13.09.5-1.92,1.48-5.65,2.2-7.48,1.06-.95,2.93-2.42,3.92-3.21a52.5,52.5,0,0,0,8.35-7.58,22.32,22.32,0,0,0,5.39-16.62c-.92-10.34-7.67-15-15.48-20.49-4.21-2.94-9.87-6.74-16.41-11.14-6.92-4.65-14.74-9.9-22.31-15.12-10.1-7-20.79-15.29-27.87-20.8l-.06,0c-4.48-3.49-7.18-5.59-9.08-6.87l-11.38-7.71-28.44-19.26Z"/><path class="cls-1" d="M843.74,526.5c-11.79,0-14.65-10.9-16.74-18.85-.76-2.89-2.17-8.24-3.25-10a57.3,57.3,0,0,0-5.49-4.7c-5.75-4.52-11.67-9.18-10.92-17.64.63-6.93,4.81-9.89,14.93-17.05,5.73-4.06,13.59-9.44,21.9-15.14,18.06-12.38,42.75-29.31,49.61-35.54l28.48-25.92-6.07,38c-4,24.85-20.28,51.25-33.28,69a303.6,303.6,0,0,1-19.48,24c-9.29,10.26-12.56,12.42-16.37,13.37l-1.14.28-1.62.12h-.56Z"/><path d="M911.48,401.63l-2.69,16.9c-3.73,23.37-19.42,48.66-31.93,65.77a296.28,296.28,0,0,1-19,23.39c-9.34,10.31-11.25,10.78-12.64,11.13l-.5.13-.73,0h-.27c-6,0-7.54-5.85-9.49-13.26-1.12-4.26-2.51-9.57-4.27-12.25-1.13-1.72-4.58-4.44-7.1-6.42-5.09-4-8.46-6.66-8.07-11.07.3-3.24,1.9-4.6,11.79-11.6,5.7-4,13.54-9.4,21.84-15.09,19.22-13.18,43.15-29.58,50.38-36.16l12.66-11.52M933,361.73l-31.65,28.8-12.66,11.52c-6.47,5.89-31.93,23.34-48.77,34.88-8.36,5.73-16.24,11.14-22,15.23-10.68,7.56-17.13,12.12-18.07,22.5a22.39,22.39,0,0,0,5.4,16.63,53.29,53.29,0,0,0,8.34,7.57c1,.79,2.87,2.26,3.93,3.21.72,1.84,1.7,5.56,2.2,7.48,1.16,4.41,2.36,9,4.74,13.1A21.85,21.85,0,0,0,843.74,534h.85l.48,0,.74-.05,1.3-.09,1.26-.32.51-.12c6-1.5,10.5-5,20.11-15.61a313.39,313.39,0,0,0,20-24.62c13.48-18.43,30.43-45.93,34.63-72.26l2.7-16.9L933,361.73Z"/></svg>