<svg id="Work" xmlns="http://www.w3.org/2000/svg" viewBox="0 0 1280 1280"><defs><style>.cls-1{fill:#7a7875;}</style></defs><path class="cls-1" d="M520,607.5c-29.49,0-57.84-46.5-68.66-66.49-21.49-39.72-34.84-85.32-34.84-119V408.58l11.43,7c12.09,7.44,54.48,34.23,92.5,66.62,37.13,31.64,55.31,55.9,55.57,74.16v.8l-.16.78c-2,10.15-6.13,24.78-18.33,34.7-11.88,9.67-23.89,12.48-36.18,14.71l-.66.12Z"/><path d="M424,422c52,32,144,99,144.5,134.5-2.5,12.5-6.82,23.12-15.71,30.36C542.11,595.54,531,598,520,600c-37.5,0-96-107.5-96-178m-15-26.84V422c0,35.39,13.36,81.22,35.75,122.58,10.5,19.4,22.12,36,33.62,47.92C492.74,607.43,506.74,615,520,615h1.35l1.33-.24c12.76-2.32,26.32-5.49,39.57-16.27,14.08-11.45,18.7-27.77,21-39l.31-1.56,0-1.59c-.17-11.93-6.32-25.25-18.81-40.71-9.43-11.68-22.69-24.82-39.4-39.06-38.43-32.74-81.23-59.79-93.43-67.29L409,395.16Z"/><path class="cls-1" d="M759.82,607.5l-.66-.12c-12.29-2.23-24.3-5-36.18-14.71-12.2-9.92-16.31-24.55-18.33-34.7l-.16-.78v-.8c.26-18.26,18.44-42.52,55.57-74.16,38-32.39,80.41-59.18,92.5-66.62l11.43-7V422c0,33.69-13.35,79.29-34.84,119C818.34,561,790,607.5,760.5,607.5Z"/><path d="M856.5,422c0,70.5-58.5,178-96,178-11-2-22.11-4.46-32.79-13.14C718.82,579.62,714.5,569,712,556.5,712.5,521,804.5,454,856.5,422m15-26.84-22.86,14.07c-12.2,7.5-55,34.55-93.43,67.29-16.71,14.24-30,27.38-39.4,39.06C703.32,531,697.17,544.36,697,556.29l0,1.59.31,1.56c2.26,11.28,6.88,27.6,21,39,13.25,10.78,26.81,14,39.57,16.27l1.33.24h1.35c13.26,0,27.26-7.57,41.63-22.5,11.5-12,23.12-28.52,33.62-47.92C858.14,503.22,871.5,457.39,871.5,422V395.16Z"/></svg>