<svg id="Work" xmlns="http://www.w3.org/2000/svg" viewBox="0 0 1280 1280"><defs><style>.cls-1{fill:#7a7875;}</style></defs><path class="cls-1" d="M763.56,594.5l-.78-.17c-11.65-2.54-24-6-35.67-17.35-8.87-8.65-14.44-21.26-17.51-39.67l-.11-.66V536c.39-33.36,29.79-50.69,63.82-70.75,14.43-8.5,29.34-17.3,44.23-28.28l12-8.81V443c0,42.48-5.39,79-15.57,105.63-14.51,37.91-35,45.87-49.56,45.87Z"/><path d="M822,443c0,82.54-21,144-57.63,144-10.74-2.34-21.6-5.22-32-15.39-8.69-8.47-12.91-20.9-15.35-35.54.49-41.56,54.21-55.61,105-93.07m15-29.7-23.9,17.63c-14.58,10.75-29.33,19.44-43.59,27.85-17,10-33,19.44-45,30.53-14.95,13.8-22.32,29-22.53,46.59v1.33l.21,1.31c2.11,12.63,6.44,30.91,19.68,43.81,13.08,12.76,26.59,16.54,39.3,19.31l1.58.34h1.61c12.84,0,25-5.27,35-15.24,8.53-8.44,15.78-20.37,21.55-35.45C831.44,523.84,837,486.39,837,443V413.3Z"/><path class="cls-1" d="M521.88,594.5c-13,0-31.15-7-43.94-40.45-8.89-23.22-13.59-55-13.59-92V447.15l12,8.81c12.88,9.5,25.8,17.12,38.3,24.49,29.81,17.57,55.54,32.74,55.89,62.25v.67l-.11.66c-1.7,10.19-5.16,24.91-15.49,35s-21.18,13.08-31.43,15.32l-.79.17Z"/><path d="M471.85,462c44.09,32.52,90.73,44.72,91.15,80.79-2.12,12.71-5.78,23.5-13.32,30.85-9,8.82-18.47,11.33-27.8,13.36-31.8,0-50-53.35-50-125m-15-29.7V462c0,37.9,4.87,70.66,14.08,94.73,5.11,13.35,11.56,23.94,19.16,31.47,9.12,9,20.11,13.8,31.79,13.8h1.61l1.58-.34c10.82-2.36,23.34-5.83,35.08-17.28,11.9-11.6,15.77-27.88,17.65-39.12L578,544v-1.33c-.19-15.8-6.79-29.5-20.19-41.88-10.58-9.76-24.57-18-39.39-26.75-12.34-7.27-25.09-14.79-37.66-24.06L456.85,432.3Z"/></svg>