<svg id="Work" xmlns="http://www.w3.org/2000/svg" viewBox="0 0 1280 1280"><defs><style>.cls-1{fill:#7a7875;}</style></defs><path class="cls-1" d="M712,589.16a45,45,0,0,1-9.66-1c-20.44-4.54-30.69-36.8-35-55.62-3.85-16.86-.25-37.73,2.38-53,.72-4.16,1.7-9.86,1.7-11.53,0-2.45-3.85-11.33-8.53-18.67l-14.59-22.91,27.08,2.2c1.43.12,35.42,3.16,54.69,28.61,9,11.85,13.17,22.59,16.56,31.22,3.12,8,5.59,14.29,11,20.23a73.78,73.78,0,0,0,13.72,12c4.58,3.22,10.86,7.62,11.32,17.07v.69c-.09,21.57-30.88,40.23-36.94,43C737.43,585.33,723.79,589.16,712,589.16Z"/><path d="M662.7,435.18l12,1c1.3.1,32,2.85,49.32,25.66,8.34,11,12.17,20.8,15.55,29.43,3.28,8.36,6.11,15.57,12.43,22.53a81.44,81.44,0,0,0,15,13.12c4,2.83,7.86,5.51,8.13,11.29v.31c-.07,16.21-25.4,32.93-32.57,36.22s-20,6.94-30.62,6.94a36.81,36.81,0,0,1-8-.81c-17.51-3.88-26.85-39.22-29.3-50-3.51-15.4-.06-35.41,2.46-50,.93-5.4,1.81-10.49,1.81-12.8,0-5.15-5.67-16.38-9.7-22.7l-6.49-10.18m-28.86-17.4,16.21,25.46,6.49,10.18c3.69,5.8,6.69,12.55,7.31,15-.19,2-1,6.67-1.55,9.86-2.74,15.87-6.48,37.59-2.31,55.92a167.68,167.68,0,0,0,10,30.4c8,17.75,18.37,28.13,30.71,30.87A52.17,52.17,0,0,0,712,596.66c13,0,27.87-4.18,36.88-8.31,5.32-2.44,14.73-8.44,22.81-15.83,12.23-11.18,18.45-22.6,18.5-34V538l0-.41v-.16c-.63-13.09-9.66-19.42-14.5-22.82a66.12,66.12,0,0,1-12.48-10.93c-4.47-4.91-6.6-10.36-9.56-17.91-3.55-9.06-8-20.34-17.56-33C715.1,425.15,679.9,421.53,676,421.21l-12-1-30.08-2.45Z"/></svg>