<svg id="Work_Layer" data-name="Work Layer" xmlns="http://www.w3.org/2000/svg" xmlns:xlink="http://www.w3.org/1999/xlink" viewBox="0 0 670 709"><defs><style>.cls-1{fill:#616161;}.cls-2{fill:#747474;}.cls-3{fill:url(#radial-gradient);}.cls-4{fill:url(#radial-gradient-2);}.cls-5{fill:url(#radial-gradient-3);}.cls-6{fill:#ababab;}</style><radialGradient id="radial-gradient" cx="2229.77" cy="606" r="720.53" gradientTransform="translate(-452.2 481.88) scale(0.49 0.25)" gradientUnits="userSpaceOnUse"><stop offset="0.41" stop-color="#fff"/><stop offset="1" stop-color="#d0d0d0"/></radialGradient><radialGradient id="radial-gradient-2" cx="2229.77" cy="452.4" r="727.02" gradientTransform="translate(-644.2 485.65) scale(0.49 0.33)" xlink:href="#radial-gradient"/><radialGradient id="radial-gradient-3" cx="2229.77" cy="759.6" r="720.53" gradientTransform="translate(-260.2 443.45) scale(0.49 0.25)" xlink:href="#radial-gradient"/></defs><path d="M763.5,992V981h-42v11h-150V981h-42v11h-150V981h-53V795h53V542h-53V356h53V313h150v43h42V313h150v43h42V313h150v43h53V542h-53V795h53V981h-53v11Zm0-197V542h-42V795Zm-192,0V542h-42V795Z" transform="translate(-311.5 -298)"/><path d="M898.5,328v43h53V527h-53V810h53V966h-53v11h-120V966h-72v11h-120V966h-72v11h-120V966h-53V810h53V527h-53V371h53V328h120v43h72V328h120v43h72V328h120m-192,482h72V527h-72V810m-192,0h72V527h-72V810m414-512h-180v43h-12V298h-180v43h-12V298h-180v43h-53V557h53V780h-53V996h53v11h180V996h12v11h180V996h12v11h180V996h53V780h-53V557h53V341h-53V298Zm-192,259h12V780h-12V557Zm-192,0h12V780h-12V557Z" transform="translate(-311.5 -298)"/><rect class="cls-1" x="341.5" y="906" width="610" height="60" transform="translate(981.5 1574) rotate(180)"/><rect class="cls-1" x="341.5" y="467" width="610" height="60" transform="translate(981.5 696) rotate(180)"/><rect class="cls-2" x="598.5" y="553" width="96" height="610" transform="translate(-523 1206.5) rotate(-90)"/><rect class="cls-2" x="598.5" y="114" width="96" height="610" transform="translate(-84 767.5) rotate(-90)"/><rect class="cls-3" x="341" y="573.5" width="611" height="120" transform="translate(-298.5 982) rotate(-90)"/><rect class="cls-4" x="149" y="573.5" width="611" height="120" transform="translate(-490.5 790) rotate(-90)"/><rect class="cls-5" x="533" y="573.5" width="611" height="120" transform="translate(-106.5 1174) rotate(-90)"/><rect class="cls-6" x="819.5" y="898" width="38" height="120" transform="translate(-431 1498.5) rotate(-90)"/><rect class="cls-6" x="627.5" y="898" width="38" height="120" transform="translate(-623 1306.5) rotate(-90)"/><rect class="cls-6" x="435.5" y="898" width="38" height="120" transform="translate(-815 1114.5) rotate(-90)"/></svg>