<svg id="Work_Layer" data-name="Work Layer" xmlns="http://www.w3.org/2000/svg" xmlns:xlink="http://www.w3.org/1999/xlink" viewBox="0 0 670 1338"><defs><style>.cls-1{fill:#616161;}.cls-2{fill:#747474;}.cls-3{fill:url(#radial-gradient);}.cls-4{fill:url(#radial-gradient-2);}.cls-5{fill:url(#radial-gradient-3);}.cls-6{fill:#ababab;}</style><radialGradient id="radial-gradient" cx="1614.5" cy="1005.3" r="720.53" gradientTransform="translate(-772.5 676.48) scale(1 0.25)" gradientUnits="userSpaceOnUse"><stop offset="0.48" stop-color="#fff"/><stop offset="1" stop-color="#d0d0d0"/></radialGradient><radialGradient id="radial-gradient-2" cy="809.3" r="720.53" gradientTransform="translate(-968.5 725.52) scale(1 0.25)" xlink:href="#radial-gradient"/><radialGradient id="radial-gradient-3" cy="613.3" r="407.25" gradientTransform="translate(-337.46 2946.13) rotate(-90) scale(1.25 1.28)" xlink:href="#radial-gradient"/></defs><path d="M767,1601v-68H721v68H571v-68H525v68H375v-68H326V1347h49V1062H326V876h49V566H326V395h49V293H525V395h46V293H721V395h46V293H917V395h49V566H917V876h49v186H917v285h49v186H917v68Zm0-254V1062H721v285Zm-196,0V1062H525v285ZM767,876V566H721V876Zm-196,0V566H525V876Z" transform="translate(-311 -278)"/><path d="M902,308V410h49V551H902V891h49v156H902v315h49v156H902v68H782v-68H706v68H586v-68H510v68H390v-68H341V1362h49V1047H341V891h49V551H341V410h49V308H510V410h76V308H706V410h76V308H902M706,891h76V551H706V891m-196,0h76V551H510V891m196,471h76V1047H706v315m-196,0h76V1047H510v315M932,278H752V380H736V278H556V380H540V278H360V380H311V581h49V861H311v216h49v255H311v216h49v68H540v-68h16v68H736v-68h16v68H932v-68h49V1332H932V1077h49V861H932V581h49V380H932V278ZM736,581h16V861H736V581Zm-196,0h16V861H540V581Zm196,496h16v255H736V1077Zm-196,0h16v255H540V1077Z" transform="translate(-311 -278)"/><rect class="cls-1" x="341" y="1458" width="610" height="60" transform="translate(981 2698) rotate(180)"/><rect class="cls-1" x="341" y="987" width="610" height="60" transform="translate(981 1756) rotate(180)"/><rect class="cls-1" x="341" y="506" width="610" height="45" transform="translate(981 779) rotate(180)"/><rect class="cls-2" x="598" y="1105" width="96" height="610" transform="translate(-1075 1778) rotate(-90)"/><rect class="cls-2" x="598" y="634" width="96" height="610" transform="translate(-604 1307) rotate(-90)"/><rect class="cls-2" x="598" y="153" width="96" height="610" transform="translate(-123 826) rotate(-90)"/><rect class="cls-3" x="222" y="868" width="1240" height="120" transform="translate(-397 1492) rotate(-90)"/><rect class="cls-4" x="26" y="868" width="1240" height="120" transform="translate(-593 1296) rotate(-90)"/><rect class="cls-5" x="-170" y="868" width="1240" height="120" transform="translate(-789 1100) rotate(-90)"/><rect class="cls-6" x="627" y="1507" width="38" height="120" transform="translate(-1232 1935) rotate(-90)"/><rect class="cls-6" x="823" y="1507" width="38" height="120" transform="translate(-1036 2131) rotate(-90)"/><rect class="cls-6" x="431" y="1507" width="38" height="120" transform="translate(-1428 1739) rotate(-90)"/></svg>