<svg id="Work_Layer" data-name="Work Layer" xmlns="http://www.w3.org/2000/svg" xmlns:xlink="http://www.w3.org/1999/xlink" viewBox="0 0 671 715"><defs><style>.cls-1{fill:#616161;}.cls-2{fill:#747474;}.cls-3{fill:#bdbdbd;}.cls-4{fill:url(#radial-gradient);}.cls-5{fill:url(#radial-gradient-2);}.cls-6{fill:url(#radial-gradient-3);}.cls-7{fill:url(#radial-gradient-4);}</style><radialGradient id="radial-gradient" cx="831.44" cy="820" r="720.53" gradientTransform="translate(-74.18 360.87) scale(0.49 0.2)" gradientUnits="userSpaceOnUse"><stop offset="0.41" stop-color="#fff"/><stop offset="1" stop-color="#d0d0d0"/></radialGradient><radialGradient id="radial-gradient-2" cx="831.44" cy="624" r="720.53" gradientTransform="translate(-74.18 204.1) scale(0.49 0.2)" xlink:href="#radial-gradient"/><radialGradient id="radial-gradient-3" cx="831.44" cy="624" r="667.21" gradientTransform="translate(-74.18 193.59) scale(0.49 0.22)" xlink:href="#radial-gradient"/><radialGradient id="radial-gradient-4" cx="831.44" cy="428" r="720.53" gradientTransform="translate(-74.18 47.33) scale(0.49 0.2)" xlink:href="#radial-gradient"/></defs><path d="M796.5,995V915h-313v80h-126V915h-37V757h37V719h-37V561h37V523h-37V365h37V310h126v55h313V310h126v55h39V523h-39v38h39V719h-39v38h39V915h-39v80Zm0-238V719h-313v38Zm0-196V523h-313v38Z" transform="translate(-305.5 -295)"/><path d="M907.5,325v55h39V508h-39v68h39V704h-39v68h39V900h-39v80h-96V900h-343v80h-96V900h-37V772h37V704h-37V576h37V508h-37V380h37V325h96v55h343V325h96m-439,251h343V508h-343v68m0,196h343V704h-343v68m469-477h-156v55h-283V295h-156v55h-37V538h37v8h-37V734h37v8h-37V930h37v80h156V930h283v80h156V930h39V742h-39v-8h39V546h-39v-8h39V350h-39V295Zm-439,243h283v8h-283v-8Zm0,196h283v8h-283v-8Z" transform="translate(-305.5 -295)"/><rect class="cls-1" x="506" y="640" width="96" height="45"/><rect class="cls-1" x="67" y="640" width="96" height="45"/><rect class="cls-2" x="67" y="30" width="96" height="610"/><rect class="cls-2" x="506" y="30" width="96" height="610"/><rect class="cls-3" x="30" y="573" width="611" height="32"/><rect class="cls-4" x="30" y="477" width="611" height="96"/><rect class="cls-3" x="30" y="377" width="611" height="32"/><rect class="cls-5" x="30" y="281" width="611" height="96"/><rect class="cls-3" x="30" y="377" width="611" height="32"/><rect class="cls-6" x="30" y="281" width="611" height="96"/><rect class="cls-3" x="30" y="181" width="611" height="32"/><rect class="cls-7" x="30" y="85" width="611" height="96"/></svg>