<svg id="Work_Layer" data-name="Work Layer" xmlns="http://www.w3.org/2000/svg" xmlns:xlink="http://www.w3.org/1999/xlink" viewBox="0 0 1300 715"><defs><style>.cls-1{fill:#616161;}.cls-2{fill:#747474;}.cls-3{fill:#bdbdbd;}.cls-4{fill:url(#radial-gradient);}.cls-5{fill:url(#radial-gradient-2);}.cls-6{fill:url(#radial-gradient-3);}</style><radialGradient id="radial-gradient" cx="960" cy="820" r="720.53" gradientTransform="translate(-310 360.87) scale(1 0.2)" gradientUnits="userSpaceOnUse"><stop offset="0.41" stop-color="#fff"/><stop offset="1" stop-color="#d0d0d0"/></radialGradient><radialGradient id="radial-gradient-2" cy="624" r="720.53" gradientTransform="translate(-310 204.1) scale(1 0.2)" xlink:href="#radial-gradient"/><radialGradient id="radial-gradient-3" cy="428" r="720.53" gradientTransform="translate(-310 47.33) scale(1 0.2)" xlink:href="#radial-gradient"/></defs><path d="M1373,995V915H1018v80H892V915H547v80H421V915H325V757h96V719H325V561h96V523H325V365h96V310H547v55H892V310h126v55h355V310h126v55h96V523h-96v38h96V719h-96v38h96V915h-96v80Zm0-238V719H1018v38Zm-481,0V719H547v38Zm481-196V523H1018v38Zm-481,0V523H547v38Z" transform="translate(-310 -295)"/><path d="M1484,325v55h96V508h-96v68h96V704h-96v68h96V900h-96v80h-96V900H1003v80H907V900H532v80H436V900H340V772h96V704H340V576h96V508H340V380h96V325h96v55H907V325h96v55h385V325h96M1003,576h385V508H1003v68m-471,0H907V508H532v68m471,196h385V704H1003v68m-471,0H907V704H532v68m982-477H1358v55H1033V295H877v55H562V295H406v55H310V538h96v8H310V734h96v8H310V930h96v80H562V930H877v80h156V930h325v80h156V930h96V742h-96v-8h96V546h-96v-8h96V350h-96V295ZM1033,538h325v8H1033v-8Zm-471,0H877v8H562v-8Zm471,196h325v8H1033v-8Zm-471,0H877v8H562v-8Z" transform="translate(-310 -295)"/><rect class="cls-1" x="597" y="640" width="96" height="45"/><rect class="cls-1" x="126" y="640" width="96" height="45"/><rect class="cls-1" x="1078" y="640" width="96" height="45"/><rect class="cls-2" x="126" y="30" width="96" height="610"/><rect class="cls-2" x="597" y="30" width="96" height="610"/><rect class="cls-2" x="1078" y="30" width="96" height="610"/><rect class="cls-3" x="30" y="573" width="1240" height="32"/><rect class="cls-4" x="30" y="477" width="1240" height="96"/><rect class="cls-5" x="30" y="281" width="1240" height="96"/><rect class="cls-6" x="30" y="85" width="1240" height="96"/><rect class="cls-3" x="30" y="377" width="1240" height="32"/><rect class="cls-3" x="30" y="181" width="1240" height="32"/></svg>