<svg id="Layer_2" data-name="Layer 2" xmlns="http://www.w3.org/2000/svg" xmlns:xlink="http://www.w3.org/1999/xlink" viewBox="0 0 655.69 651.63"><defs><style>.cls-1{fill:#8f8161;}.cls-2{fill:#5a555a;}.cls-3{fill:url(#linear-gradient);}.cls-4{fill:#636163;}.cls-5{fill:url(#linear-gradient-2);}.cls-6{fill:url(#linear-gradient-3);}.cls-7{fill:url(#linear-gradient-4);}.cls-8{fill:url(#linear-gradient-5);}.cls-9{fill:url(#linear-gradient-6);}</style><linearGradient id="linear-gradient" x1="475.89" y1="867.24" x2="657.31" y2="867.24" gradientTransform="matrix(1, 0, 0, 1, 4.31, -4.86)" gradientUnits="userSpaceOnUse"><stop offset="0" stop-color="#745838"/><stop offset="1" stop-color="#a17d5a"/></linearGradient><linearGradient id="linear-gradient-2" x1="460.26" y1="1019.35" x2="673.79" y2="1019.35" gradientTransform="translate(35.3 -8.05) rotate(0.16)" gradientUnits="userSpaceOnUse"><stop offset="0" stop-color="#686c68"/><stop offset="1" stop-color="#808480"/></linearGradient><linearGradient id="linear-gradient-3" x1="459.93" y1="709.29" x2="673.46" y2="709.29" gradientTransform="translate(-27.89 -1.66) rotate(0.16)" xlink:href="#linear-gradient-2"/><linearGradient id="linear-gradient-4" x1="737.7" y1="839.62" x2="919.12" y2="839.62" gradientTransform="matrix(1, 0, 0, 1, -1.9, -76.33)" xlink:href="#linear-gradient"/><linearGradient id="linear-gradient-5" x1="722.07" y1="991.73" x2="935.6" y2="991.73" gradientTransform="translate(75.21 -97.32) rotate(0.16)" xlink:href="#linear-gradient-2"/><linearGradient id="linear-gradient-6" x1="721.74" y1="681.66" x2="935.27" y2="681.66" gradientTransform="translate(-82.04 -54.8) rotate(0.16)" xlink:href="#linear-gradient-2"/></defs><path d="M516.14,1080.63a33.21,33.21,0,0,1-32.37-26.35l-6.91-33.21a32.89,32.89,0,0,1,10.27-31.4L442.46,775a33.24,33.24,0,0,1-21.35-24.43L414.2,717.4a33.05,33.05,0,0,1-.06-13.29,15,15,0,0,1-5.69-8.47c-.18-.71-4.36-17.48-8.25-35.92-7.84-37.18-7-45.65-5.67-50.67,3-11,14.26-12.77,18.5-13.45,4.43-.71,10.23-1.2,17.57-1.82,51.66-4.37,172.63-14.6,300.3-130.87A15,15,0,0,1,741,459c19.69,0,54.5,29,69.87,66.29a15,15,0,0,1,.06,11.28q.71,0,1.41,0a33.23,33.23,0,0,1,28.53,16.31l17.2,29.25a33.06,33.06,0,0,1,0,33.5L968.91,804.09h.16a33.2,33.2,0,0,1,28.52,16.31l17.2,29.24A33.14,33.14,0,0,1,1003,894.93L850.23,984.79a33,33,0,0,1-16.75,4.57h0A33.24,33.24,0,0,1,805,973l-17.2-29.24a32.87,32.87,0,0,1-.33-33l-111.13-189a33.1,33.1,0,0,1-17.36-5.23,33.31,33.31,0,0,1-10.24,16.18l44.56,214.09a33.24,33.24,0,0,1,21.94,24.63l6.91,33.21a33.12,33.12,0,0,1-25.65,39.13L522.9,1079.93A33.51,33.51,0,0,1,516.14,1080.63Z" transform="translate(-378.65 -444)"/><path d="M741,474c11,0,42,23,56,57-1.77,2.36-10.78,15.27-29.77,32.91l7.3,7L803.19,554a18.07,18.07,0,0,1,24.75,6.42l17.2,29.24a18.07,18.07,0,0,1-5.51,24.15l121.72,207A18.07,18.07,0,0,1,984.66,828l17.2,29.24A18.09,18.09,0,0,1,995.44,882L842.63,971.86a18.07,18.07,0,0,1-24.75-6.42l-17.2-29.24a18.08,18.08,0,0,1,5.07-23.86L684,705.28a18.06,18.06,0,0,1-22.82-7.39L644,668.65a18.08,18.08,0,0,1,6.42-24.75l29.81-17.52-.51-2.28c-26.6,13.74-58.47,27.06-96.34,38.43l.56,1.09,32.56-6.78a18.07,18.07,0,0,1,21.38,14l6.91,33.21a18.07,18.07,0,0,1-13,21.11l48.93,235.08a18.75,18.75,0,0,1,2.1-.12,18.06,18.06,0,0,1,17.68,14.39l6.91,33.21a18.07,18.07,0,0,1-14,21.38l-173.56,36.12a18,18,0,0,1-21.38-14L491.54,1018A18.09,18.09,0,0,1,504,997L455.05,761.88c-.53,0-1.05.06-1.57.06a18.06,18.06,0,0,1-17.68-14.38l-6.92-33.21a18.1,18.1,0,0,1,14-21.39l33.85-7v-.13Q451.14,689.54,423,692s-17-68-14-79,164,14,332-139m0-30a30,30,0,0,0-20.2,7.82c-123.9,112.84-241.32,122.77-291.47,127-7.65.65-13.69,1.16-18.67,2A50.59,50.59,0,0,0,400,583.55a32.33,32.33,0,0,0-19.89,21.56c-2.46,9-2.31,20.85,5.46,57.71,4,18.7,8.2,35.74,8.38,36.46a29.55,29.55,0,0,0,4.62,10.06,48.44,48.44,0,0,0,1,11.12l6.92,33.21a48.13,48.13,0,0,0,16.94,27.67,47.56,47.56,0,0,0,5.93,4.07l41.61,199.91a48.87,48.87,0,0,0-2.94,4.36,48,48,0,0,0-5.8,34.45l6.92,33.21a48.07,48.07,0,0,0,47.05,38.29,47.63,47.63,0,0,0,9.81-1l173.56-36.12a48.07,48.07,0,0,0,37.28-56.87l-6.92-33.21a48.16,48.16,0,0,0-16.94-27.67,48.81,48.81,0,0,0-6.55-4.42L665,737.28c.42-.54.84-1.1,1.24-1.66l.94.2,103.51,176a48.16,48.16,0,0,0,4.17,39.56L792,980.65a48.07,48.07,0,0,0,65.82,17.07l152.81-89.87A48.13,48.13,0,0,0,1027.72,842l-17.2-29.24A48.32,48.32,0,0,0,978,789.93L874.92,614.68A48,48,0,0,0,871,574.49l-17.2-29.24a48.26,48.26,0,0,0-27.74-21.69,28.55,28.55,0,0,0-1.32-4,149.63,149.63,0,0,0-36.56-51.91C776.44,456.87,758.72,444,741,444Z" transform="translate(-378.65 -444)"/><path class="cls-1" d="M409,613c3-11,164,14,332-139,11,0,42,23,56,57-6,8-95,137-374,161C423,692,406,624,409,613Z" transform="translate(-378.65 -444)"/><polygon class="cls-2" points="94.52 274.66 104.97 179.21 176.41 164.34 220.31 248.48 94.52 274.66"/><rect class="cls-3" x="478.23" y="701.75" width="180.52" height="324.4" transform="matrix(0.98, -0.2, 0.2, 0.98, -542.77, -310.04)"/><rect class="cls-4" x="534.86" y="774.83" width="67.26" height="178.27" rx="9.19" transform="translate(-542.77 -310.04) rotate(-11.76)"/><rect class="cls-5" x="492.76" y="977.83" width="213.44" height="70.08" rx="18.08" transform="translate(-572.46 -300.6) rotate(-11.76)"/><rect class="cls-6" x="430.1" y="674.17" width="213.44" height="70.08" rx="18.08" transform="translate(-511.9 -319.74) rotate(-11.76)"/><polygon class="cls-2" points="308.64 214.54 287.93 120.78 350.84 83.78 419.39 149.41 308.64 214.54"/><rect class="cls-7" x="733.9" y="603.4" width="180.52" height="324.4" transform="translate(-653.01 79.44) rotate(-30.46)"/><rect class="cls-4" x="790.54" y="676.47" width="67.26" height="178.27" rx="9.19" transform="translate(-653.01 79.44) rotate(-30.46)"/><rect class="cls-8" x="794.55" y="861.68" width="213.44" height="70.08" rx="18.08" transform="translate(-708.83 136.62) rotate(-30.46)"/><rect class="cls-9" x="637.83" y="594.13" width="213.44" height="70.08" rx="18.08" transform="translate(-594.84 20.25) rotate(-30.46)"/></svg>