<svg id="Layer_2" data-name="Layer 2" xmlns="http://www.w3.org/2000/svg" xmlns:xlink="http://www.w3.org/1999/xlink" viewBox="0 0 671.29 657.8"><defs><style>.cls-1{fill:#8f8161;}.cls-2{fill:#5a555a;}.cls-3{fill:url(#linear-gradient);}.cls-4{fill:#636163;}.cls-5{fill:url(#linear-gradient-2);}.cls-6{fill:url(#linear-gradient-3);}.cls-7{fill:url(#linear-gradient-4);}.cls-8{fill:url(#linear-gradient-5);}.cls-9{fill:url(#linear-gradient-6);}</style><linearGradient id="linear-gradient" x1="564.44" y1="1248.36" x2="745.87" y2="1248.36" gradientTransform="matrix(1, 0, 0, 1, 7.4, -386.77)" gradientUnits="userSpaceOnUse"><stop offset="0" stop-color="#745838"/><stop offset="1" stop-color="#a17d5a"/></linearGradient><linearGradient id="linear-gradient-2" x1="548.81" y1="1400.47" x2="762.34" y2="1400.47" gradientTransform="translate(-58 -401.55) rotate(0.16)" gradientUnits="userSpaceOnUse"><stop offset="0" stop-color="#686c68"/><stop offset="1" stop-color="#808480"/></linearGradient><linearGradient id="linear-gradient-3" x1="548.48" y1="1090.41" x2="762.01" y2="1090.41" gradientTransform="translate(75.26 -371.2) rotate(0.16)" xlink:href="#linear-gradient-2"/><linearGradient id="linear-gradient-4" x1="335.47" y1="876.33" x2="516.89" y2="876.33" gradientTransform="matrix(1, 0, 0, 1, 24.37, -132.37)" xlink:href="#linear-gradient"/><linearGradient id="linear-gradient-5" x1="319.84" y1="1028.44" x2="533.37" y2="1028.44" gradientTransform="translate(-59.54 -157.61) rotate(0.16)" xlink:href="#linear-gradient-2"/><linearGradient id="linear-gradient-6" x1="319.51" y1="718.37" x2="533.04" y2="718.37" gradientTransform="translate(111.41 -105.88) rotate(0.16)" xlink:href="#linear-gradient-2"/></defs><path class="cls-1" d="M873.85,623.09c-2.68-11.08-164.34,9.21-327.8-148.63-11-.33-42.66,21.76-57.64,55.34,5.76,8.17,90.95,139.71,369.14,171.85C857.55,701.65,876.52,634.17,873.85,623.09Z" transform="translate(-232.81 -444.45)"/><polygon class="cls-2" points="438.24 245.6 504.3 175.92 570.19 207.29 554.24 300.85 438.24 245.6"/><rect class="cls-3" x="568.81" y="701.21" width="180.52" height="324.4" transform="translate(202.44 -643.94) rotate(25.46)"/><rect class="cls-4" x="625.44" y="774.28" width="67.26" height="178.27" rx="9.19" transform="translate(202.44 -643.94) rotate(25.46)"/><rect class="cls-5" x="486.95" y="965.71" width="213.44" height="70.08" rx="18.08" transform="translate(255.13 -602.48) rotate(25.46)"/><rect class="cls-6" x="620.74" y="685.99" width="213.44" height="70.08" rx="18.08" transform="translate(147.87 -687.18) rotate(25.46)"/><polygon class="cls-2" points="251.33 130.69 326.46 70.9 387.33 111.15 358.5 201.57 251.33 130.69"/><rect class="cls-7" x="357.85" y="582.94" width="180.52" height="324.4" transform="translate(252.56 -568.02) rotate(33.48)"/><rect class="cls-4" x="414.47" y="656.01" width="67.26" height="178.27" rx="9.19" transform="translate(252.57 -568.01) rotate(33.48)"/><rect class="cls-8" x="257.48" y="836.98" width="213.44" height="70.08" rx="18.08" transform="translate(308.63 -500.68) rotate(33.48)"/><rect class="cls-9" x="428.96" y="578.64" width="213.44" height="70.08" rx="18.08" transform="translate(194.58 -638.13) rotate(33.48)"/><path d="M545.81,474.45h.24C709.51,632.3,871.17,612,873.85,623.09s-16.3,78.56-16.3,78.56c-21.65-2.5-42.12-5.61-61.48-9.2l-3.54,20.76,30,14.3a18.06,18.06,0,0,1,8.55,24.09l-14.58,30.63a18.07,18.07,0,0,1-23.09,9L690.19,1008a18.08,18.08,0,0,1,7.12,23.33L682.72,1062a18.06,18.06,0,0,1-24.09,8.55L498.57,994.28a18.09,18.09,0,0,1-8.55-24.1l14.59-30.63a18.07,18.07,0,0,1,22.6-9.17L630.48,713.51a18.08,18.08,0,0,1-6.66-23l14.58-30.62a18,18,0,0,1,13-10q-7.78-3.32-15.13-6.72a18.06,18.06,0,0,1-2.21,15.27L615.34,686.7a18.08,18.08,0,0,1-24.12,5.66L458.77,892.65a18.08,18.08,0,0,1,3.8,24.09L443.86,945a18.08,18.08,0,0,1-25.06,5.11L270.94,852.35a18.07,18.07,0,0,1-5.11-25.05L284.54,799a18.07,18.07,0,0,1,23.66-5.93L440.7,592.72A18.09,18.09,0,0,1,437.31,569L456,540.67a18.08,18.08,0,0,1,25.06-5.11l25.26,16.71a199.53,199.53,0,0,1-17.93-22.47c14.88-33.34,46.19-55.35,57.4-55.35m147.9,191.7.1-.1-1-.35,1,.45m-147.9-221.7h0c-17.5,0-35.24,12.27-47,22.56a152.42,152.42,0,0,0-29.91,35.6A48,48,0,0,0,431,524.12l-18.71,28.3A48,48,0,0,0,405.86,591L293.22,761.32a48,48,0,0,0-33.7,21.13l-18.71,28.3a48.07,48.07,0,0,0,13.58,66.62l147.86,97.79a48.09,48.09,0,0,0,56.26-2.31,48.16,48.16,0,0,0,27.16,48.51l160.06,76.22a47.69,47.69,0,0,0,20.66,4.68,48.33,48.33,0,0,0,43.42-27.41l14.58-30.63a47.93,47.93,0,0,0,2.53-34.85,46.7,46.7,0,0,0-1.82-4.92L812.51,820.9a48.3,48.3,0,0,0,31.09-25.77l14.59-30.63a47.75,47.75,0,0,0,3-33.08,30,30,0,0,0,25.19-21.65c.2-.71,5-17.62,9.44-36.2C904.71,637,905.2,625.11,903,616a32.39,32.39,0,0,0-19.26-22.13,51.67,51.67,0,0,0-10.62-3.07c-5-.94-11-1.63-18.61-2.5-50-5.7-167.08-19.06-287.64-135.47a30,30,0,0,0-20-8.4l-1.12,0ZM493.84,894l62.39-94.34-48.29,101.4a48.59,48.59,0,0,0-12.37,5.47A49,49,0,0,0,493.84,894Z" transform="translate(-232.81 -444.45)"/></svg>